<?xml version="1.0" standalone="no"?><!DOCTYPE svg PUBLIC "-//W3C//DTD SVG 1.1//EN" "http://www.w3.org/Graphics/SVG/1.1/DTD/svg11.dtd" ><svg xmlns="http://www.w3.org/2000/svg"><metadata></metadata><defs><font id="Noto Sans CJK TC Regular:Version 1.003" horiz-adv-x="1000"><font-face font-family="Noto Sans CJK TC Regular" font-weight="400" font-stretch="normal" units-per-em="1000" panose-1="2 11 5 0 0 0 0 0 0 0" ascent="1160" descent="-320" x-height="0" bbox="-44 -279 980 880" underline-thickness="50" underline-position="-125" unicode-range="U+0021-ff1f" /><missing-glyph horiz-adv-x="1000" d="M100 880 L900 880 L900 -120 L100 -120 L100 880 ZM818 830 L182 830 L500 421 L818 830 ZM850 -29 L850 789 L532 380 L850 -29 ZM818 -70 L500 339 L182 -70 L818 -70 ZM150 -29 L468 380 L150 789 L150 -29 Z" /><glyph glyph-name="" unicode="!" d="M115 749 L208 749 L193 221 L130 221 L115 749 ZM161 -13 Q133 -13 115 6 Q95 26 95 56 Q95 86 115 107 Q134 127 161 127 Q189 127 208 107 Q227 87 227 56 Q227 26 208 6 Q189 -13 161 -13 Z" /><glyph glyph-name="" unicode="&quot;" d="M92 668 L90 771 L186 771 L184 668 L166 483 L110 483 L92 668 ZM289 668 L286 771 L383 771 L381 668 L362 483 L307 483 L289 668 Z" /><glyph glyph-name="" unicode="#" d="M128 228 L40 228 L40 292 L136 292 L157 458 L62 458 L62 521 L164 521 L190 726 L249 726 L224 521 L372 521 L399 726 L457 726 L432 521 L521 521 L521 458 L425 458 L404 292 L499 292 L499 228 L396 228 L369 0 L309 0 L336 228 L188 228 L160 0 L101 0 L128 228 ZM344 292 L365 458 L216 458 L196 292 L344 292 Z" /><glyph glyph-name="" unicode="$" d="M424 587 Q359 650 288 650 Q236 650 206 620 Q175 591 175 542 Q175 488 224 451 Q244 436 332 392 Q406 355 439 318 Q488 265 488 184 Q488 105 441 53 Q395 1 315 -10 L315 -123 L249 -123 L249 -12 Q140 -1 58 74 L101 136 Q187 63 273 63 Q399 63 399 178 Q399 238 350 280 Q324 303 243 345 Q166 383 135 415 Q86 465 86 538 Q86 612 131 663 Q176 712 249 723 L249 836 L315 836 L315 725 Q402 715 473 641 L424 587 Z" /><glyph glyph-name="" unicode="%" d="M205 284 Q129 284 85 345 Q39 407 39 517 Q39 626 85 687 Q129 747 205 747 Q282 747 326 687 Q372 626 372 517 Q372 407 326 345 Q282 284 205 284 ZM205 341 Q250 341 276 385 Q303 432 303 517 Q303 691 205 691 Q161 691 135 648 Q108 602 108 517 Q108 432 135 385 Q161 341 205 341 ZM631 747 L693 747 L288 -13 L227 -13 L631 747 ZM716 -13 Q640 -13 595 48 Q549 110 549 219 Q549 328 595 389 Q640 449 716 449 Q792 449 837 389 Q882 328 882 219 Q882 109 837 48 Q792 -13 716 -13 ZM716 43 Q760 43 786 87 Q813 134 813 219 Q813 304 786 350 Q760 393 716 393 Q618 393 618 219 Q618 134 645 87 Q671 43 716 43 Z" /><glyph glyph-name="" unicode="&amp;" d="M125 195 Q125 135 167 97 Q208 60 270 60 Q341 60 410 119 Q295 220 217 338 Q125 264 125 195 ZM211 575 Q211 517 246 445 Q371 529 371 600 Q371 681 301 681 Q260 681 235 651 Q211 621 211 575 ZM638 -13 Q558 9 471 71 Q379 -13 259 -13 Q160 -13 98 44 Q36 101 36 190 Q36 302 180 402 Q132 496 132 573 Q132 648 179 697 Q226 747 301 747 Q368 747 407 706 Q445 667 445 602 Q445 538 393 480 Q361 444 280 385 Q352 271 466 178 Q535 268 570 395 L654 395 Q610 243 526 133 Q601 80 663 63 L638 -13 Z" /><glyph glyph-name="" unicode="&#39;" d="M92 668 L90 771 L186 771 L184 668 L166 483 L110 483 L92 668 Z" /><glyph glyph-name="" unicode="(" d="M239 -197 Q92 43 92 311 Q92 580 239 818 L296 792 Q168 582 168 311 Q168 39 296 -170 L239 -197 Z" /><glyph glyph-name="" unicode=")" d="M43 -170 Q171 41 171 311 Q171 579 43 792 L99 818 Q247 581 247 311 Q247 42 99 -197 L43 -170 Z" /><glyph glyph-name="" unicode="*" d="M110 503 L173 607 L64 652 L82 703 L196 675 L206 796 L260 796 L270 676 L384 703 L401 652 L292 607 L356 503 L312 471 L233 566 L154 471 L110 503 Z" /><glyph glyph-name="" unicode="+" d="M241 335 L38 335 L38 403 L241 403 L241 621 L314 621 L314 403 L517 403 L517 335 L314 335 L314 116 L241 116 L241 335 Z" /><glyph glyph-name="" unicode="," d="M53 -136 Q151 -93 153 0 Q149 -1 142 -1 Q114 -1 95 15 Q75 33 75 63 Q75 91 96 110 Q115 127 144 127 Q221 127 221 19 Q221 -128 75 -190 L53 -136 Z" /><glyph glyph-name="" unicode="-&#x2011;" d="M46 315 L302 315 L302 245 L46 245 L46 315 Z" /><glyph glyph-name="" unicode="." d="M139 -13 Q111 -13 93 6 Q73 26 73 56 Q73 86 93 107 Q112 127 139 127 Q166 127 186 107 Q205 86 205 56 Q205 26 186 6 Q167 -13 139 -13 Z" /><glyph glyph-name="" unicode="/" d="M311 793 L377 793 L78 -179 L11 -179 L311 793 Z" /><glyph glyph-name="" unicode="0" d="M278 -13 Q171 -13 111 82 Q49 182 49 369 Q49 556 111 654 Q170 747 278 747 Q385 747 444 653 Q506 555 506 369 Q506 182 444 82 Q385 -13 278 -13 ZM278 60 Q417 60 417 369 Q417 673 278 673 Q138 673 138 369 Q138 60 278 60 Z" /><glyph glyph-name="" unicode="1" d="M88 76 L251 76 L251 623 L121 623 L121 681 Q212 698 273 733 L343 733 L343 76 L490 76 L490 0 L88 0 L88 76 Z" /><glyph glyph-name="" unicode="2" d="M44 54 Q380 348 380 527 Q380 593 347 631 Q311 672 245 672 Q164 672 93 587 L40 639 Q140 747 256 747 Q354 747 412 688 Q469 629 469 530 Q469 344 182 72 Q271 79 302 79 L505 79 L505 0 L44 0 L44 54 Z" /><glyph glyph-name="" unicode="3" d="M264 -13 Q121 -13 29 87 L75 147 Q155 63 257 63 Q323 63 364 100 Q406 137 406 199 Q406 346 178 346 L178 416 Q381 416 381 556 Q381 609 348 641 Q314 672 257 674 Q175 671 105 601 L56 659 Q151 747 261 747 Q356 747 414 699 Q474 649 474 563 Q474 435 343 386 L343 382 Q411 366 454 319 Q499 268 499 196 Q499 100 430 42 Q365 -13 264 -13 Z" /><glyph glyph-name="" unicode="4" d="M339 275 L339 500 Q339 519 345 633 L341 633 Q317 585 282 525 L115 275 L339 275 ZM523 202 L426 202 L426 0 L339 0 L339 202 L20 202 L20 262 L325 733 L426 733 L426 275 L523 275 L523 202 Z" /><glyph glyph-name="" unicode="5" d="M261 -13 Q125 -13 28 84 L73 144 Q154 63 253 63 Q319 63 363 109 Q409 158 409 236 Q409 314 368 359 Q327 403 257 403 Q200 403 135 360 L86 390 L109 733 L466 733 L466 655 L189 655 L171 443 Q223 472 280 472 Q377 472 436 416 Q501 354 501 239 Q501 123 428 53 Q359 -13 261 -13 Z" /><glyph glyph-name="" unicode="6" d="M301 58 Q354 58 389 104 Q425 151 425 225 Q425 387 293 387 Q209 387 143 293 Q160 58 301 58 ZM448 615 Q402 671 330 671 Q146 671 141 366 Q214 455 308 455 Q403 455 456 397 Q511 337 511 225 Q511 121 449 53 Q389 -13 301 -13 Q191 -13 126 78 Q56 174 56 350 Q56 552 138 656 Q210 747 327 747 Q428 747 498 672 L448 615 Z" /><glyph glyph-name="" unicode="7" d="M198 0 Q215 390 404 655 L49 655 L49 733 L508 733 L508 678 Q386 521 340 364 Q302 233 293 0 L198 0 Z" /><glyph glyph-name="" unicode="8" d="M279 -13 Q178 -13 111 42 Q45 97 45 182 Q45 311 180 384 L180 389 Q81 457 81 558 Q81 641 138 693 Q195 744 282 744 Q374 744 429 690 Q483 637 483 551 Q483 450 385 374 L385 369 Q509 297 509 177 Q509 96 446 42 Q381 -13 279 -13 ZM329 398 Q405 465 405 546 Q405 602 372 639 Q337 677 280 677 Q229 677 197 644 Q164 611 164 558 Q164 499 214 458 Q249 430 329 398 ZM281 55 Q344 55 383 90 Q422 124 422 179 Q422 245 364 289 Q328 316 228 356 Q128 292 128 190 Q128 132 172 93 Q215 55 281 55 Z" /><glyph glyph-name="" unicode="9" d="M261 346 Q345 346 414 444 Q399 675 254 675 Q201 675 166 630 Q130 583 130 509 Q130 433 163 390 Q197 346 261 346 ZM108 119 Q158 63 231 63 Q406 63 415 369 Q342 278 246 278 Q152 278 99 337 Q44 397 44 509 Q44 613 106 681 Q166 747 254 747 Q364 747 430 660 Q500 567 500 398 Q500 189 419 81 Q348 -13 234 -13 Q130 -13 58 62 L108 119 Z" /><glyph glyph-name="" unicode=":" d="M139 390 Q112 390 93 410 Q73 429 73 459 Q73 490 93 510 Q111 530 139 530 Q167 530 186 510 Q205 490 205 459 Q205 429 186 410 Q166 390 139 390 ZM139 -13 Q111 -13 93 6 Q73 26 73 56 Q73 86 93 107 Q112 127 139 127 Q166 127 186 107 Q205 86 205 56 Q205 26 186 6 Q167 -13 139 -13 Z" /><glyph glyph-name="" unicode=";" d="M139 390 Q112 390 93 410 Q73 429 73 459 Q73 490 93 510 Q111 530 139 530 Q167 530 186 510 Q205 490 205 459 Q205 429 186 410 Q166 390 139 390 ZM53 -136 Q151 -93 153 0 Q149 -1 142 -1 Q114 -1 95 15 Q75 33 75 63 Q75 91 96 110 Q115 127 144 127 Q221 127 221 19 Q221 -128 75 -190 L53 -136 Z" /><glyph glyph-name="" unicode="&lt;" d="M38 334 L38 407 L517 595 L517 516 L131 373 L131 369 L517 226 L517 146 L38 334 Z" /><glyph glyph-name="" unicode="=" d="M38 522 L517 522 L517 454 L38 454 L38 522 ZM38 283 L517 283 L517 215 L38 215 L38 283 Z" /><glyph glyph-name="" unicode="&gt;" d="M38 226 L424 369 L424 373 L38 516 L38 595 L517 407 L517 334 L38 146 L38 226 Z" /><glyph glyph-name="" unicode="?" d="M178 221 Q165 317 246 420 Q332 529 332 578 Q332 625 305 655 Q275 686 224 686 Q151 686 95 622 L43 670 Q123 762 234 762 Q319 762 370 714 Q421 665 421 584 Q421 515 333 406 Q250 303 259 221 L178 221 ZM221 -13 Q193 -13 175 6 Q155 26 155 56 Q155 86 175 107 Q194 127 221 127 Q249 127 268 107 Q288 86 288 56 Q288 26 268 6 Q249 -13 221 -13 Z" /><glyph glyph-name="" unicode="@" d="M450 -173 Q279 -173 171 -70 Q56 39 56 227 Q56 445 196 587 Q329 722 522 722 Q690 722 790 620 Q889 518 889 352 Q889 216 815 130 Q750 55 666 55 Q561 55 551 140 L548 140 Q484 63 412 63 Q353 63 317 104 Q278 148 278 222 Q278 318 336 396 Q400 481 493 481 Q552 481 582 426 L584 426 L597 472 L657 472 L613 249 Q582 118 674 118 Q732 118 776 179 Q825 245 825 348 Q825 488 746 572 Q663 661 515 661 Q359 661 245 543 Q124 419 124 230 Q124 70 219 -23 Q310 -112 456 -112 Q552 -112 638 -62 L662 -116 Q567 -173 450 -173 ZM430 126 Q478 126 533 192 L565 370 Q536 417 493 417 Q431 417 389 354 Q351 296 351 227 Q351 126 430 126 Z" /><glyph glyph-name="" unicode="a" d="M413 298 L378 410 Q348 503 304 658 L300 658 Q273 556 227 410 L191 298 L413 298 ZM436 224 L168 224 L97 0 L3 0 L252 733 L355 733 L604 0 L506 0 L436 224 Z" /><glyph glyph-name="" unicode="b" d="M100 733 L318 733 Q570 733 570 554 Q570 429 462 395 L462 390 Q612 361 612 215 Q612 110 535 54 Q461 0 334 0 L100 0 L100 733 ZM302 421 Q479 421 479 542 Q479 660 306 660 L193 660 L193 421 L302 421 ZM321 74 Q521 74 521 218 Q521 350 321 350 L193 350 L193 74 L321 74 Z" /><glyph glyph-name="" unicode="c" d="M377 -13 Q237 -13 149 87 Q58 191 58 366 Q58 540 151 645 Q241 747 383 747 Q503 747 584 656 L534 596 Q469 666 384 666 Q279 666 216 586 Q153 505 153 369 Q153 230 215 149 Q276 68 381 68 Q475 68 551 150 L602 92 Q511 -13 377 -13 Z" /><glyph glyph-name="" unicode="d" d="M100 733 L284 733 Q452 733 541 638 Q630 544 630 369 Q630 194 542 98 Q453 0 288 0 L100 0 L100 733 ZM276 76 Q404 76 470 153 Q534 228 534 369 Q534 658 276 658 L193 658 L193 76 L276 76 Z" /><glyph glyph-name="" unicode="e" d="M100 733 L523 733 L523 655 L193 655 L193 425 L471 425 L471 346 L193 346 L193 79 L534 79 L534 0 L100 0 L100 733 Z" /><glyph glyph-name="" unicode="f" d="M100 733 L523 733 L523 655 L193 655 L193 407 L473 407 L473 329 L193 329 L193 0 L100 0 L100 733 Z" /><glyph glyph-name="" unicode="g" d="M388 -13 Q241 -13 151 87 Q58 190 58 366 Q58 541 153 645 Q246 747 394 747 Q520 747 605 656 L555 596 Q489 666 396 666 Q285 666 219 586 Q153 506 153 369 Q153 229 216 149 Q281 68 397 68 Q484 68 530 111 L530 303 L375 303 L375 380 L615 380 L615 72 Q533 -13 388 -13 Z" /><glyph glyph-name="" unicode="h" d="M100 733 L193 733 L193 426 L535 426 L535 733 L627 733 L627 0 L535 0 L535 346 L193 346 L193 0 L100 0 L100 733 Z" /><glyph glyph-name="" unicode="i" d="M100 733 L193 733 L193 0 L100 0 L100 733 Z" /><glyph glyph-name="" unicode="j" d="M237 -13 Q101 -13 35 103 L101 150 Q148 68 228 68 Q346 68 346 224 L346 733 L438 733 L438 215 Q438 113 391 54 Q339 -13 237 -13 Z" /><glyph glyph-name="" unicode="k" d="M100 733 L193 733 L193 365 L196 365 L502 733 L606 733 L377 454 L642 0 L538 0 L319 382 L193 232 L193 0 L100 0 L100 733 Z" /><glyph glyph-name="" unicode="l" d="M100 733 L193 733 L193 79 L513 79 L513 0 L100 0 L100 733 Z" /><glyph glyph-name="" unicode="m" d="M100 733 L212 733 L353 341 Q387 239 405 188 L410 188 Q419 214 435 265 L460 341 L600 733 L712 733 L712 0 L625 0 L625 406 Q625 468 637 622 L633 622 L575 455 L436 74 L374 74 L235 455 L177 622 L173 622 Q184 446 184 406 L184 0 L100 0 L100 733 Z" /><glyph glyph-name="" unicode="n" d="M100 733 L196 733 L463 271 L541 120 L546 120 Q534 298 534 352 L534 733 L622 733 L622 0 L527 0 L260 463 L181 614 L177 614 Q188 411 188 385 L188 0 L100 0 L100 733 Z" /><glyph glyph-name="" unicode="o" d="M371 -13 Q231 -13 146 90 Q58 195 58 369 Q58 543 146 646 Q231 747 371 747 Q511 747 597 646 Q684 543 684 369 Q684 195 597 90 Q511 -13 371 -13 ZM371 68 Q470 68 529 150 Q589 232 589 369 Q589 506 529 587 Q470 666 371 666 Q271 666 213 587 Q153 506 153 369 Q153 232 213 150 Q272 68 371 68 Z" /><glyph glyph-name="" unicode="p" d="M100 733 L309 733 Q584 733 584 518 Q584 405 509 346 Q439 291 314 291 L193 291 L193 0 L100 0 L100 733 ZM302 366 Q492 366 492 518 Q492 595 443 628 Q398 658 298 658 L193 658 L193 366 L302 366 Z" /><glyph glyph-name="" unicode="q" d="M153 369 Q153 229 213 146 Q272 63 371 63 Q470 63 529 146 Q589 229 589 369 Q589 506 529 587 Q470 666 371 666 Q271 666 213 587 Q153 506 153 369 ZM700 -168 Q656 -184 595 -184 Q397 -184 326 -10 Q204 7 132 107 Q58 210 58 369 Q58 543 146 646 Q231 747 371 747 Q511 747 597 646 Q684 543 684 369 Q684 213 613 111 Q543 12 425 -9 Q475 -107 605 -107 Q647 -107 682 -96 L700 -168 Z" /><glyph glyph-name="" unicode="r" d="M193 386 L316 386 Q494 386 494 527 Q494 658 316 658 L193 658 L193 386 ZM503 0 L325 311 L193 311 L193 0 L100 0 L100 733 L330 733 Q586 733 586 527 Q586 361 420 321 L608 0 L503 0 Z" /><glyph glyph-name="" unicode="s" d="M304 -13 Q151 -13 47 96 L102 159 Q190 68 305 68 Q376 68 418 101 Q459 133 459 188 Q459 239 424 270 Q402 289 337 318 L231 364 Q82 428 82 552 Q82 637 148 692 Q213 747 313 747 Q441 747 529 656 L480 597 Q406 666 313 666 Q251 666 213 637 Q176 607 176 558 Q176 511 215 479 Q238 461 297 436 L402 391 Q553 325 553 195 Q553 106 486 48 Q416 -13 304 -13 Z" /><glyph glyph-name="" unicode="t" d="M253 655 L31 655 L31 733 L568 733 L568 655 L346 655 L346 0 L253 0 L253 655 Z" /><glyph glyph-name="" unicode="u" d="M360 -13 Q97 -13 97 303 L97 733 L190 733 L190 300 Q190 68 360 68 Q535 68 535 300 L535 733 L624 733 L624 303 Q624 -13 360 -13 Z" /><glyph glyph-name="" unicode="v" d="M1 733 L98 733 L217 336 L252 215 Q272 143 288 94 L292 94 Q307 141 328 215 Q352 300 363 336 L481 733 L575 733 L342 0 L235 0 L1 733 Z" /><glyph glyph-name="" unicode="w" d="M25 733 L121 733 L220 216 L241 97 L245 97 Q262 176 298 334 L399 733 L483 733 L586 334 Q607 244 638 97 L643 97 L685 334 L762 733 L851 733 L699 0 L588 0 L477 442 L441 609 L437 609 L400 442 L291 0 L181 0 L25 733 Z" /><glyph glyph-name="" unicode="x" d="M231 379 L31 733 L133 733 L260 496 Q278 462 291 439 L295 439 L347 546 L445 733 L542 733 L342 374 L556 0 L454 0 L283 316 L279 316 Q248 251 220 198 L114 0 L17 0 L231 379 Z" /><glyph glyph-name="" unicode="y" d="M219 285 L-1 733 L98 733 L192 526 Q249 397 264 366 L268 366 Q325 486 341 526 L436 733 L532 733 L312 285 L312 0 L219 0 L219 285 Z" /><glyph glyph-name="" unicode="z" d="M50 55 L437 655 L85 655 L85 733 L551 733 L551 679 L164 79 L555 79 L555 0 L50 0 L50 55 Z" /><glyph glyph-name="" unicode="[" d="M105 791 L304 791 L304 740 L174 740 L174 -118 L304 -118 L304 -170 L105 -170 L105 791 Z" /><glyph glyph-name="" unicode="\" d="M15 793 L81 793 L380 -179 L314 -179 L15 793 Z" /><glyph glyph-name="" unicode="]" d="M34 -118 L164 -118 L164 740 L34 740 L34 791 L233 791 L233 -170 L34 -170 L34 -118 Z" /><glyph glyph-name="" unicode="^" d="M237 749 L318 749 L488 317 L408 317 L334 515 L280 664 L275 664 L147 317 L67 317 L237 749 Z" /><glyph glyph-name="" unicode="_" d="M13 -79 L545 -79 L545 -140 L13 -140 L13 -79 Z" /><glyph glyph-name="" unicode="`" d="M144 811 L208 872 L366 686 L319 641 L144 811 Z" /><glyph glyph-name="" unicode="a" d="M217 -13 Q147 -13 103 27 Q58 69 58 141 Q58 229 138 277 Q217 324 392 344 Q392 481 280 481 Q203 481 117 423 L81 486 Q192 557 295 557 Q483 557 483 334 L483 0 L408 0 L400 65 L397 65 Q303 -13 217 -13 ZM243 60 Q311 60 392 132 L392 284 Q147 255 147 147 Q147 60 243 60 Z" /><glyph glyph-name="" unicode="b" d="M331 -13 Q251 -13 176 56 L173 56 L165 0 L92 0 L92 796 L183 796 L183 578 L180 480 Q268 557 350 557 Q454 557 511 481 Q567 408 567 281 Q567 146 496 64 Q429 -13 331 -13 ZM316 63 Q385 63 428 120 Q472 180 472 279 Q472 480 329 480 Q263 480 183 405 L183 120 Q248 63 316 63 Z" /><glyph glyph-name="" unicode="c" d="M306 -13 Q195 -13 125 62 Q51 139 51 271 Q51 402 130 482 Q204 557 313 557 Q399 557 472 493 L425 432 Q371 481 316 481 Q242 481 194 423 Q146 364 146 271 Q146 177 193 120 Q239 63 314 63 Q383 63 442 117 L481 56 Q406 -13 306 -13 Z" /><glyph glyph-name="" unicode="d" d="M277 -13 Q174 -13 114 61 Q53 137 53 271 Q53 399 124 480 Q191 557 288 557 Q364 557 441 493 L436 587 L436 796 L527 796 L527 0 L453 0 L444 64 L442 64 Q363 -13 277 -13 ZM297 63 Q369 63 436 138 L436 423 Q372 480 304 480 Q237 480 193 423 Q147 364 147 272 Q147 173 186 118 Q225 63 297 63 Z" /><glyph glyph-name="" unicode="e" d="M311 -13 Q199 -13 127 62 Q51 141 51 271 Q51 398 126 480 Q197 557 296 557 Q398 557 456 488 Q512 420 512 302 Q512 276 508 250 L142 250 Q146 163 196 112 Q245 60 322 60 Q394 60 458 103 L491 43 Q404 -13 311 -13 ZM432 315 Q432 484 297 484 Q237 484 194 440 Q149 393 141 315 L432 315 Z" /><glyph glyph-name="" unicode="f" d="M336 722 Q305 736 275 736 Q198 736 198 629 L198 543 L313 543 L313 469 L198 469 L198 0 L107 0 L107 469 L33 469 L33 538 L107 543 L107 630 Q107 809 265 809 Q313 809 356 791 L336 722 Z" /><glyph glyph-name="" unicode="g" d="M275 -250 Q173 -250 113 -212 Q50 -173 50 -104 Q50 -33 131 19 L131 23 Q81 52 81 112 Q81 169 142 213 L142 217 Q71 274 71 363 Q71 450 132 505 Q190 557 275 557 Q313 557 351 543 L540 543 L540 473 L429 473 Q473 431 473 361 Q473 276 415 223 Q360 172 275 172 Q232 172 194 191 Q159 161 159 126 Q159 67 254 67 L360 67 Q549 67 549 -62 Q549 -140 475 -194 Q397 -250 275 -250 ZM275 234 Q323 234 356 269 Q390 305 390 363 Q390 421 357 456 Q324 490 275 490 Q225 490 193 457 Q159 421 159 363 Q159 305 193 269 Q226 234 275 234 ZM288 -188 Q363 -188 414 -153 Q461 -121 461 -76 Q461 -9 350 -9 L256 -9 Q222 -9 186 0 Q130 -40 130 -92 Q130 -136 172 -162 Q214 -188 288 -188 Z" /><glyph glyph-name="" unicode="h" d="M92 796 L183 796 L183 578 L180 466 Q271 557 360 557 Q526 557 526 344 L526 0 L435 0 L435 332 Q435 477 332 477 Q266 477 183 394 L183 0 L92 0 L92 796 Z" /><glyph glyph-name="" unicode="i" d="M92 543 L183 543 L183 0 L92 0 L92 543 ZM138 655 Q111 655 93 672 Q75 689 75 714 Q75 773 138 773 Q201 773 201 714 Q201 689 183 672 Q165 655 138 655 Z" /><glyph glyph-name="" unicode="j" d="M36 -243 Q-6 -243 -44 -229 L-26 -159 Q2 -169 25 -169 Q93 -169 93 -62 L93 543 L184 543 L184 -62 Q184 -243 36 -243 ZM139 655 Q112 655 94 672 Q76 689 76 714 Q76 773 139 773 Q166 773 184 757 Q202 741 202 714 Q202 689 184 672 Q165 655 139 655 Z" /><glyph glyph-name="" unicode="k" d="M92 796 L182 796 L182 256 L184 256 L417 543 L518 543 L336 325 L542 0 L443 0 L284 262 L182 143 L182 0 L92 0 L92 796 Z" /><glyph glyph-name="" unicode="l" d="M188 -13 Q92 -13 92 108 L92 796 L183 796 L183 102 Q183 63 209 63 Q218 63 228 65 L241 -5 Q220 -13 188 -13 Z" /><glyph glyph-name="" unicode="m" d="M92 543 L167 543 L175 464 L178 464 Q262 557 347 557 Q461 557 497 453 Q592 557 676 557 Q841 557 841 344 L841 0 L750 0 L750 332 Q750 477 649 477 Q588 477 512 394 L512 0 L421 0 L421 332 Q421 477 320 477 Q257 477 183 394 L183 0 L92 0 L92 543 Z" /><glyph glyph-name="" unicode="n" d="M92 543 L167 543 L175 465 L178 465 Q272 557 360 557 Q526 557 526 344 L526 0 L435 0 L435 332 Q435 477 332 477 Q266 477 183 394 L183 0 L92 0 L92 543 Z" /><glyph glyph-name="" unicode="o" d="M303 -13 Q198 -13 127 62 Q51 141 51 271 Q51 402 127 482 Q198 557 303 557 Q408 557 479 482 Q555 402 555 271 Q555 141 479 62 Q408 -13 303 -13 ZM303 63 Q374 63 417 120 Q461 177 461 271 Q461 365 417 423 Q374 481 303 481 Q233 481 189 423 Q146 365 146 271 Q146 177 189 120 Q232 63 303 63 Z" /><glyph glyph-name="" unicode="p" d="M92 543 L167 543 L175 481 L178 481 Q271 557 351 557 Q454 557 512 481 Q567 408 567 280 Q567 146 496 64 Q429 -13 331 -13 Q258 -13 181 50 L183 -45 L183 -229 L92 -229 L92 543 ZM316 63 Q385 63 428 120 Q472 180 472 279 Q472 480 329 480 Q264 480 183 405 L183 120 Q250 63 316 63 Z" /><glyph glyph-name="" unicode="q" d="M436 -36 L441 63 Q363 -13 277 -13 Q174 -13 114 61 Q53 137 53 271 Q53 399 124 480 Q191 557 288 557 Q371 557 443 491 L446 491 L455 543 L527 543 L527 -229 L436 -229 L436 -36 ZM297 63 Q369 63 436 138 L436 423 Q372 480 304 480 Q237 480 193 423 Q147 364 147 272 Q147 173 186 118 Q225 63 297 63 Z" /><glyph glyph-name="" unicode="r" d="M92 543 L167 543 L175 444 L178 444 Q240 557 332 557 Q367 557 390 545 L373 465 Q350 474 320 474 Q231 474 183 349 L183 0 L92 0 L92 543 Z" /><glyph glyph-name="" unicode="s" d="M234 -13 Q122 -13 31 62 L76 122 Q155 58 237 58 Q289 58 318 83 Q344 106 344 143 Q344 198 220 246 Q145 274 111 301 Q58 342 58 403 Q58 470 107 512 Q159 557 245 557 Q335 557 414 496 L370 437 Q305 485 245 485 Q197 485 170 462 Q146 441 146 407 Q146 373 183 349 Q202 337 266 313 Q348 282 379 258 Q432 216 432 148 Q432 79 381 35 Q327 -13 234 -13 Z" /><glyph glyph-name="" unicode="t" d="M263 -13 Q108 -13 108 168 L108 469 L27 469 L27 538 L112 543 L123 695 L199 695 L199 543 L346 543 L346 469 L199 469 L199 166 Q199 61 283 61 Q309 61 345 75 L363 7 Q301 -13 263 -13 Z" /><glyph glyph-name="" unicode="u" d="M250 -13 Q85 -13 85 199 L85 543 L176 543 L176 210 Q176 134 200 100 Q224 66 278 66 Q351 66 425 158 L425 543 L516 543 L516 0 L440 0 L433 85 L430 85 Q345 -13 250 -13 Z" /><glyph glyph-name="" unicode="v" d="M13 543 L108 543 L210 234 L261 74 L265 74 L315 234 L418 543 L508 543 L315 0 L209 0 L13 543 Z" /><glyph glyph-name="" unicode="w" d="M27 543 L120 543 L201 229 L233 77 L238 77 Q266 198 275 229 L359 543 L448 543 L533 229 L571 77 L575 77 L609 229 L689 543 L775 543 L629 0 L519 0 L440 293 L403 449 L398 449 Q374 341 361 291 L285 0 L178 0 L27 543 Z" /><glyph glyph-name="" unicode="x" d="M194 283 L29 543 L127 543 L254 333 L258 333 L374 543 L469 543 L304 274 L483 0 L383 0 L303 127 Q278 173 245 224 L240 224 L111 0 L15 0 L194 283 Z" /><glyph glyph-name="" unicode="y" d="M101 -234 Q64 -234 37 -223 L55 -150 Q80 -159 96 -159 Q181 -159 219 -42 L231 -1 L13 543 L108 543 L219 241 Q257 128 271 89 L276 89 L322 241 L419 543 L508 543 L303 -45 Q236 -234 101 -234 Z" /><glyph glyph-name="" unicode="z" d="M35 49 L321 469 L66 469 L66 543 L436 543 L436 494 L150 74 L446 74 L446 0 L35 0 L35 49 Z" /><glyph glyph-name="" unicode="{" d="M255 -170 Q186 -170 156 -139 Q124 -105 124 -21 Q124 20 129 89 Q134 157 134 194 Q134 281 38 282 L38 339 Q134 340 134 426 Q134 463 129 532 Q124 601 124 642 Q124 726 156 760 Q186 791 255 791 L304 791 L304 740 L275 740 Q231 740 215 716 Q199 693 199 637 Q199 604 202 539 Q205 474 205 434 Q205 331 138 313 L138 309 Q205 290 205 187 Q205 148 202 83 Q199 17 199 -16 Q199 -72 215 -94 Q231 -118 275 -118 L304 -118 L304 -170 L255 -170 Z" /><glyph glyph-name="" unicode="|" d="M103 838 L167 838 L167 -279 L103 -279 L103 838 Z" /><glyph glyph-name="" unicode="}" d="M34 -118 L63 -118 Q107 -118 124 -94 Q139 -72 139 -16 Q139 17 137 83 Q134 148 134 187 Q134 290 200 309 L200 313 Q134 331 134 434 Q134 474 137 539 Q139 604 139 637 Q139 693 124 716 Q107 740 63 740 L34 740 L34 791 L84 791 Q153 791 182 760 Q214 726 214 642 Q214 601 210 532 Q205 463 205 426 Q205 340 300 339 L300 282 Q205 281 205 194 Q205 157 210 89 Q214 20 214 -21 Q214 -105 182 -139 Q153 -170 84 -170 L34 -170 L34 -118 Z" /><glyph glyph-name="" unicode="~" d="M376 287 Q328 287 267 335 Q205 382 177 382 Q128 382 91 314 L40 350 Q99 450 180 450 Q227 450 288 403 Q350 356 378 356 Q428 356 463 424 L515 387 Q456 287 376 287 Z" /><glyph glyph-name="" unicode="©" d="M416 -12 Q266 -12 163 89 Q55 195 55 361 Q55 526 163 631 Q265 730 416 730 Q567 730 669 631 Q777 526 777 361 Q777 195 669 89 Q566 -12 416 -12 ZM416 34 Q545 34 634 124 Q725 218 725 361 Q725 504 634 596 Q545 684 416 684 Q286 684 198 596 Q107 504 107 361 Q107 218 198 124 Q287 34 416 34 ZM424 140 Q337 140 281 199 Q222 260 222 361 Q222 455 285 515 Q344 572 428 572 Q506 572 567 509 L529 465 Q480 511 431 511 Q370 511 332 469 Q295 427 295 361 Q295 288 331 244 Q367 201 428 201 Q483 201 542 251 L575 203 Q505 140 424 140 Z" /><glyph glyph-name="" unicode="±" d="M863 461 L534 461 L534 186 L466 186 L466 461 L137 461 L137 530 L466 530 L466 804 L534 804 L534 530 L863 530 L863 461 ZM867 87 L867 18 L137 18 L137 87 L867 87 Z" /><glyph glyph-name="" unicode="å" d="M217 -13 Q147 -13 103 27 Q58 69 58 141 Q58 229 138 277 Q217 324 392 344 Q392 481 280 481 Q203 481 117 423 L81 486 Q192 557 295 557 Q483 557 483 334 L483 0 L408 0 L400 65 L397 65 Q303 -13 217 -13 ZM243 60 Q311 60 392 132 L392 284 Q147 255 147 147 Q147 60 243 60 ZM293 619 Q237 619 204 650 Q171 680 171 729 Q171 778 204 808 Q237 839 293 839 Q349 839 382 808 Q415 778 415 729 Q415 680 382 650 Q349 619 293 619 ZM293 660 Q321 660 339 679 Q357 698 357 729 Q357 760 339 779 Q321 798 293 798 Q266 798 248 779 Q229 760 229 729 Q229 698 248 679 Q266 660 293 660 Z" /><glyph glyph-name="" unicode="&#x2014;" d="M46 313 L848 313 L848 249 L46 249 L46 313 Z" /><glyph glyph-name="" unicode="&#x2026;&#x22ef;" d="M101 380 Q101 408 120 427 Q139 446 167 446 Q195 446 214 427 Q233 408 233 380 Q233 352 214 333 Q195 314 167 314 Q139 314 120 333 Q101 352 101 380 ZM434 380 Q434 408 453 427 Q472 446 500 446 Q528 446 547 427 Q566 408 566 380 Q566 352 547 333 Q528 314 500 314 Q472 314 453 333 Q434 352 434 380 ZM767 380 Q767 408 786 427 Q805 446 833 446 Q861 446 880 427 Q899 408 899 380 Q899 352 880 333 Q861 314 833 314 Q805 314 786 333 Q767 352 767 380 Z" /><glyph glyph-name="" unicode="&#x2192;" d="M40 414 L811 414 Q714 488 649 578 L709 613 Q812 478 965 380 Q812 282 709 147 L649 182 Q714 272 811 346 L40 346 L40 414 Z" /><glyph glyph-name="" unicode="&#x2665;" d="M505 636 Q547 796 712 796 Q798 796 859 727 Q921 656 921 555 Q921 415 727 229 Q578 87 502 -37 Q500 -41 498 -37 Q422 87 273 229 Q183 316 148 364 Q79 459 79 555 Q79 656 141 727 Q202 796 288 796 Q452 796 495 636 Q497 629 500 629 Q503 629 505 636 Z" /><glyph glyph-name="" unicode="&#x300c;" d="M650 846 L966 846 L966 777 L724 777 L724 199 L650 199 L650 846 Z" /><glyph glyph-name="" unicode="&#x300d;" d="M350 -86 L34 -86 L34 -17 L276 -17 L276 561 L350 561 L350 -86 Z" /><glyph glyph-name="" unicode="&#x2f00;&#x4e00;" d="M956 430 L956 349 L48 349 L48 430 L956 430 Z" /><glyph glyph-name="" unicode="&#x4e09;" d="M876 740 L876 666 L126 666 L126 740 L876 740 ZM798 416 L798 341 L190 341 L190 416 L798 416 ZM930 71 L930 -4 L69 -4 L69 71 L930 71 Z" /><glyph glyph-name="" unicode="&#x4e0a;" d="M946 45 L946 -29 L55 -29 L55 45 L428 45 L428 821 L506 821 L506 515 L878 515 L878 441 L506 441 L506 45 L946 45 Z" /><glyph glyph-name="" unicode="&#x4e0b;" d="M520 689 L520 511 L533 526 Q756 419 888 319 L836 252 Q732 337 520 451 L520 -75 L441 -75 L441 689 L59 689 L59 763 L942 763 L942 689 L520 689 Z" /><glyph glyph-name="" unicode="&#x4e0d;&#xf967;" d="M610 692 Q586 651 539 582 L539 -74 L460 -74 L460 482 Q296 295 98 191 Q84 215 48 256 Q351 408 515 692 L73 692 L73 766 L927 766 L927 692 L610 692 ZM614 525 Q847 374 955 262 L896 205 Q776 334 559 477 L614 525 Z" /><glyph glyph-name="" unicode="&#x4e14;" d="M287 39 L722 39 L722 215 L287 215 L287 39 ZM287 706 L287 534 L722 534 L722 706 L287 706 ZM722 464 L287 464 L287 287 L722 287 L722 464 ZM944 39 L944 -34 L57 -34 L57 39 L214 39 L214 778 L798 778 L798 39 L944 39 Z" /><glyph glyph-name="" unicode="&#x4e26;" d="M428 42 L567 42 L567 565 L428 565 L428 42 ZM944 42 L944 -33 L57 -33 L57 42 L355 42 L355 565 L83 565 L83 637 L312 637 Q285 719 216 809 L281 835 Q356 741 381 665 L318 637 L657 637 L616 652 Q676 737 718 836 L797 812 Q740 708 688 637 L918 637 L918 565 L640 565 L640 42 L944 42 ZM197 469 Q275 311 297 154 L226 136 Q211 283 131 451 L197 469 ZM688 154 Q755 299 798 478 L876 459 Q816 268 755 134 L688 154 Z" /><glyph glyph-name="" unicode="&#x4e2d;" d="M823 321 L823 586 L536 586 L536 321 L823 321 ZM459 321 L459 586 L173 586 L173 321 L459 321 ZM899 659 L899 191 L823 191 L823 248 L536 248 L536 -76 L459 -76 L459 248 L173 248 L173 186 L100 186 L100 659 L459 659 L459 837 L536 837 L536 659 L899 659 Z" /><glyph glyph-name="" unicode="&#x4e3a;" d="M269 629 Q238 696 165 780 L229 808 Q299 731 337 662 L269 629 ZM898 597 L897 558 Q876 30 829 -26 Q799 -61 746 -65 Q691 -70 588 -63 Q584 -23 562 14 Q628 7 717 7 Q746 7 760 22 Q800 62 819 523 L476 523 Q429 145 116 -63 Q96 -33 58 -9 Q354 184 400 523 L86 523 L86 597 L408 597 Q412 653 412 717 L412 834 L486 834 L486 716 Q486 660 483 597 L898 597 ZM634 175 Q593 261 499 371 L560 401 Q657 295 699 211 L634 175 Z" /><glyph glyph-name="" unicode="&#x4e3b;" d="M944 29 L944 -44 L60 -44 L60 29 L460 29 L460 274 L152 274 L152 346 L460 346 L460 565 L106 565 L106 638 L545 638 Q481 713 375 791 L435 833 Q557 745 618 672 L571 638 L894 638 L894 565 L539 565 L539 346 L853 346 L853 274 L539 274 L539 29 L944 29 Z" /><glyph glyph-name="" unicode="&#x4e4b;" d="M521 640 Q491 705 417 808 L481 841 Q560 741 589 679 L521 640 ZM866 606 Q663 304 317 90 Q333 78 343 72 Q417 25 599 25 Q786 25 959 43 Q939 0 937 -37 Q774 -48 596 -48 Q413 -48 328 6 Q237 64 234 64 Q196 64 108 -60 L53 8 Q169 134 235 134 Q240 134 248 132 Q545 304 739 567 L104 567 L104 639 L794 639 L810 644 L866 606 Z" /><glyph glyph-name="" unicode="&#x4e4e;" d="M945 292 L548 292 L548 24 Q548 -48 494 -64 Q454 -78 288 -78 Q276 -36 255 -2 Q311 -4 440 -4 Q470 -3 470 25 L470 292 L58 292 L58 367 L470 367 L470 698 Q313 684 140 679 Q137 706 122 746 Q597 764 817 822 L856 755 Q728 723 548 706 L548 367 L945 367 L945 292 ZM233 647 Q306 523 330 431 L262 404 Q240 494 168 625 L233 647 ZM672 431 Q739 543 780 665 L859 638 Q773 468 732 406 L672 431 Z" /><glyph glyph-name="" unicode="&#x4e4f;" d="M890 756 Q624 691 135 677 Q132 705 117 744 Q612 762 840 818 L890 756 ZM485 506 Q448 574 394 652 L458 683 Q520 597 552 543 L485 506 ZM868 458 Q671 222 339 69 Q415 18 602 18 Q789 18 964 36 Q943 -2 941 -44 Q743 -55 598 -55 Q406 -55 320 5 Q221 71 224 71 Q193 71 109 -67 L51 6 Q162 142 226 142 Q248 142 280 115 Q545 227 733 420 L123 420 L123 493 L798 493 L814 497 L868 458 Z" /><glyph glyph-name="" unicode="&#x4e5f;" d="M757 9 Q825 9 848 43 Q869 75 879 185 Q910 165 948 155 Q936 29 902 -13 Q863 -59 758 -59 L409 -59 Q297 -59 258 -28 Q217 5 217 99 L217 413 L54 362 L34 428 L217 485 L217 768 L289 768 L289 507 L495 571 L495 835 L568 835 L568 593 L800 665 L821 681 L877 664 L874 651 Q862 368 835 220 L773 236 Q790 345 800 594 L568 522 L568 136 L495 136 L495 499 L289 434 L289 97 Q289 43 311 26 Q334 9 406 9 L757 9 Z" /><glyph glyph-name="" unicode="&#x4e66;" d="M902 615 Q839 676 716 757 L760 805 Q881 730 948 671 L902 615 ZM494 395 L725 395 L725 590 L494 590 L494 395 ZM942 395 Q941 371 939 360 Q919 92 880 52 Q853 25 802 22 Q755 19 650 24 Q648 61 626 95 Q689 89 776 89 Q806 89 818 99 Q846 124 863 324 L494 324 L494 -76 L420 -76 L420 324 L64 324 L64 395 L420 395 L420 590 L130 590 L130 662 L420 662 L420 833 L494 833 L494 662 L798 662 L798 395 L942 395 Z" /><glyph glyph-name="" unicode="&#x4e86;" d="M890 721 Q748 564 542 453 L542 21 Q542 -48 490 -63 Q449 -76 285 -76 Q278 -41 255 -2 Q367 -6 438 -3 Q465 -2 465 21 L465 490 Q612 562 743 686 L100 686 L100 759 L814 759 L832 764 L890 721 Z" /><glyph glyph-name="" unicode="&#x4e8b;" d="M774 207 L534 207 L534 132 L774 132 L774 207 ZM534 266 L774 266 L774 336 L534 336 L534 266 ZM460 513 L460 585 L245 585 L245 513 L460 513 ZM534 585 L534 513 L758 513 L758 585 L534 585 ZM951 207 L848 207 L848 30 L774 30 L774 75 L534 75 L534 6 Q534 -52 490 -68 Q456 -80 324 -80 Q318 -51 298 -17 Q328 -18 435 -18 Q460 -17 460 6 L460 75 L137 75 L137 132 L460 132 L460 207 L51 207 L51 266 L460 266 L460 336 L146 336 L146 391 L460 391 L460 461 L174 461 L174 637 L460 637 L460 695 L70 695 L70 756 L460 756 L460 836 L534 836 L534 756 L932 756 L932 695 L534 695 L534 637 L832 637 L832 461 L534 461 L534 391 L848 391 L848 266 L951 266 L951 207 Z" /><glyph glyph-name="" unicode="&#x2f06;&#x4e8c;" d="M857 693 L857 614 L144 614 L144 693 L857 693 ZM941 104 L941 23 L60 23 L60 104 L941 104 Z" /><glyph glyph-name="" unicode="&#x4e92;" d="M661 263 Q669 318 687 477 L341 477 Q313 334 297 263 L661 263 ZM948 32 L948 -41 L56 -41 L56 32 L628 32 L652 193 L198 193 Q254 404 304 707 L89 707 L89 779 L918 779 L918 707 L383 707 Q373 646 354 547 L702 547 L716 551 L771 544 Q754 366 705 32 L948 32 Z" /><glyph glyph-name="" unicode="&#x4e9b;" d="M669 333 Q599 333 575 356 Q551 379 551 445 L551 836 L624 836 L624 664 L885 664 L885 596 L624 596 L624 444 Q624 419 634 412 Q644 404 677 404 L836 404 Q863 404 872 425 Q880 446 884 520 Q913 499 952 492 Q945 399 923 366 Q900 333 841 333 L669 333 ZM171 238 L841 238 L841 167 L171 167 L171 238 ZM508 363 Q261 328 54 304 L45 376 L111 383 L111 727 L180 727 L180 391 L268 402 L268 836 L341 836 L341 665 L500 665 L500 597 L341 597 L341 411 L506 430 L508 363 ZM60 21 L941 21 L941 -52 L60 -52 L60 21 Z" /><glyph glyph-name="" unicode="&#x4ea4;" d="M928 626 L70 626 L70 699 L485 699 Q467 744 419 822 L488 846 Q539 774 562 717 L517 699 L928 699 L928 626 ZM675 597 Q851 477 932 381 L871 333 Q788 438 618 554 L675 597 ZM391 567 Q290 439 131 336 Q103 369 74 392 Q229 480 320 595 L391 567 ZM726 406 Q665 255 559 153 Q716 34 954 -3 Q927 -30 908 -70 Q659 -22 503 105 Q354 -13 95 -79 Q79 -43 50 -12 Q300 40 449 154 Q349 251 287 401 L353 421 Q404 293 503 200 Q602 294 650 427 L726 406 Z" /><glyph glyph-name="" unicode="&#x4eab;" d="M931 685 L67 685 L67 750 L468 750 Q451 795 433 829 L507 844 Q532 801 551 750 L931 750 L931 685 ZM266 476 L736 476 L736 566 L266 566 L266 476 ZM193 421 L193 621 L813 621 L813 421 L193 421 ZM943 115 L537 115 L537 -1 Q537 -55 490 -70 Q456 -79 309 -79 Q305 -59 284 -17 Q396 -20 436 -18 Q460 -17 460 1 L460 115 L58 115 L58 180 L460 180 L460 240 Q572 264 663 300 L151 300 L151 361 L781 361 L797 365 L847 323 Q722 251 537 206 L537 180 L943 180 L943 115 Z" /><glyph glyph-name="" unicode="&#x2f08;&#x4eba;" d="M540 833 Q537 740 533 688 Q600 154 961 -6 Q925 -36 907 -69 Q608 71 502 481 Q412 90 106 -73 Q87 -43 46 -15 Q312 119 407 431 Q453 584 458 833 L540 833 Z" /><glyph glyph-name="" unicode="&#x4ec0;&#xf9fd;" d="M362 811 Q320 704 264 607 L264 -75 L191 -75 L191 491 Q136 414 82 357 Q62 400 40 430 Q201 588 292 833 L362 811 ZM951 420 L682 420 L682 -77 L607 -77 L607 420 L328 420 L328 493 L607 493 L607 826 L682 826 L682 493 L951 493 L951 420 Z" /><glyph glyph-name="" unicode="&#x4eca;" d="M798 356 L855 328 Q727 153 534 -79 L458 -44 Q567 78 721 277 L163 277 L163 351 L785 351 L798 356 ZM678 522 L678 452 L333 452 L333 522 L678 522 ZM565 809 L546 782 Q708 592 961 481 Q936 461 903 414 Q676 530 503 727 Q341 532 95 408 Q70 447 38 473 Q339 609 495 843 L565 809 Z" /><glyph glyph-name="" unicode="&#x4ed6;" d="M338 811 Q296 700 234 593 L234 -75 L163 -75 L163 484 Q120 422 64 364 Q47 406 22 436 Q180 590 269 833 L338 811 ZM814 0 Q858 0 873 28 Q887 54 893 144 Q925 123 961 116 Q951 8 925 -28 Q895 -67 816 -67 L553 -67 Q464 -67 432 -39 Q400 -11 400 71 L400 399 L301 361 L273 426 L400 476 L400 736 L470 736 L470 503 L617 561 L617 835 L685 835 L685 587 L851 651 L865 662 L920 645 L917 631 Q911 348 888 178 L827 196 Q841 330 845 573 L685 511 L685 145 L617 145 L617 484 L470 426 L470 71 Q470 27 486 14 Q502 0 554 0 L814 0 Z" /><glyph glyph-name="" unicode="&#x4ee3;" d="M873 615 Q820 689 712 779 L766 815 Q874 730 931 655 L873 615 ZM384 803 Q345 709 277 601 L277 -75 L202 -75 L202 494 Q139 412 68 347 Q51 385 25 419 Q212 578 314 825 L384 803 ZM648 465 Q704 25 854 11 Q894 8 909 183 Q931 163 971 144 Q942 -81 857 -76 Q638 -60 575 455 L335 425 L325 495 L567 525 Q553 685 548 821 L622 821 Q627 660 641 535 L940 573 L950 503 L648 465 Z" /><glyph glyph-name="" unicode="&#x4ee4;" d="M850 372 Q728 240 558 74 Q628 21 661 -12 L606 -74 Q509 30 299 166 L350 219 Q432 168 496 121 Q609 227 708 330 L177 330 L177 402 L782 402 L794 406 L850 372 ZM679 552 L679 483 L305 483 L305 552 L679 552 ZM554 807 Q551 804 546 796 L538 785 Q705 609 954 513 Q925 486 898 444 Q671 546 492 732 Q325 552 99 441 Q81 470 45 504 Q330 630 487 843 L554 807 Z" /><glyph glyph-name="" unicode="&#x4ee5;" d="M520 436 Q473 556 366 680 L432 713 Q541 592 590 474 L520 436 ZM465 209 Q322 144 66 32 L39 109 Q101 133 177 165 L160 783 L236 786 L251 196 L448 280 L465 209 ZM905 -73 Q844 18 681 191 Q565 16 338 -79 Q316 -46 279 -15 Q526 76 638 270 Q737 443 772 785 L853 777 Q815 439 721 259 Q907 71 967 -16 L905 -73 Z" /><glyph glyph-name="" unicode="&#x4ef6;" d="M340 811 Q294 692 241 595 L241 -75 L170 -75 L170 480 Q133 425 78 363 Q64 400 36 436 Q185 592 270 833 L340 811 ZM948 268 L677 268 L677 -77 L603 -77 L603 268 L318 268 L318 341 L603 341 L603 560 L446 560 Q413 468 374 408 Q349 427 310 446 Q393 561 433 787 L503 772 Q489 699 470 633 L603 633 L603 824 L677 824 L677 633 L905 633 L905 560 L677 560 L677 341 L948 341 L948 268 Z" /><glyph glyph-name="" unicode="&#x4efb;" d="M369 808 Q322 695 262 597 L262 -75 L189 -75 L189 487 Q127 404 70 351 Q52 391 24 425 Q199 581 296 830 L369 808 ZM680 336 L680 33 L937 33 L937 -39 L351 -39 L351 33 L606 33 L606 336 L320 336 L320 408 L606 408 L606 671 L386 671 L386 742 L918 742 L918 671 L680 671 L680 408 L959 408 L959 336 L680 336 Z" /><glyph glyph-name="" unicode="&#x4efd;" d="M567 770 Q502 534 357 403 Q340 437 308 467 Q440 580 495 788 L567 770 ZM338 812 Q294 700 235 598 L235 -75 L162 -75 L162 485 Q114 416 63 363 Q44 406 21 436 Q177 589 267 833 L338 812 ZM845 429 L844 395 Q825 11 788 -34 Q765 -62 725 -65 Q684 -70 613 -65 Q609 -26 594 3 Q637 -1 692 -1 Q715 -1 725 11 Q754 44 770 360 L597 360 Q560 48 357 -74 Q338 -46 306 -18 Q493 80 522 360 L407 360 L407 429 L845 429 ZM773 802 Q821 576 954 476 Q924 440 906 401 Q779 515 717 731 L601 731 L601 802 L773 802 Z" /><glyph glyph-name="" unicode="&#x4f3a;" d="M334 811 Q295 707 234 598 L234 -74 L162 -74 L162 485 Q118 422 63 363 Q48 402 22 436 Q178 591 266 833 L334 811 ZM776 549 L333 549 L333 615 L776 615 L776 549 ZM442 386 L442 192 L647 192 L647 386 L442 386 ZM442 127 L442 58 L373 58 L373 451 L716 451 L716 127 L442 127 ZM920 22 Q920 -46 875 -62 Q839 -76 692 -76 Q686 -35 667 -1 Q778 -4 821 -2 Q846 -1 846 23 L846 715 L345 715 L345 783 L920 783 L920 22 Z" /><glyph glyph-name="" unicode="&#x4f3c;" d="M653 443 Q619 546 526 681 L588 709 Q684 575 719 475 L653 443 ZM336 812 Q294 702 233 596 L233 -74 L163 -74 L163 487 Q116 420 62 364 Q38 416 20 436 Q175 588 267 833 L336 812 ZM647 214 Q379 107 309 81 L278 153 Q298 159 382 187 L377 779 L448 780 L454 213 Q483 223 633 278 L647 214 ZM917 -77 Q871 1 759 141 Q655 -3 436 -83 Q420 -51 388 -17 Q646 63 742 256 Q823 420 837 796 L913 793 Q896 387 799 205 Q925 55 975 -23 L917 -77 Z" /><glyph glyph-name="" unicode="&#x4f46;" d="M800 695 L469 695 L469 500 L800 500 L800 695 ZM800 431 L469 431 L469 231 L800 231 L800 431 ZM878 161 L393 161 L393 765 L878 765 L878 161 ZM352 810 Q306 695 248 596 L248 -75 L175 -75 L175 483 Q132 422 74 361 Q53 409 31 437 Q191 591 280 833 L352 810 ZM962 33 L962 -37 L309 -37 L309 33 L962 33 Z" /><glyph glyph-name="" unicode="&#x4f48;" d="M336 812 Q294 702 233 596 L233 -74 L163 -74 L163 487 Q116 420 62 364 Q38 416 20 436 Q175 588 267 833 L336 812 ZM543 616 Q505 526 453 447 L616 447 L616 575 L688 575 L688 447 L915 447 L915 139 Q915 86 882 72 Q857 60 756 60 Q753 86 735 127 Q803 124 828 126 Q843 127 843 140 L843 379 L688 379 L688 -75 L616 -75 L616 379 L472 379 L472 48 L402 48 L402 375 Q353 315 302 271 Q274 310 251 329 Q381 434 465 616 L295 616 L295 684 L494 684 Q524 763 544 840 L615 826 Q596 754 570 684 L958 684 L958 616 L543 616 Z" /><glyph glyph-name="" unicode="&#x4f4d;" d="M616 667 Q603 738 569 826 L639 844 Q680 730 689 689 L616 667 ZM909 584 L370 584 L370 656 L909 656 L909 584 ZM503 82 Q489 267 435 508 L502 523 Q555 301 576 103 L503 82 ZM358 812 Q321 711 257 600 L257 -75 L183 -75 L183 484 Q142 424 84 363 Q68 405 42 436 Q201 591 288 833 L358 812 ZM950 36 L950 -36 L328 -36 L328 36 L677 36 Q738 262 772 531 L849 517 Q803 247 746 36 L950 36 Z" /><glyph glyph-name="" unicode="&#x4f4e;" d="M337 812 Q295 702 234 596 L234 -75 L163 -75 L163 486 Q114 417 63 363 Q42 410 21 436 Q177 589 267 833 L337 812 ZM469 10 L736 10 L736 -52 L469 -52 L469 10 ZM673 455 Q661 598 657 721 Q549 699 448 683 L448 455 L673 455 ZM749 386 Q790 16 870 13 Q897 13 908 159 Q929 138 961 123 Q937 -70 870 -70 Q729 -66 680 386 L448 386 L448 105 L631 153 Q629 119 633 91 Q388 22 362 5 Q357 35 334 66 Q378 86 378 129 L378 734 L379 734 L378 735 Q699 785 844 842 L903 786 Q830 761 724 735 Q728 592 741 455 L939 455 L939 386 L749 386 Z" /><glyph glyph-name="" unicode="&#x4f53;" d="M323 812 Q289 710 234 601 L234 -75 L163 -75 L163 478 Q123 416 78 363 Q57 407 35 436 Q173 588 254 833 L323 812 ZM700 564 Q800 281 970 144 Q937 120 914 85 Q754 231 652 523 L652 176 L813 176 L813 108 L652 108 L652 -71 L580 -71 L580 108 L417 108 L417 176 L580 176 L580 516 Q473 228 315 83 Q288 118 261 139 Q430 274 535 564 L300 564 L300 636 L580 636 L580 833 L652 833 L652 636 L950 636 L950 564 L700 564 Z" /><glyph glyph-name="" unicode="&#x4f54;" d="M348 813 Q305 705 246 607 L246 -75 L176 -75 L176 500 Q122 425 65 368 Q46 412 23 440 Q187 594 279 834 L348 813 ZM818 296 L445 296 L445 57 L818 57 L818 296 ZM657 560 L657 365 L893 365 L893 -65 L818 -65 L818 -12 L445 -12 L445 -71 L373 -71 L373 365 L583 365 L583 835 L657 835 L657 631 L950 631 L950 560 L657 560 Z" /><glyph glyph-name="" unicode="&#x4f55;" d="M338 814 Q298 706 249 613 L249 -75 L176 -75 L176 491 Q137 429 83 370 Q67 408 42 442 Q187 597 269 836 L338 814 ZM440 462 L440 251 L612 251 L612 462 L440 462 ZM440 185 L440 116 L369 116 L369 528 L681 528 L681 185 L440 185 ZM959 668 L886 668 L886 26 Q886 -44 837 -61 Q794 -75 637 -75 Q632 -41 610 1 Q718 -3 785 0 Q813 1 813 26 L813 668 L340 668 L340 740 L959 740 L959 668 Z" /><glyph glyph-name="" unicode="&#x4f5c;" d="M358 810 Q321 710 256 596 L256 -75 L182 -75 L182 481 Q138 419 83 362 Q64 409 40 436 Q197 588 287 833 L358 810 ZM650 599 L650 456 L935 456 L935 387 L650 387 L650 236 L949 236 L949 166 L650 166 L650 -76 L575 -76 L575 599 L506 599 Q440 476 364 391 Q340 417 306 441 Q446 586 526 824 L597 805 Q576 745 542 670 L958 670 L958 599 L650 599 Z" /><glyph glyph-name="" unicode="&#x4f60;" d="M337 812 Q294 703 234 598 L234 -74 L163 -74 L163 487 Q123 429 62 363 Q41 411 20 436 Q175 588 267 833 L337 812 ZM522 397 Q470 185 376 57 Q358 72 312 98 Q402 207 449 411 L522 397 ZM684 576 L684 14 Q684 -46 649 -62 Q618 -77 517 -77 Q511 -43 491 -2 Q515 -3 594 -3 Q611 -3 611 14 L611 576 L459 576 Q416 474 362 404 Q334 430 303 451 Q412 588 467 832 L540 816 Q517 729 487 645 L892 645 L904 648 L955 636 Q934 517 911 424 L849 436 Q867 542 872 576 L684 576 ZM822 419 Q918 241 947 85 L876 61 Q849 215 757 397 L822 419 Z" /><glyph glyph-name="" unicode="&#x4f7f;" d="M349 817 Q309 718 246 609 L246 -81 L175 -81 L175 502 Q125 432 65 372 Q48 414 23 444 Q186 598 279 839 L349 817 ZM597 349 Q598 364 598 394 L598 497 L420 497 L420 349 L597 349 ZM671 497 L671 394 Q671 364 670 349 L855 349 L855 497 L671 497 ZM666 286 Q653 170 600 94 Q744 15 968 -12 Q943 -37 924 -79 Q703 -46 556 42 Q476 -37 330 -80 Q311 -42 285 -19 Q422 16 496 82 Q405 151 351 245 L413 265 Q457 190 539 132 Q581 194 593 286 L351 286 L351 560 L598 560 L598 658 L322 658 L322 726 L598 726 L598 833 L671 833 L671 726 L959 726 L959 658 L671 658 L671 560 L926 560 L926 286 L666 286 Z" /><glyph glyph-name="" unicode="&#x4f86;&#xf92d;" d="M791 590 Q780 533 757 472 Q880 376 937 318 L884 267 Q837 319 728 410 Q689 338 640 292 Q604 321 578 332 Q685 424 720 602 L791 590 ZM322 589 Q309 536 283 471 Q359 404 396 361 L345 310 Q321 340 252 407 Q201 313 126 250 Q98 278 67 298 Q204 400 249 602 L322 589 ZM535 388 Q684 137 961 33 Q930 7 906 -33 Q690 63 535 270 L535 -76 L459 -76 L459 267 Q304 68 93 -30 Q72 5 41 32 Q307 141 459 381 L459 625 L76 625 L76 698 L459 698 L459 836 L535 836 L535 698 L932 698 L932 625 L535 625 L535 388 Z" /><glyph glyph-name="" unicode="&#x4f8b;" d="M282 816 Q255 723 214 623 L214 -75 L144 -75 L144 481 Q108 419 73 375 Q62 413 36 451 Q149 589 215 835 L282 816 ZM409 492 Q393 441 368 383 Q450 325 505 271 Q539 364 556 492 L409 492 ZM586 564 L628 552 Q586 79 317 -74 Q297 -39 272 -18 Q400 48 475 201 Q430 251 337 324 Q319 290 294 261 Q267 305 252 320 Q352 447 391 711 L295 711 L295 781 L624 781 L624 711 L459 711 Q444 627 428 561 L574 561 L586 564 ZM746 166 L681 166 L681 721 L746 721 L746 166 ZM916 832 L916 23 Q916 -44 874 -58 Q838 -73 711 -73 Q703 -34 684 1 Q716 0 821 0 Q845 0 845 23 L845 832 L916 832 Z" /><glyph glyph-name="" unicode="&#x4f9b;" d="M341 812 Q299 704 239 598 L239 -75 L166 -75 L166 486 Q121 420 67 365 Q47 408 25 438 Q180 588 271 834 L341 812 ZM555 157 Q478 23 364 -74 Q333 -43 305 -28 Q418 59 484 179 L555 157 ZM768 176 Q885 66 946 -37 L883 -78 Q828 25 710 143 L768 176 ZM536 308 L731 308 L731 552 L536 552 L536 308 ZM957 308 L957 235 L311 235 L311 308 L464 308 L464 552 L335 552 L335 624 L464 624 L464 825 L536 825 L536 624 L731 624 L731 826 L803 826 L803 624 L945 624 L945 552 L803 552 L803 308 L957 308 Z" /><glyph glyph-name="" unicode="&#x4f9d;" d="M616 653 Q600 713 547 811 L612 832 Q666 743 686 679 L616 653 ZM339 815 Q297 702 234 586 L234 -78 L163 -78 L163 472 Q125 419 79 366 Q63 400 37 439 Q185 595 269 835 L339 815 ZM949 433 Q845 339 740 269 Q838 89 968 12 Q941 -9 913 -48 Q687 99 578 504 Q547 459 484 390 L484 33 L662 96 Q665 63 673 32 Q427 -59 401 -80 Q389 -48 363 -24 Q411 11 411 62 L411 319 Q352 266 292 224 Q265 263 240 285 Q429 400 546 581 L300 581 L300 651 L941 651 L941 581 L630 581 L627 576 Q658 446 712 324 Q813 396 895 484 L949 433 Z" /><glyph glyph-name="" unicode="&#x4fc2;" d="M807 794 Q662 711 355 625 Q349 656 331 683 Q628 768 754 852 L807 794 ZM324 810 Q293 716 239 607 L239 -75 L167 -75 L167 481 Q124 413 75 356 Q60 392 34 429 Q173 582 256 831 L324 810 ZM489 197 Q423 68 330 -23 Q302 1 274 16 Q370 105 420 217 L489 197 ZM653 265 L653 4 Q653 -47 619 -61 Q590 -72 490 -72 Q486 -43 468 -8 Q509 -9 562 -9 Q579 -8 579 5 L579 257 Q366 238 339 225 Q330 260 317 290 Q354 295 436 344 Q519 395 603 460 Q391 443 366 434 Q360 464 346 497 Q374 501 420 533 Q521 593 633 708 L693 676 Q586 577 484 511 L684 523 Q759 582 811 633 L865 591 Q686 432 488 313 L803 340 Q767 384 736 418 L791 451 Q893 344 949 257 L890 219 Q868 255 847 283 L653 265 ZM797 228 Q907 111 947 27 L885 -7 Q843 85 738 199 L797 228 Z" /><glyph glyph-name="" unicode="&#x4fdd;" d="M348 813 Q304 702 243 600 L243 -74 L172 -74 L172 492 Q125 427 68 368 Q43 417 26 440 Q188 595 278 834 L348 813 ZM527 217 Q447 73 358 -28 Q335 -7 300 15 Q388 105 461 238 L527 217 ZM451 540 L822 540 L822 723 L451 723 L451 540 ZM671 287 L671 -77 L597 -77 L597 287 L308 287 L308 355 L597 355 L597 474 L381 474 L381 790 L896 790 L896 474 L671 474 L671 355 L954 355 L954 287 L671 287 ZM784 239 Q899 111 957 15 L897 -22 Q839 81 727 208 L784 239 Z" /><glyph glyph-name="" unicode="&#x4fee;" d="M304 812 Q271 713 227 619 L227 -76 L155 -76 L155 484 Q110 409 60 350 Q46 391 21 425 Q157 580 235 831 L304 812 ZM550 664 Q593 593 673 534 Q746 591 788 667 L552 667 L550 664 ZM866 667 Q817 570 730 497 Q837 434 978 408 Q952 378 937 348 Q788 381 677 456 Q576 386 424 339 Q405 372 379 397 Q519 433 621 497 Q560 546 514 612 Q471 556 427 517 Q409 535 377 557 L377 89 L312 89 L312 718 L377 718 L377 566 Q501 671 565 837 L632 820 Q609 765 588 728 L946 728 L946 667 L866 667 ZM848 267 Q739 150 506 85 Q487 117 467 134 Q693 188 791 290 L848 267 ZM753 363 Q666 273 496 217 Q469 249 454 261 Q619 309 696 386 L753 363 ZM948 154 Q811 -9 452 -72 Q437 -39 413 -13 Q758 39 884 181 L948 154 Z" /><glyph glyph-name="" unicode="&#x500b;" d="M308 813 Q274 711 228 619 L228 -77 L157 -77 L157 491 Q106 410 60 359 Q44 403 21 434 Q157 583 240 832 L308 813 ZM720 343 L551 343 L551 188 L720 188 L720 343 ZM664 509 L664 399 L779 399 L779 133 L494 133 L494 399 L603 399 L603 509 L453 509 L453 566 L603 566 L603 679 L664 679 L664 566 L818 566 L818 509 L664 509 ZM852 50 L852 711 L412 711 L412 50 L852 50 ZM923 776 L923 -67 L852 -67 L852 -16 L412 -16 L412 -75 L343 -75 L343 776 L923 776 Z" /><glyph glyph-name="" unicode="&#x500d;" d="M926 659 L350 659 L350 725 L605 725 Q599 759 577 833 L644 845 Q672 775 679 725 L926 725 L926 659 ZM482 454 Q469 532 422 628 L483 646 Q528 565 547 475 L482 454 ZM335 813 Q295 701 234 592 L234 -77 L163 -77 L163 478 Q121 417 75 366 Q57 404 33 438 Q182 594 267 835 L335 813 ZM466 223 L466 34 L796 34 L796 223 L466 223 ZM396 290 L869 290 L869 -73 L796 -73 L796 -33 L466 -33 L466 -76 L396 -76 L396 290 ZM956 445 L956 377 L311 377 L311 445 L693 445 Q743 547 774 650 L845 632 Q799 515 764 445 L956 445 Z" /><glyph glyph-name="" unicode="&#x5011;" d="M304 812 Q269 708 226 617 L226 -76 L155 -76 L155 484 Q108 405 61 350 Q46 390 22 425 Q158 583 235 831 L304 812 ZM388 720 L388 629 L527 629 L527 720 L388 720 ZM527 476 L527 573 L388 573 L388 476 L527 476 ZM586 418 L388 418 L388 -74 L319 -74 L319 779 L586 779 L586 418 ZM854 476 L854 573 L707 573 L707 476 L854 476 ZM707 720 L707 629 L854 629 L854 720 L707 720 ZM924 21 Q924 -46 880 -62 Q843 -75 694 -75 Q687 -42 669 -4 Q785 -7 828 -5 Q854 -4 854 22 L854 418 L646 418 L646 779 L924 779 L924 21 Z" /><glyph glyph-name="" unicode="&#x5019;" d="M951 542 L404 542 L404 606 L763 606 L783 725 L460 725 L460 788 L797 788 L809 792 L860 786 Q852 721 834 606 L951 606 L951 542 ZM301 812 Q269 703 219 593 L219 -78 L148 -78 L148 456 Q112 394 76 349 Q60 395 36 424 Q161 577 233 831 L301 812 ZM299 619 L365 619 L365 116 L299 116 L299 619 ZM703 183 Q663 10 421 -79 Q401 -46 373 -24 Q591 46 628 183 L406 183 L406 248 L639 248 L639 378 L530 378 Q499 318 456 269 Q429 290 398 308 Q478 390 522 536 L589 520 Q577 480 560 441 L919 441 L919 378 L712 378 L712 248 L952 248 L952 183 L703 183 ZM757 165 Q889 52 966 -28 L911 -72 Q851 -3 706 128 L757 165 Z" /><glyph glyph-name="" unicode="&#x501f;" d="M353 812 Q308 696 249 595 L249 -75 L178 -75 L178 485 Q133 419 79 364 Q59 409 37 436 Q193 589 283 833 L353 812 ZM506 298 L506 196 L803 196 L803 298 L506 298 ZM803 30 L803 135 L506 135 L506 30 L803 30 ZM433 362 L878 362 L878 -74 L803 -74 L803 -32 L506 -32 L506 -76 L433 -76 L433 362 ZM570 509 L730 509 L730 640 L570 640 L570 509 ZM950 509 L950 441 L349 441 L349 509 L499 509 L499 640 L377 640 L377 706 L499 706 L499 836 L570 836 L570 706 L730 706 L730 836 L802 836 L802 706 L930 706 L930 640 L802 640 L802 509 L950 509 Z" /><glyph glyph-name="" unicode="&#x503c;" d="M333 814 Q292 696 231 586 L231 -76 L162 -76 L162 475 Q126 422 77 366 Q65 396 36 439 Q183 594 266 835 L333 814 ZM450 17 L797 17 L797 99 L450 99 L450 17 ZM450 518 L450 434 L797 434 L797 518 L450 518 ZM797 379 L450 379 L450 294 L797 294 L797 379 ZM450 154 L797 154 L797 240 L450 240 L450 154 ZM955 17 L955 -47 L288 -47 L288 17 L383 17 L383 576 L555 576 L574 669 L330 669 L330 734 L585 734 Q595 806 598 836 L677 831 L658 734 L925 734 L925 669 L645 669 Q625 584 622 576 L866 576 L866 17 L955 17 Z" /><glyph glyph-name="" unicode="&#x5047;" d="M908 484 L628 484 L628 548 L839 548 L839 728 L628 728 L628 792 L908 792 L908 484 ZM282 816 Q257 717 216 609 L216 -76 L145 -76 L145 456 Q109 392 78 351 Q60 397 39 426 Q151 571 213 831 L282 816 ZM384 729 L384 546 L522 546 L522 729 L384 729 ZM384 125 L384 -74 L315 -74 L315 792 L588 792 L588 482 L384 482 L384 375 L566 375 L566 312 L384 312 L384 188 L577 188 L577 125 L384 125 ZM677 344 Q707 237 759 160 Q814 238 842 344 L677 344 ZM922 395 Q887 218 799 104 Q870 19 964 -19 Q939 -39 919 -75 Q826 -33 756 54 Q672 -31 554 -78 Q537 -44 516 -23 Q634 18 717 108 Q656 201 619 333 L665 344 L600 344 L600 407 L867 407 L879 409 L922 395 Z" /><glyph glyph-name="" unicode="&#x504f;" d="M352 812 Q310 703 247 593 L247 -75 L176 -75 L176 484 Q133 422 77 364 Q60 406 35 436 Q193 590 282 833 L352 812 ZM444 588 L444 491 L834 491 L834 588 L444 588 ZM444 430 Q438 105 341 -57 Q307 -28 282 -18 Q374 139 374 473 L374 765 Q704 788 857 825 L909 769 Q751 732 444 711 L444 649 L906 649 L906 430 L444 430 ZM870 178 L870 300 L784 300 L784 178 L870 178 ZM730 178 L730 300 L647 300 L647 178 L730 178 ZM593 178 L593 300 L506 300 L506 178 L593 178 ZM936 4 Q936 -40 911 -54 Q890 -66 820 -66 Q817 -40 802 -6 Q830 -7 860 -7 Q870 -6 870 5 L870 117 L784 117 L784 -45 L730 -45 L730 117 L647 117 L647 -54 L593 -54 L593 117 L506 117 L506 -75 L444 -75 L444 361 L936 361 L936 4 Z" /><glyph glyph-name="" unicode="&#x505a;" d="M304 812 Q274 720 224 612 L224 -77 L155 -77 L155 485 Q114 416 61 353 Q40 401 22 428 Q159 586 236 831 L304 812 ZM707 579 L701 560 Q724 364 770 244 Q823 371 845 579 L707 579 ZM527 321 L367 321 L367 98 L527 98 L527 321 ZM911 579 Q880 316 805 166 Q870 44 968 -18 Q934 -52 922 -77 Q830 -13 768 101 Q697 -8 586 -78 Q568 -52 539 -27 Q663 43 734 169 Q683 289 659 449 Q637 400 611 359 L603 370 Q596 379 593 384 L593 33 L367 33 L367 -32 L301 -32 L301 386 L413 386 L413 575 L275 575 L275 643 L413 643 L413 825 L484 825 L484 643 L613 643 L613 575 L484 575 L484 386 L591 386 Q577 405 564 416 Q655 555 695 836 L762 825 Q745 722 724 644 L957 644 L957 579 L911 579 Z" /><glyph glyph-name="" unicode="&#x5099;" d="M304 817 Q267 704 227 612 L227 -75 L155 -75 L155 472 Q121 413 76 355 Q58 399 36 431 Q162 585 236 837 L304 817 ZM542 569 L709 569 L709 666 L542 666 L542 569 ZM825 359 L669 359 L669 275 L825 275 L825 359 ZM825 131 L825 218 L669 218 L669 131 L825 131 ZM601 131 L601 218 L442 218 Q442 181 437 131 L601 131 ZM442 275 L601 275 L601 359 L442 359 L442 275 ZM517 500 Q491 458 459 422 L896 422 L896 -1 Q896 -47 867 -62 Q844 -73 767 -73 Q763 -46 745 -13 Q797 -15 813 -13 Q825 -13 825 0 L825 74 L669 74 L669 -53 L601 -53 L601 74 L429 74 Q408 -25 363 -81 Q335 -51 304 -36 Q370 51 370 231 L370 337 Q326 303 284 277 Q267 307 240 336 Q363 401 437 500 L292 500 L292 569 L471 569 L471 666 L320 666 L320 734 L471 734 L471 832 L542 832 L542 734 L709 734 L709 832 L781 832 L781 734 L916 734 L916 666 L781 666 L781 569 L942 569 L942 500 L517 500 Z" /><glyph glyph-name="" unicode="&#x50be;" d="M856 582 L591 582 L591 484 L856 484 L856 582 ZM856 428 L591 428 L591 329 L856 329 L856 428 ZM856 273 L591 273 L591 173 L856 173 L856 273 ZM661 641 Q674 680 684 725 L479 725 L479 789 L957 789 L957 725 L762 725 Q745 677 731 641 L924 641 L924 115 L525 115 L525 641 L661 641 ZM286 812 Q259 723 217 624 L217 -79 L149 -79 L149 489 Q106 410 58 352 Q46 383 21 427 Q149 581 220 831 L286 812 ZM473 258 Q473 217 476 196 Q327 108 309 87 L309 89 Q295 128 278 153 Q303 170 303 222 L303 725 L368 725 L368 538 L490 538 L490 473 L368 473 L368 204 L473 258 ZM677 56 Q597 -25 466 -81 Q438 -49 416 -32 Q546 19 613 93 L677 56 ZM815 89 Q919 20 973 -39 L915 -79 Q867 -25 760 52 L815 89 Z" /><glyph glyph-name="" unicode="&#x50cf;" d="M335 811 Q292 693 233 588 L233 -74 L162 -74 L162 473 Q122 414 76 363 Q60 399 34 436 Q180 589 265 833 L335 811 ZM425 469 L589 469 L589 569 L425 569 L425 469 ZM485 707 Q439 648 418 626 L604 626 Q634 659 663 707 L485 707 ZM824 569 L657 569 L657 469 L824 469 L824 569 ZM904 344 Q843 306 793 282 Q850 113 962 45 Q932 21 914 -10 Q800 70 739 255 Q745 258 696 237 Q727 154 720 74 Q714 -3 678 -37 Q644 -71 589 -71 Q565 -72 526 -69 Q524 -31 508 -5 Q544 -9 576 -9 Q610 -9 627 10 Q667 48 651 157 Q520 35 327 -34 Q305 0 283 19 Q512 86 635 217 Q625 249 612 272 Q495 173 330 111 Q317 134 290 160 Q472 213 584 314 Q565 340 539 363 Q427 284 318 246 Q300 273 278 294 Q410 333 520 412 L358 412 L358 566 Q342 551 304 521 Q284 551 257 569 Q408 675 486 836 L556 823 Q551 813 540 794 L523 765 L703 765 L717 769 L760 737 Q726 680 680 626 L893 626 L893 412 L600 412 L584 398 Q639 353 675 286 Q771 334 853 391 L904 344 Z" /><glyph glyph-name="" unicode="&#x5118;" d="M304 812 Q269 708 226 617 L226 -76 L155 -76 L155 484 Q108 405 61 350 Q46 390 22 425 Q158 583 235 831 L304 812 ZM398 9 L505 9 L505 137 L398 137 L398 9 ZM560 137 L560 9 L667 9 L667 137 L560 137 ZM720 137 L720 9 L830 9 L830 137 L720 137 ZM897 9 L962 9 L962 -48 L266 -48 L266 9 L334 9 L334 191 L897 191 L897 9 ZM419 324 Q371 223 304 179 L254 220 Q324 259 365 347 L419 324 ZM534 332 Q566 267 572 221 L512 203 Q506 253 477 319 L534 332 ZM687 338 Q728 280 745 229 L688 206 Q670 259 633 320 L687 338 ZM906 187 Q869 250 795 320 L847 349 Q924 278 960 221 L906 187 ZM800 592 L643 592 L643 523 L800 523 L800 592 ZM643 648 L800 648 L800 712 L643 712 L643 648 ZM962 648 L962 592 L868 592 L868 470 L643 470 L643 407 L955 407 L955 351 L275 351 L275 407 L570 407 L570 470 L351 470 L351 523 L570 523 L570 592 L279 592 L279 648 L570 648 L570 712 L351 712 L351 765 L570 765 L570 831 L643 831 L643 765 L868 765 L868 648 L962 648 Z" /><glyph glyph-name="" unicode="&#x512a;" d="M300 812 Q270 713 229 620 L229 -77 L158 -77 L158 479 Q116 404 72 350 Q54 393 33 425 Q161 582 232 831 L300 812 ZM481 124 Q538 82 614 54 Q700 87 757 136 L495 136 L481 124 ZM864 162 Q810 83 697 26 Q811 -7 951 -19 Q927 -47 912 -78 Q746 -58 614 -9 Q488 -54 308 -79 Q293 -48 270 -23 Q415 -7 531 26 Q472 56 430 90 Q393 66 327 34 Q307 63 283 78 Q344 104 385 129 Q371 143 347 173 L405 195 Q413 183 435 161 Q490 201 519 234 Q481 243 481 296 L481 354 L543 354 L543 296 Q543 282 550 278 Q557 274 582 274 L706 274 Q724 274 729 281 Q735 289 737 318 Q753 308 788 301 Q784 259 768 244 Q752 229 713 229 L593 229 Q575 207 553 186 L805 186 L818 189 L864 162 ZM477 329 Q427 253 372 218 L328 253 Q387 286 430 354 L477 329 ZM878 214 Q845 266 765 332 L807 357 Q881 299 922 244 L878 214 ZM460 433 L793 433 L793 476 L460 476 L460 433 ZM460 640 L460 597 L793 597 L793 640 L460 640 ZM793 558 L460 558 L460 515 L793 515 L793 558 ZM956 433 L956 299 L889 299 L889 385 L614 385 Q671 353 703 321 L661 291 Q616 334 564 363 L597 385 L359 385 L359 299 L294 299 L294 433 L392 433 L392 683 L566 683 Q570 696 579 735 L320 735 L320 792 L940 792 L940 735 L657 735 Q643 699 636 683 L863 683 L863 433 L956 433 Z" /><glyph glyph-name="" unicode="&#x5132;" d="M411 677 Q390 732 342 791 L388 820 Q444 752 459 711 L411 677 ZM281 812 Q252 708 206 601 L206 -76 L142 -76 L142 469 Q102 398 66 350 Q52 391 27 425 Q145 576 217 830 L281 812 ZM547 596 L272 596 L272 656 L547 656 L547 596 ZM528 464 L303 464 L303 524 L528 524 L528 464 ZM303 390 L528 390 L528 330 L303 330 L303 390 ZM351 189 L351 52 L476 52 L476 189 L351 189 ZM291 249 L538 249 L538 -50 L476 -50 L476 -7 L351 -7 L351 -66 L291 -66 L291 249 ZM858 300 L701 300 L701 198 L858 198 L858 300 ZM858 31 L858 137 L701 137 L701 31 L858 31 ZM785 463 Q746 408 705 363 L925 363 L925 -68 L858 -68 L858 -32 L701 -32 L701 -76 L636 -76 L636 295 Q607 270 561 236 Q543 264 515 290 Q617 355 704 463 L550 463 L550 526 L669 526 L669 657 L569 657 L569 719 L669 719 L669 831 L733 831 L733 719 L824 719 L824 657 L733 657 L733 526 L752 526 Q832 646 885 802 L948 788 Q899 644 827 526 L959 526 L959 463 L785 463 Z" /><glyph glyph-name="" unicode="&#x5141;" d="M836 14 Q869 14 879 47 Q888 80 892 199 Q916 180 962 167 Q955 32 932 -12 Q908 -58 841 -58 L688 -58 Q619 -58 595 -34 Q571 -11 571 57 L571 430 L419 417 Q406 202 347 101 Q273 -23 82 -81 Q64 -42 37 -18 Q213 30 279 137 Q331 222 342 411 Q180 396 150 384 Q143 413 124 459 Q150 463 204 526 Q321 646 425 843 L506 816 Q384 619 251 477 L724 509 Q694 550 594 677 L654 714 Q837 489 895 404 L829 359 Q802 403 770 445 L646 435 L646 56 Q646 29 655 22 Q664 14 696 14 L836 14 Z" /><glyph glyph-name="" unicode="&#x5143;" d="M855 687 L151 687 L151 758 L855 758 L855 687 ZM834 12 Q864 12 873 44 Q881 75 885 191 Q908 172 954 158 Q948 28 926 -14 Q903 -59 839 -59 L696 -59 Q630 -59 606 -35 Q583 -12 583 52 L583 408 L396 408 Q380 222 327 122 Q258 -10 99 -74 Q81 -38 52 -16 Q198 40 259 156 Q304 243 317 408 L64 408 L64 480 L939 480 L939 408 L658 408 L658 53 Q658 27 667 20 Q676 12 705 12 L834 12 Z" /><glyph glyph-name="" unicode="&#x5145;" d="M837 13 Q867 13 876 41 Q885 68 888 169 Q915 150 957 139 Q950 23 929 -15 Q906 -55 843 -55 L688 -55 Q619 -55 596 -33 Q572 -11 572 51 L572 371 L421 362 Q406 180 349 91 Q278 -20 105 -72 Q91 -39 62 -10 Q220 33 282 127 Q333 202 345 358 Q183 348 153 338 Q134 395 125 414 Q151 420 210 489 Q250 531 321 633 L70 633 L70 704 L368 704 Q406 761 446 836 L530 808 Q496 751 464 704 L932 704 L932 633 L416 633 Q337 520 250 425 L718 446 Q656 508 588 563 L648 599 Q819 466 894 356 L829 315 Q806 350 777 382 L647 375 L647 51 Q647 27 656 20 Q665 13 696 13 L837 13 Z" /><glyph glyph-name="" unicode="&#x5146;" d="M911 718 Q803 550 736 474 L679 507 Q770 616 838 755 L911 718 ZM235 472 Q194 577 86 713 L148 745 Q257 612 302 510 L235 472 ZM346 824 L419 824 L419 443 Q419 253 366 145 Q294 -1 103 -83 Q84 -45 58 -21 Q305 83 338 314 L84 190 L50 263 Q146 299 345 388 Q346 406 346 443 L346 824 ZM844 7 Q869 7 878 32 Q886 53 891 128 Q921 105 959 96 Q951 4 930 -29 Q907 -64 848 -64 L682 -64 Q614 -64 591 -38 Q567 -11 567 65 L567 824 L640 824 L640 403 L662 427 Q857 326 952 238 L905 178 Q816 262 640 363 L640 65 Q640 29 649 18 Q659 7 691 7 L844 7 Z" /><glyph glyph-name="" unicode="&#x5148;" d="M836 10 Q863 10 871 37 Q879 63 882 160 Q910 139 951 129 Q945 16 923 -23 Q901 -61 842 -61 L700 -61 Q635 -61 612 -38 Q590 -17 590 45 L590 338 L401 338 Q384 175 327 85 Q257 -27 98 -82 Q82 -45 51 -19 Q197 26 260 122 Q309 197 324 338 L65 338 L65 410 L463 410 L463 610 L257 610 Q220 521 170 458 Q143 477 105 493 Q201 610 248 813 L323 798 Q311 753 286 681 L463 681 L463 836 L537 836 L537 681 L865 681 L865 610 L537 610 L537 410 L937 410 L937 338 L664 338 L664 45 Q664 23 672 16 Q680 10 709 10 L836 10 Z" /><glyph glyph-name="" unicode="&#x514d;" d="M544 519 Q536 419 521 345 L797 345 L797 519 L544 519 ZM443 345 Q458 409 467 519 L230 519 L230 345 L443 345 ZM329 697 Q287 642 231 586 L496 586 Q541 634 579 697 L329 697 ZM830 11 Q862 11 872 36 Q881 60 884 150 Q912 128 953 121 Q945 14 923 -21 Q900 -56 836 -56 L669 -56 Q597 -56 573 -35 Q548 -14 548 45 L548 278 L503 278 Q422 21 97 -67 Q84 -31 55 -4 Q347 68 423 278 L156 278 L156 517 Q134 498 97 472 Q78 502 45 526 Q233 651 333 838 L415 823 Q405 805 374 760 L621 760 L634 764 L684 730 Q647 664 582 586 L874 586 L874 278 L624 278 L624 46 Q624 24 634 17 Q643 11 677 11 L830 11 Z" /><glyph glyph-name="" unicode="&#x2f0a;&#x5165;" d="M548 776 Q548 236 963 -11 Q932 -33 903 -73 Q594 114 506 484 Q395 95 107 -74 Q70 -35 40 -15 Q350 146 445 581 L489 574 Q479 637 476 702 L230 702 L230 776 L548 776 Z" /><glyph glyph-name="" unicode="&#x5167;" d="M893 21 Q893 -46 850 -63 Q816 -75 674 -75 Q668 -35 649 0 Q752 -3 796 -1 Q818 0 818 21 L818 542 L563 542 Q623 302 807 223 Q775 191 755 158 Q572 249 504 485 Q440 252 247 153 Q224 188 197 212 Q396 309 447 542 L187 542 L187 -76 L113 -76 L113 615 L477 615 Q469 673 466 726 L286 726 L286 792 L529 792 Q534 698 547 615 L893 615 L893 21 Z" /><glyph glyph-name="" unicode="&#x5169;&#xf978;" d="M365 435 Q365 212 458 104 Q437 94 417 71 Q357 143 335 251 Q299 136 235 69 Q219 87 193 101 Q284 188 310 382 L247 382 L247 435 L365 435 ZM715 435 Q715 210 816 105 Q790 93 771 74 Q706 146 684 256 Q648 144 586 76 Q572 92 544 109 Q632 195 658 382 L593 382 L593 435 L715 435 ZM530 704 L530 579 L898 579 L898 11 Q898 -46 860 -62 Q826 -74 709 -74 Q702 -40 684 -8 Q771 -11 806 -9 Q825 -8 825 11 L825 510 L530 510 L530 -71 L460 -71 L460 510 L179 510 L179 -74 L108 -74 L108 579 L460 579 L460 704 L73 704 L73 777 L932 777 L932 704 L530 704 Z" /><glyph glyph-name="" unicode="&#x516c;" d="M399 782 Q284 521 106 357 Q69 397 40 417 Q219 566 318 807 L399 782 ZM680 307 Q829 110 904 -29 L830 -70 Q818 -46 776 26 Q200 -14 164 -27 Q158 3 135 52 Q165 59 229 138 Q361 286 481 532 L564 497 Q424 245 271 68 L733 94 Q674 188 609 274 L680 307 ZM701 811 Q781 548 966 426 Q939 404 908 357 Q734 486 645 736 L459 736 L459 811 L701 811 Z" /><glyph glyph-name="" unicode="&#x5171;" d="M408 158 Q295 21 124 -78 Q100 -52 65 -25 Q240 66 331 188 L408 158 ZM651 189 Q831 62 930 -31 L860 -77 Q763 20 587 151 L651 189 ZM358 318 L642 318 L642 554 L358 554 L358 318 ZM952 318 L952 246 L53 246 L53 318 L283 318 L283 554 L93 554 L93 626 L283 626 L283 828 L358 828 L358 626 L642 626 L642 828 L718 828 L718 626 L916 626 L916 554 L718 554 L718 318 L952 318 Z" /><glyph glyph-name="" unicode="&#x5173;" d="M289 827 Q361 740 392 660 L326 624 Q296 706 227 796 L289 827 ZM564 300 Q683 69 957 1 Q922 -32 905 -69 Q642 7 515 244 Q435 40 105 -75 Q79 -32 52 -11 Q386 103 445 300 L72 300 L72 373 L460 373 Q462 413 462 430 L462 551 L132 551 L132 624 L600 624 Q665 724 710 833 L789 805 Q728 696 680 624 L878 624 L878 551 L545 551 L545 429 Q545 411 543 373 L932 373 L932 300 L564 300 Z" /><glyph glyph-name="" unicode="&#x5176;" d="M314 206 L684 206 L684 315 L314 315 L314 206 ZM314 650 L314 551 L684 551 L684 650 L314 650 ZM314 379 L684 379 L684 487 L314 487 L314 379 ZM941 137 L58 137 L58 206 L241 206 L241 650 L86 650 L86 720 L241 720 L241 835 L314 835 L314 720 L684 720 L684 835 L758 835 L758 720 L918 720 L918 650 L758 650 L758 206 L941 206 L941 137 ZM428 73 Q298 -7 97 -75 Q79 -49 48 -18 Q249 42 362 119 L428 73 ZM623 114 Q813 47 944 -24 L878 -73 Q756 -1 573 67 L623 114 Z" /><glyph glyph-name="" unicode="&#x5177;" d="M279 211 L729 211 L729 301 L279 301 L279 211 ZM279 727 L279 642 L729 642 L729 727 L279 727 ZM279 444 L279 357 L729 357 L729 444 L279 444 ZM729 585 L279 585 L279 501 L729 501 L729 585 ZM948 143 L56 143 L56 211 L206 211 L206 789 L806 789 L806 211 L948 211 L948 143 ZM398 91 Q278 -4 97 -76 Q75 -46 44 -21 Q234 48 329 135 L398 91 ZM651 137 Q824 61 953 -18 L895 -73 Q779 7 605 87 L651 137 Z" /><glyph glyph-name="" unicode="&#x518d;" d="M765 233 L765 356 L533 356 L533 233 L765 233 ZM234 233 L459 233 L459 356 L234 356 L234 233 ZM234 542 L234 421 L459 421 L459 542 L234 542 ZM533 542 L533 421 L765 421 L765 542 L533 542 ZM959 164 L838 164 L838 14 Q838 -49 795 -65 Q759 -78 621 -78 Q614 -41 594 -7 Q691 -10 741 -7 Q765 -7 765 14 L765 164 L234 164 L234 -79 L161 -79 L161 164 L43 164 L43 233 L161 233 L161 610 L459 610 L459 706 L80 706 L80 776 L922 776 L922 706 L533 706 L533 610 L838 610 L838 233 L959 233 L959 164 Z" /><glyph glyph-name="" unicode="&#x5197;" d="M161 516 L86 516 L86 768 L920 768 L920 516 L842 516 L842 695 L161 695 L161 516 ZM847 8 Q870 8 878 40 Q885 72 887 182 Q917 158 959 149 Q954 23 933 -20 Q911 -65 853 -65 L738 -65 Q678 -65 657 -42 Q635 -18 635 49 L635 456 L360 456 L360 320 Q360 37 88 -78 Q72 -38 42 -13 Q186 47 243 143 Q284 214 284 322 L284 526 L712 526 L712 49 Q712 23 719 15 Q725 8 748 8 L847 8 Z" /><glyph glyph-name="" unicode="&#x51fa;" d="M892 340 L892 -75 L812 -75 L812 -18 L108 -18 L108 340 L188 340 L188 55 L458 55 L458 403 L152 403 L152 745 L229 745 L229 476 L458 476 L458 836 L538 836 L538 476 L773 476 L773 746 L853 746 L853 403 L538 403 L538 55 L812 55 L812 340 L892 340 Z" /><glyph glyph-name="" unicode="&#x51fd;" d="M464 605 Q560 648 659 725 L185 725 L185 794 L737 794 L754 798 L804 760 Q687 651 537 576 L537 439 L561 420 Q577 408 586 400 Q669 488 730 582 L792 550 Q710 444 629 365 Q744 267 799 203 L752 152 Q673 246 537 361 L537 171 Q537 115 501 101 Q474 90 363 90 Q358 122 341 156 Q419 153 446 155 Q464 156 464 172 L464 330 Q281 201 226 164 L189 225 Q277 276 464 397 L464 605 ZM346 384 Q288 467 211 534 L259 573 Q342 503 396 430 L346 384 ZM911 616 L911 -77 L838 -77 L838 -22 L92 -22 L92 613 L165 613 L165 46 L838 46 L838 616 L911 616 Z" /><glyph glyph-name="" unicode="&#x5206;" d="M373 784 Q289 529 101 378 Q73 410 39 433 Q221 560 296 803 L373 784 ZM809 461 Q808 435 807 425 Q788 13 745 -35 Q720 -65 667 -71 Q628 -75 510 -69 Q508 -29 486 6 Q562 -1 636 -1 Q666 -1 678 12 Q714 46 730 389 L472 389 Q449 216 385 114 Q302 -18 127 -82 Q110 -45 79 -17 Q241 37 316 152 Q373 238 393 389 L189 389 L189 461 L809 461 ZM682 819 Q764 562 966 447 Q936 417 913 380 Q723 502 629 749 L452 749 L452 819 L682 819 Z" /><glyph glyph-name="" unicode="&#x5217;" d="M232 492 Q215 444 189 395 Q298 321 376 252 Q431 351 460 492 L232 492 ZM65 783 L569 783 L569 711 L299 711 Q279 623 258 561 L482 561 L495 564 L540 550 Q472 75 127 -83 Q111 -47 82 -20 Q238 43 336 186 Q265 256 154 334 Q130 295 105 265 Q82 302 56 326 Q168 457 226 711 L65 711 L65 783 ZM714 165 L641 165 L641 720 L714 720 L714 165 ZM920 832 L920 20 Q920 -41 879 -59 Q848 -73 727 -73 Q722 -42 702 -1 Q757 -2 824 -2 Q846 -1 846 20 L846 832 L920 832 Z" /><glyph glyph-name="" unicode="&#x521d;" d="M248 666 Q223 722 163 805 L220 837 Q279 764 307 704 L248 666 ZM381 185 Q353 229 277 322 L277 -76 L202 -76 L202 311 Q137 236 78 189 Q61 238 38 259 Q208 387 307 592 L58 592 L58 660 L344 660 L358 663 L401 633 Q355 519 277 409 L277 407 Q299 385 311 371 Q364 428 392 469 L443 427 Q386 370 346 334 Q405 271 428 245 L381 185 ZM919 711 Q901 36 853 -25 Q826 -62 775 -68 Q726 -74 630 -67 Q628 -26 607 4 Q681 -2 746 -2 Q772 -2 787 16 Q828 62 846 680 L654 680 Q641 387 594 227 Q536 34 404 -78 Q385 -52 346 -20 Q473 77 526 259 Q570 407 579 680 L416 680 L416 752 L919 752 L919 711 Z" /><glyph glyph-name="" unicode="&#x5225;" d="M167 532 L421 532 L421 724 L167 724 L167 532 ZM498 359 L497 327 Q481 -6 448 -44 Q427 -69 384 -72 Q353 -76 262 -72 Q258 -31 241 -7 Q290 -12 355 -12 Q378 -12 389 -1 Q414 27 426 292 L262 292 Q223 34 88 -78 Q68 -46 37 -27 Q186 92 207 466 L98 466 L98 791 L491 791 L491 466 L279 466 Q276 412 270 359 L498 359 ZM665 167 L593 167 L593 717 L665 717 L665 167 ZM910 817 L910 22 Q910 -45 865 -64 Q829 -77 685 -77 Q676 -34 658 -2 Q752 -6 810 -3 Q836 -3 836 22 L836 817 L910 817 Z" /><glyph glyph-name="" unicode="&#x5229;" d="M341 537 L546 537 L546 468 L341 468 L341 441 Q389 396 534 251 L490 190 Q456 234 341 357 L341 -75 L267 -75 L267 354 Q181 166 78 61 Q65 90 37 131 Q171 256 252 468 L57 468 L57 537 L267 537 L267 707 Q192 692 75 675 Q71 701 52 734 Q342 777 465 831 L520 774 Q451 747 341 721 L341 537 ZM697 170 L624 170 L624 718 L697 718 L697 170 ZM909 825 L909 27 Q909 -41 864 -58 Q827 -73 686 -73 Q674 -25 659 2 Q694 1 810 1 Q836 2 836 27 L836 825 L909 825 Z" /><glyph glyph-name="" unicode="&#x5230;" d="M366 95 L574 134 L579 69 Q165 -10 82 -27 L66 43 L295 83 L295 251 L100 251 L100 317 L295 317 L295 425 L366 425 L366 317 L565 317 L565 251 L366 251 L366 95 ZM74 771 L585 771 L585 705 L315 705 Q260 599 200 519 L455 541 Q424 587 381 640 L434 672 Q542 543 585 458 L528 421 Q514 451 493 483 Q147 450 122 438 Q113 474 97 508 Q116 512 145 552 Q190 612 232 705 L74 705 L74 771 ZM710 149 L640 149 L640 750 L710 750 L710 149 ZM909 820 L909 40 Q909 -26 868 -41 Q832 -55 712 -55 Q707 -21 685 18 Q778 15 815 17 Q836 18 836 39 L836 820 L909 820 Z" /><glyph glyph-name="" unicode="&#x5236;" d="M362 520 L603 520 L603 452 L362 452 L362 352 L568 352 L568 79 Q568 28 538 14 Q513 2 422 2 Q417 34 400 67 Q470 65 486 67 Q500 67 500 80 L500 284 L362 284 L362 -75 L291 -75 L291 284 L162 284 L162 5 L94 5 L94 352 L291 352 L291 452 L48 452 L48 520 L291 520 L291 625 L161 625 Q135 561 111 522 Q89 536 45 550 Q111 648 145 813 L215 799 Q198 734 185 693 L291 693 L291 833 L362 833 L362 693 L564 693 L564 625 L362 625 L362 520 ZM745 196 L675 196 L675 746 L745 746 L745 196 ZM924 826 L924 26 Q924 -40 883 -58 Q847 -73 723 -73 Q715 -32 699 5 Q758 3 831 3 Q852 4 852 25 L852 826 L924 826 Z" /><glyph glyph-name="" unicode="&#x523b;" d="M527 554 Q394 297 115 148 Q96 180 68 207 Q233 286 349 415 Q130 401 108 392 Q102 421 85 462 Q107 466 143 503 Q199 563 253 644 L57 644 L57 712 L314 712 Q297 766 259 823 L327 841 Q377 770 393 713 L390 712 L598 712 L598 644 L339 644 Q270 543 197 470 L401 479 Q441 535 460 576 L527 554 ZM593 361 Q531 256 449 170 Q573 62 609 18 L555 -32 Q509 26 401 123 Q270 4 109 -75 Q88 -38 62 -12 Q378 123 525 387 L593 361 ZM741 168 L670 168 L670 721 L741 721 L741 168 ZM922 823 L922 20 Q922 -43 880 -61 Q843 -74 714 -74 Q708 -36 690 -3 Q788 -6 824 -4 Q849 -3 849 20 L849 823 L922 823 Z" /><glyph glyph-name="" unicode="&#x5247;" d="M667 717 L667 167 L594 167 L594 717 L667 717 ZM912 817 L912 22 Q912 -45 867 -64 Q831 -77 687 -77 Q679 -39 660 -2 Q754 -6 812 -3 Q838 -3 838 22 L838 817 L912 817 ZM242 122 Q191 6 100 -78 Q71 -51 38 -32 Q124 40 170 142 L242 122 ZM406 141 Q482 53 520 -28 L452 -62 Q418 19 341 114 L406 141 ZM170 424 L413 424 L413 548 L170 548 L170 424 ZM170 237 L413 237 L413 363 L170 363 L170 237 ZM170 609 L413 609 L413 731 L170 731 L170 609 ZM485 798 L485 171 L99 171 L99 798 L485 798 Z" /><glyph glyph-name="" unicode="&#x524d;" d="M411 202 L411 302 L191 302 L191 285 Q191 246 188 202 L411 202 ZM191 461 L191 360 L411 360 L411 461 L191 461 ZM483 9 Q483 -44 447 -60 Q419 -72 308 -72 Q303 -46 284 -7 Q364 -10 392 -8 Q411 -7 411 10 L411 143 L183 143 Q163 -2 105 -80 Q83 -51 49 -37 Q123 67 123 285 L123 522 L483 522 L483 9 ZM805 542 L878 542 L878 17 Q878 -44 838 -60 Q799 -75 680 -73 Q673 -39 653 -2 Q750 -5 783 -3 Q805 -2 805 17 L805 542 ZM673 106 L604 106 L604 512 L673 512 L673 106 ZM945 679 L945 611 L57 611 L57 679 L302 679 Q276 736 211 812 L279 838 Q346 766 379 698 L330 679 L628 679 Q684 758 722 841 L800 815 Q765 755 711 679 L945 679 Z" /><glyph glyph-name="" unicode="&#x5269;" d="M59 292 L197 326 L197 425 L75 425 L75 480 L197 480 L197 551 L253 551 L253 341 L293 352 L299 303 L75 237 L59 292 ZM500 551 L500 478 L620 478 L620 424 L500 424 L500 336 Q500 306 517 306 L580 306 Q603 306 623 310 Q625 283 628 263 Q613 259 581 259 L510 259 Q470 259 456 277 Q443 293 443 337 L443 551 L500 551 ZM385 642 L643 642 L643 578 L385 578 L385 255 Q528 164 624 86 L583 25 Q520 85 385 188 L385 -72 L315 -72 L315 177 Q209 32 94 -43 Q70 -9 45 12 Q209 107 315 281 L315 578 L59 578 L59 642 L315 642 L315 726 Q218 715 106 710 Q100 741 87 769 Q409 787 544 832 L597 778 Q511 750 385 734 L385 642 ZM755 167 L687 167 L687 716 L755 716 L755 167 ZM917 826 L917 18 Q917 -42 877 -61 Q843 -75 721 -75 Q716 -42 697 -4 Q754 -5 822 -5 Q845 -4 845 18 L845 826 L917 826 Z" /><glyph glyph-name="" unicode="&#x526f;" d="M156 292 L156 198 L306 198 L306 292 L156 292 ZM523 292 L374 292 L374 198 L523 198 L523 292 ZM523 40 L523 140 L374 140 L374 40 L523 40 ZM306 40 L306 140 L156 140 L156 40 L306 40 ZM88 351 L594 351 L594 -62 L523 -62 L523 -19 L156 -19 L156 -74 L88 -74 L88 351 ZM481 595 L191 595 L191 483 L481 483 L481 595 ZM552 655 L552 423 L123 423 L123 655 L552 655 ZM61 791 L609 791 L609 726 L61 726 L61 791 ZM740 166 L674 166 L674 716 L740 716 L740 166 ZM919 817 L919 20 Q919 -45 877 -62 Q840 -78 710 -76 Q704 -39 685 -2 Q772 -6 822 -3 Q847 -3 847 20 L847 817 L919 817 Z" /><glyph glyph-name="" unicode="&#x5275;" d="M196 474 L196 410 L465 410 L465 474 L196 474 ZM465 292 L465 360 L196 360 Q194 311 192 292 L465 292 ZM187 237 Q165 68 100 -35 Q79 -18 37 -2 Q126 134 126 394 L126 529 L534 529 L534 237 L187 237 ZM444 628 L444 579 L234 579 L234 628 L444 628 ZM250 135 L250 30 L491 30 L491 135 L250 135 ZM186 191 L557 191 L557 -68 L491 -68 L491 -29 L250 -29 L250 -70 L186 -70 L186 191 ZM387 803 Q385 799 379 791 L371 779 Q533 681 591 634 L552 573 Q482 632 331 726 Q233 606 80 523 Q60 565 39 591 Q233 685 320 829 L387 803 ZM717 178 L647 178 L647 726 L717 726 L717 178 ZM906 832 L906 23 Q906 -42 866 -59 Q831 -74 706 -74 Q699 -37 681 0 Q776 -3 811 -1 Q834 0 834 22 L834 832 L906 832 Z" /><glyph glyph-name="" unicode="&#x2f12;&#x529b;&#xf98a;" d="M904 619 Q903 591 902 580 Q873 37 815 -29 Q787 -63 730 -69 Q680 -73 570 -66 Q568 -24 545 10 Q624 3 702 3 Q733 3 748 18 Q799 66 825 545 L484 545 Q456 128 114 -81 Q89 -43 57 -22 Q377 168 407 545 L87 545 L87 619 L411 619 L411 835 L488 835 L488 619 L904 619 Z" /><glyph glyph-name="" unicode="&#x529f;" d="M443 216 Q283 169 60 107 L41 183 L201 222 L201 648 L55 648 L55 719 L419 719 L419 648 L274 648 L274 242 L434 285 L443 216 ZM937 610 Q937 582 936 572 Q915 28 869 -27 Q842 -60 792 -66 Q741 -71 645 -64 Q643 -25 622 9 Q683 3 762 3 Q790 3 804 18 Q843 62 863 538 L663 538 Q649 314 592 179 Q520 11 361 -78 Q343 -45 308 -19 Q456 60 523 211 Q577 334 590 538 L426 538 L426 610 L593 610 Q596 711 596 820 L670 820 Q670 712 667 610 L937 610 Z" /><glyph glyph-name="" unicode="&#x52a0;" d="M492 616 Q467 47 421 -12 Q396 -46 353 -50 Q314 -56 244 -51 Q240 -7 222 25 Q275 20 320 20 Q342 20 355 37 Q396 84 417 582 L276 582 Q254 116 102 -72 Q76 -40 43 -22 Q184 146 203 582 L65 582 L65 655 L205 655 Q207 716 207 834 L281 834 Q281 747 278 655 L492 655 L492 616 ZM834 83 L834 640 L640 640 L640 83 L834 83 ZM910 712 L910 -55 L834 -55 L834 11 L640 11 L640 -62 L567 -62 L567 712 L910 712 Z" /><glyph glyph-name="" unicode="&#x52a9;" d="M177 124 L364 164 L364 296 L177 296 L177 124 ZM177 720 L177 574 L364 574 L364 720 L177 720 ZM364 507 L177 507 L177 363 L364 363 L364 507 ZM494 124 Q252 67 51 21 L38 96 L109 110 L109 788 L434 788 L434 179 L489 191 L494 124 ZM927 611 L926 574 Q913 22 873 -31 Q850 -63 801 -69 Q771 -72 664 -68 Q660 -23 642 3 Q699 -1 772 -1 Q798 -3 809 14 Q842 54 854 540 L698 540 Q685 321 632 183 Q567 14 426 -79 Q404 -42 372 -24 Q504 59 565 213 Q614 337 626 540 L467 540 L467 611 L629 611 Q632 684 632 836 L704 836 Q704 684 701 611 L927 611 Z" /><glyph glyph-name="" unicode="&#x52aa;" d="M197 568 Q262 541 312 517 Q382 583 399 679 Q241 670 248 670 Q230 627 197 568 ZM425 378 Q383 409 322 443 Q234 376 87 329 Q76 355 49 378 Q180 419 261 475 Q192 509 109 543 Q133 579 176 665 L59 659 L52 720 Q215 728 204 727 Q230 787 248 842 L314 832 Q299 788 275 730 L404 737 L404 782 L467 782 L467 741 L507 742 L506 686 L464 683 Q449 569 371 487 Q438 450 476 424 L425 378 ZM883 263 Q882 241 880 230 Q856 -3 814 -45 Q789 -69 742 -72 Q695 -75 602 -69 Q599 -34 582 -3 Q647 -9 710 -9 Q736 -9 749 0 Q781 30 798 198 L500 198 Q464 87 379 23 Q284 -48 106 -83 Q92 -45 68 -19 Q356 30 421 198 L122 198 L122 263 L440 263 Q446 290 454 346 L530 346 Q522 292 517 263 L883 263 ZM612 710 Q653 603 724 529 Q804 607 841 710 L612 710 ZM928 761 Q884 595 774 483 Q854 421 957 392 Q931 366 912 332 Q805 367 721 438 Q643 379 534 342 Q519 375 495 400 Q595 430 672 485 Q593 573 547 700 L585 710 L525 710 L525 774 L871 774 L883 777 L928 761 Z" /><glyph glyph-name="" unicode="&#x52d5;" d="M262 301 L262 374 L136 374 L136 301 L262 301 ZM136 423 L262 423 L262 495 L136 495 L136 423 ZM329 495 L329 423 L460 423 L460 495 L329 495 ZM460 374 L329 374 L329 301 L460 301 L460 374 ZM935 605 L934 567 Q920 16 880 -33 Q859 -65 813 -70 Q775 -75 692 -70 Q688 -29 671 0 Q731 -5 782 -5 Q806 -5 818 11 Q850 51 863 535 L720 535 Q710 312 665 177 Q609 11 486 -81 Q465 -51 431 -28 Q447 -17 475 7 Q288 -15 56 -40 L45 25 Q127 32 262 45 L262 131 L73 131 L73 188 L262 188 L262 249 L75 249 L75 546 L262 546 L262 609 L46 609 L46 667 L262 667 L262 733 Q157 725 74 722 Q68 755 56 777 Q335 792 487 826 L524 769 Q456 754 329 740 L329 667 L541 667 L541 609 L329 609 L329 546 L523 546 L523 249 L329 249 L329 188 L525 188 L525 131 L329 131 L329 52 Q435 62 529 73 L529 68 Q636 213 651 535 L534 535 L534 605 L653 605 Q655 675 655 824 L725 824 Q725 675 723 605 L935 605 Z" /><glyph glyph-name="" unicode="&#x5305;" d="M273 632 Q192 517 100 442 Q60 482 38 496 Q211 623 304 842 L379 820 Q355 765 318 703 L870 703 L870 668 Q855 228 821 184 Q799 155 758 150 Q717 145 642 150 Q640 186 623 221 Q688 215 723 217 Q745 216 756 230 Q783 265 794 632 L273 632 ZM271 462 L271 301 L531 301 L531 462 L271 462 ZM776 15 Q839 15 859 39 Q878 61 886 140 Q914 121 957 113 Q946 13 912 -20 Q876 -55 777 -55 L400 -55 Q282 -55 241 -28 Q198 1 198 83 L198 529 L604 529 L604 234 L271 234 L271 83 Q271 42 294 29 Q318 15 396 15 L776 15 Z" /><glyph glyph-name="" unicode="&#x5316;" d="M382 810 Q335 705 282 621 L282 -77 L210 -77 L210 515 Q144 427 75 363 Q57 404 33 437 Q212 591 313 833 L382 810 ZM804 25 Q845 25 858 68 Q870 106 876 240 Q908 215 945 206 Q936 60 911 12 Q884 -43 808 -43 L618 -43 Q543 -43 516 -15 Q488 13 488 92 L488 821 L560 821 L560 549 L915 549 L915 477 L560 477 L560 90 Q560 50 572 38 Q584 25 623 25 L804 25 Z" /><glyph glyph-name="" unicode="&#x5323;" d="M948 23 L948 -49 L98 -49 L98 788 L926 788 L926 716 L171 716 L171 23 L948 23 ZM779 312 L779 419 L594 419 L594 312 L779 312 ZM523 312 L523 419 L339 419 L339 312 L523 312 ZM339 578 L339 476 L523 476 L523 578 L339 578 ZM779 578 L594 578 L594 476 L779 476 L779 578 ZM779 218 L779 252 L594 252 L594 48 L523 48 L523 252 L339 252 L339 218 L270 218 L270 639 L851 639 L851 218 L779 218 Z" /><glyph glyph-name="" unicode="&#x5340;" d="M771 39 Q880 39 937 50 Q945 -4 949 -21 Q920 -30 770 -30 L330 -30 Q212 -30 159 12 Q103 57 103 164 L103 724 L62 724 L62 791 L900 791 L900 724 L176 724 L176 159 Q176 95 209 67 Q242 39 322 39 L771 39 ZM661 606 L433 606 L433 492 L661 492 L661 606 ZM734 438 L363 438 L363 659 L734 659 L734 438 ZM317 168 L450 168 L450 316 L317 316 L317 168 ZM255 370 L515 370 L515 114 L255 114 L255 370 ZM785 316 L646 316 L646 168 L785 168 L785 316 ZM851 114 L582 114 L582 370 L851 370 L851 114 Z" /><glyph glyph-name="" unicode="&#x5357;" d="M533 119 L533 -57 L462 -57 L462 119 L247 119 L247 181 L462 181 L462 282 L268 282 L268 343 L373 343 Q357 402 318 461 L377 476 Q420 413 435 360 L381 343 L560 343 Q594 411 617 480 L684 465 Q650 389 626 343 L739 343 L739 282 L533 282 L533 181 L756 181 L756 119 L533 119 ZM530 667 L514 561 L885 561 L885 10 Q885 -50 842 -65 Q810 -77 673 -77 Q666 -47 646 -10 Q743 -15 787 -12 Q810 -11 810 10 L810 492 L191 492 L191 -76 L118 -76 L118 561 L443 561 Q448 594 456 667 L64 667 L64 737 L463 737 Q469 810 470 838 L550 829 L539 737 L938 737 L938 667 L530 667 Z" /><glyph glyph-name="" unicode="&#x539f;" d="M442 176 Q352 49 266 -34 Q237 -13 203 8 Q298 89 373 200 L442 176 ZM370 308 L785 308 L785 401 L370 401 L370 308 ZM370 457 L785 457 L785 550 L370 550 L370 457 ZM613 249 L613 5 Q613 -50 575 -64 Q545 -76 420 -76 Q416 -50 397 -10 Q455 -11 521 -11 Q541 -10 541 6 L541 249 L297 249 L297 609 L492 609 Q512 649 530 701 L616 688 L572 609 L860 609 L860 249 L613 249 ZM756 198 Q891 56 935 0 L873 -40 Q830 23 697 167 L756 198 ZM939 713 L207 713 L207 499 Q207 125 102 -56 Q75 -32 38 -19 Q134 149 134 499 L134 781 L939 781 L939 713 Z" /><glyph glyph-name="" unicode="&#x53bb;" d="M464 344 Q357 171 246 50 L740 85 Q674 179 605 259 L670 289 Q824 121 903 -28 L832 -67 Q811 -24 783 20 Q186 -27 148 -42 Q136 7 123 31 Q148 37 196 95 Q278 180 371 344 L56 344 L56 418 L461 418 L461 607 L134 607 L134 680 L461 680 L461 837 L538 837 L538 680 L874 680 L874 607 L538 607 L538 418 L948 418 L948 344 L464 344 Z" /><glyph glyph-name="" unicode="&#x53c3;" d="M773 620 Q757 638 723 669 Q217 647 193 639 Q185 673 171 703 Q198 706 233 726 Q320 768 404 841 L470 808 Q392 750 320 710 L659 722 Q611 760 570 787 L624 816 Q758 732 831 652 L773 620 ZM814 163 Q646 -16 213 -77 Q196 -39 177 -16 Q597 33 753 193 L814 163 ZM582 363 Q469 272 258 206 Q233 238 214 252 Q426 311 527 390 L582 363 ZM693 265 Q546 142 261 75 Q245 103 221 129 Q502 184 636 294 L693 265 ZM880 418 Q871 437 850 468 Q678 455 637 450 Q789 345 969 298 Q946 279 922 240 Q656 320 494 490 Q355 324 87 233 Q66 269 44 290 Q226 344 350 440 Q349 444 342 460 Q134 447 112 438 Q102 477 88 501 Q109 506 128 525 Q175 563 218 638 L285 609 Q245 554 196 508 L312 513 Q302 528 282 554 L336 573 Q369 531 397 482 Q447 530 481 590 L549 570 Q541 555 532 542 Q562 510 581 494 L576 505 Q594 510 608 527 Q646 562 676 632 L743 603 Q714 556 676 513 L812 521 Q799 538 770 569 L822 593 Q904 511 936 445 L880 418 Z" /><glyph glyph-name="" unicode="&#x53ca;" d="M443 435 Q504 274 629 161 Q755 270 812 435 L443 435 ZM344 627 Q344 562 340 505 L559 505 Q588 606 613 717 L344 717 L344 627 ZM910 486 Q851 257 690 112 Q804 31 960 -7 Q928 -39 909 -77 Q746 -32 628 62 Q500 -33 311 -84 Q292 -38 269 -16 Q442 24 569 114 Q443 238 371 435 L334 435 Q297 132 94 -59 Q77 -29 40 4 Q269 217 269 627 L269 717 L94 717 L94 790 L707 790 Q669 616 639 505 L844 505 L858 509 L910 486 Z" /><glyph glyph-name="" unicode="&#x53cd;" d="M390 451 Q451 286 566 177 Q692 293 749 451 L390 451 ZM847 505 Q785 278 625 128 Q757 30 942 -10 Q916 -32 892 -78 Q701 -31 565 77 Q434 -24 258 -76 Q238 -32 215 -9 Q378 33 507 128 Q381 255 312 451 L246 451 Q240 104 117 -74 Q90 -47 54 -30 Q174 141 174 503 L174 773 L902 773 L902 701 L247 701 L247 522 L781 522 L796 526 L847 505 Z" /><glyph glyph-name="" unicode="&#x53d6;" d="M394 705 L199 705 L199 572 L394 572 L394 705 ZM199 148 Q260 156 394 176 L394 299 L199 299 L199 148 ZM394 506 L199 506 L199 367 L394 367 L394 506 ZM466 705 L466 -74 L394 -74 L394 107 Q329 96 208 77 Q91 59 45 51 L32 126 Q78 131 129 138 L129 705 L51 705 L51 774 L536 774 L536 705 L466 705 ZM930 689 Q892 379 768 182 Q854 57 974 -4 Q944 -29 921 -65 Q805 1 722 116 Q635 6 518 -62 Q498 -27 469 -2 Q589 60 679 183 Q583 347 530 610 L601 623 Q642 406 724 253 Q814 412 848 627 L511 627 L511 700 L868 700 L882 703 L930 689 Z" /><glyph glyph-name="" unicode="&#x53d7;" d="M870 780 Q594 722 102 703 Q101 728 85 766 Q573 787 818 840 L870 780 ZM482 556 Q472 624 432 703 L499 718 Q540 640 552 573 L482 556 ZM145 347 L75 347 L75 550 L234 550 Q214 609 168 682 L232 700 Q284 627 303 569 L244 550 L679 550 Q736 636 772 720 L847 697 Q812 634 755 550 L926 550 L926 347 L853 347 L853 484 L145 484 L145 347 ZM307 302 Q377 202 503 130 Q628 202 693 302 L307 302 ZM804 343 Q730 191 575 92 Q732 21 945 -5 Q920 -30 900 -74 Q670 -42 501 50 Q334 -36 98 -74 Q80 -34 54 -8 Q279 23 430 92 Q303 179 228 298 L238 302 L195 302 L195 371 L740 371 L755 374 L804 343 Z" /><glyph glyph-name="" unicode="&#x53e5;&#xf906;" d="M303 409 L303 185 L548 185 L548 409 L303 409 ZM303 117 L303 46 L231 46 L231 477 L621 477 L621 117 L303 117 ZM914 691 L913 651 Q892 29 839 -34 Q808 -72 752 -78 Q700 -83 578 -76 Q576 -39 553 1 Q628 -5 723 -5 Q755 -5 770 11 Q818 58 837 618 L283 618 Q203 458 105 357 Q81 381 40 409 Q202 558 290 836 L366 817 Q350 769 318 691 L914 691 Z" /><glyph glyph-name="" unicode="&#x53e6;" d="M763 719 L234 719 L234 545 L763 545 L763 719 ZM840 474 L161 474 L161 790 L840 790 L840 474 ZM877 297 Q857 4 818 -37 Q793 -63 740 -68 Q688 -71 587 -65 Q583 -26 561 8 Q635 1 711 1 Q740 1 752 12 Q783 40 799 263 L490 263 Q454 136 370 58 Q273 -32 92 -77 Q81 -43 50 -12 Q340 54 410 263 L98 263 L98 331 L427 331 Q434 364 442 436 L520 436 Q514 378 505 331 L880 331 L877 297 Z" /><glyph glyph-name="" unicode="&#x53ea;" d="M655 222 Q849 77 941 -32 L873 -77 Q782 36 592 183 L655 222 ZM413 189 Q296 33 111 -80 Q88 -56 52 -28 Q241 80 335 219 L413 189 ZM236 383 L763 383 L763 691 L236 691 L236 383 ZM841 762 L841 311 L161 311 L161 762 L841 762 Z" /><glyph glyph-name="" unicode="&#x53eb;" d="M168 677 L168 242 L340 242 L340 677 L168 677 ZM412 173 L168 173 L168 82 L98 82 L98 746 L412 746 L412 173 ZM889 827 L889 -78 L813 -78 L813 200 Q536 130 503 107 Q493 138 468 169 Q523 198 523 248 L523 746 L598 746 L598 219 L813 269 L813 827 L889 827 Z" /><glyph glyph-name="" unicode="&#x53ef;" d="M233 474 L233 246 L494 246 L494 474 L233 474 ZM233 175 L233 95 L161 95 L161 546 L567 546 L567 175 L233 175 ZM944 692 L821 692 L821 30 Q821 -46 770 -61 Q730 -75 563 -75 Q554 -36 531 4 Q638 -1 716 2 Q745 3 745 31 L745 692 L59 692 L59 766 L944 766 L944 692 Z" /><glyph glyph-name="" unicode="&#x53f3;" d="M343 314 L343 50 L786 50 L786 314 L343 314 ZM416 579 Q375 471 324 385 L862 385 L862 -73 L786 -73 L786 -21 L343 -21 L343 -78 L270 -78 L270 303 Q187 192 85 119 Q67 147 36 178 Q230 310 336 579 L68 579 L68 651 L363 651 Q394 748 413 837 L490 823 Q466 722 442 651 L935 651 L935 579 L416 579 Z" /><glyph glyph-name="" unicode="&#x53f8;" d="M234 357 L234 171 L555 171 L555 357 L234 357 ZM234 105 L234 32 L161 32 L161 423 L628 423 L628 105 L234 105 ZM696 530 L98 530 L98 597 L696 597 L696 530 ZM885 34 Q885 -39 840 -56 Q802 -70 654 -70 Q648 -25 628 10 Q741 7 786 9 Q810 10 810 34 L810 701 L91 701 L91 772 L885 772 L885 34 Z" /><glyph glyph-name="" unicode="&#x5404;" d="M279 210 L279 32 L716 32 L716 210 L279 210 ZM205 279 L793 279 L793 -78 L716 -78 L716 -35 L279 -35 L279 -81 L205 -81 L205 279 ZM322 657 Q393 574 505 504 Q627 579 699 666 L330 666 L322 657 ZM818 701 Q737 573 575 463 Q755 365 965 324 Q941 300 917 256 Q695 306 506 421 Q306 308 69 252 Q58 288 33 319 Q249 365 439 465 Q340 535 275 610 Q197 536 116 487 Q88 520 59 542 Q267 655 375 845 L446 820 Q416 771 386 732 L754 732 L767 736 L818 701 Z" /><glyph glyph-name="" unicode="&#x5408;" d="M273 257 L273 50 L737 50 L737 257 L273 257 ZM198 323 L814 323 L814 -71 L737 -71 L737 -19 L273 -19 L273 -75 L198 -75 L198 323 ZM749 512 Q612 596 506 709 Q413 601 277 512 L749 512 ZM581 807 L549 762 Q703 599 964 489 Q932 462 913 422 Q811 472 751 511 L751 443 L250 443 L250 494 Q165 443 97 413 Q68 458 43 478 Q362 605 516 839 L581 807 Z" /><glyph glyph-name="" unicode="&#x540c;" d="M369 378 L369 189 L631 189 L631 378 L369 378 ZM369 125 L369 53 L300 53 L300 441 L701 441 L701 125 L369 125 ZM754 545 L250 545 L250 610 L754 610 L754 545 ZM911 17 Q911 -46 870 -64 Q834 -78 703 -78 Q698 -41 676 -5 Q777 -8 814 -6 Q838 -5 838 17 L838 714 L163 714 L163 -79 L91 -79 L91 785 L911 785 L911 17 Z" /><glyph glyph-name="" unicode="&#x540d;" d="M771 44 L771 271 L327 271 L327 44 L771 44 ZM362 669 Q349 656 295 609 Q432 512 496 451 Q649 547 732 669 L362 669 ZM847 -76 L771 -76 L771 -24 L327 -24 L327 -76 L254 -76 L254 253 Q174 225 88 205 Q76 245 50 273 Q250 314 427 410 Q365 472 237 567 Q178 526 125 500 Q101 538 74 556 Q297 664 408 840 L491 822 Q457 771 426 737 L780 737 L792 741 L842 710 Q727 487 450 340 L847 340 L847 -76 Z" /><glyph glyph-name="" unicode="&#x5411;" d="M374 394 L374 199 L625 199 L625 394 L374 394 ZM374 132 L374 61 L306 61 L306 461 L694 461 L694 132 L374 132 ZM903 23 Q903 -47 857 -63 Q818 -76 670 -76 Q662 -35 643 0 Q752 -5 805 -2 Q829 -1 829 23 L829 593 L175 593 L175 -76 L102 -76 L102 665 L375 665 Q419 759 439 839 L530 823 Q494 735 457 665 L903 665 L903 23 Z" /><glyph glyph-name="" unicode="&#x5426;" d="M462 569 Q302 446 92 367 Q65 410 40 434 Q343 533 511 710 L70 710 L70 780 L931 780 L931 710 L611 710 Q571 663 536 632 L536 327 L462 327 L462 569 ZM255 233 L255 38 L749 38 L749 233 L255 233 ZM180 299 L828 299 L828 -75 L749 -75 L749 -29 L255 -29 L255 -77 L180 -77 L180 299 ZM631 613 Q822 534 955 434 L902 378 Q770 485 578 563 L631 613 Z" /><glyph glyph-name="" unicode="&#x5427;" d="M149 673 L149 256 L276 256 L276 673 L149 673 ZM345 187 L149 187 L149 92 L81 92 L81 742 L345 742 L345 187 ZM506 703 L506 382 L642 382 L642 703 L506 703 ZM851 703 L710 703 L710 382 L851 382 L851 703 ZM821 12 Q862 12 876 40 Q889 66 895 154 Q927 131 963 124 Q954 18 928 -17 Q900 -57 824 -57 L579 -57 Q495 -57 465 -30 Q433 -1 433 81 L433 772 L924 772 L924 251 L851 251 L851 314 L506 314 L506 80 Q506 38 520 25 Q534 12 582 12 L821 12 Z" /><glyph glyph-name="" unicode="&#x542b;" d="M737 206 L281 206 L281 27 L737 27 L737 206 ZM797 467 Q763 400 683 272 L812 272 L812 -78 L737 -78 L737 -39 L281 -39 L281 -78 L208 -78 L208 272 L596 272 Q645 347 685 418 L176 418 L176 484 L728 484 L742 489 L797 467 ZM657 615 Q562 675 500 735 Q434 672 344 615 L657 615 ZM566 804 L543 778 Q707 628 964 556 Q940 535 913 492 Q787 534 660 613 L660 552 L323 552 L323 602 Q206 530 92 487 Q70 525 41 551 Q349 657 501 839 L566 804 Z" /><glyph glyph-name="" unicode="&#x544a;" d="M262 231 L262 40 L747 40 L747 231 L262 231 ZM188 300 L822 300 L822 -84 L747 -84 L747 -30 L262 -30 L262 -86 L188 -86 L188 300 ZM939 468 L939 398 L65 398 L65 468 L484 468 L484 625 L239 625 Q189 540 144 491 Q110 514 77 531 Q187 638 250 827 L324 810 Q306 758 275 693 L484 693 L484 837 L561 837 L561 693 L865 693 L865 625 L561 625 L561 468 L939 468 Z" /><glyph glyph-name="" unicode="&#x5468;" d="M367 265 L367 124 L642 124 L642 265 L367 265 ZM367 64 L367 9 L298 9 L298 325 L713 325 L713 64 L367 64 ZM803 459 L803 564 L538 564 L538 459 L803 459 ZM224 459 L467 459 L467 564 L224 564 L224 459 ZM224 719 L224 625 L467 625 L467 719 L224 719 ZM803 719 L538 719 L538 625 L803 625 L803 719 ZM877 13 Q877 -47 833 -64 Q799 -77 661 -77 Q654 -46 635 -11 Q739 -14 778 -12 Q803 -11 803 12 L803 396 L223 396 Q213 77 95 -83 Q72 -54 36 -35 Q151 123 151 468 L151 789 L877 789 L877 13 Z" /><glyph glyph-name="" unicode="&#x5473;" d="M144 674 L144 239 L269 239 L269 674 L144 674 ZM144 167 L144 90 L76 90 L76 746 L338 746 L338 167 L144 167 ZM717 362 Q813 145 959 44 Q927 17 905 -17 Q783 81 688 281 L688 -76 L615 -76 L615 280 Q511 78 361 -19 Q337 17 309 39 Q482 136 586 362 L374 362 L374 433 L615 433 L615 601 L412 601 L412 672 L615 672 L615 831 L688 831 L688 672 L907 672 L907 601 L688 601 L688 433 L948 433 L948 362 L717 362 Z" /><glyph glyph-name="" unicode="&#x547c;" d="M144 664 L144 268 L251 268 L251 664 L144 664 ZM318 199 L144 199 L144 106 L78 106 L78 733 L318 733 L318 199 ZM955 282 L689 282 L689 20 Q689 -42 647 -60 Q609 -75 483 -73 Q476 -36 455 -2 Q487 -3 591 -3 Q616 -3 616 20 L616 282 L361 282 L361 353 L616 353 L616 703 Q508 690 388 682 Q385 707 368 743 Q705 770 865 817 L916 758 Q828 733 689 713 L689 353 L955 353 L955 282 ZM462 642 Q524 522 542 409 L476 387 Q460 500 400 622 L462 642 ZM748 405 Q805 520 842 657 L914 636 Q846 457 807 384 L748 405 Z" /><glyph glyph-name="" unicode="&#x547d;" d="M199 358 L199 150 L364 150 L364 358 L199 358 ZM434 84 L199 84 L199 0 L130 0 L130 424 L434 424 L434 84 ZM875 144 Q875 87 839 72 Q811 59 688 59 Q684 88 666 128 Q694 127 784 127 Q803 128 803 145 L803 357 L611 357 L611 -78 L538 -78 L538 425 L875 425 L875 144 ZM693 574 Q581 645 503 733 Q421 645 305 574 L693 574 ZM563 805 L546 783 Q699 612 963 543 Q939 522 909 473 Q805 505 694 574 L694 506 L297 506 L297 569 Q182 500 80 468 Q62 510 38 540 Q175 577 305 663 Q435 748 505 848 L563 805 Z" /><glyph glyph-name="" unicode="&#x548c;" d="M322 543 L496 543 L496 474 L322 474 L322 448 Q397 369 489 255 L444 194 Q415 242 322 363 L322 -74 L249 -74 L249 366 Q168 173 70 68 Q57 99 29 136 Q153 260 230 474 L54 474 L54 543 L249 543 L249 709 Q172 697 84 685 Q77 718 63 744 Q318 779 439 827 L489 769 Q420 744 322 723 L322 543 ZM826 122 L826 673 L603 673 L603 122 L826 122 ZM900 744 L900 -25 L826 -25 L826 50 L603 50 L603 -32 L530 -32 L530 744 L900 744 Z" /><glyph glyph-name="" unicode="&#x54c1;" d="M700 723 L303 723 L303 534 L700 534 L700 723 ZM775 463 L231 463 L231 794 L775 794 L775 463 ZM157 286 L157 49 L366 49 L366 286 L157 286 ZM86 358 L439 358 L439 -68 L366 -68 L366 -23 L157 -23 L157 -77 L86 -77 L86 358 ZM847 49 L847 286 L620 286 L620 49 L847 49 ZM920 358 L920 -70 L847 -70 L847 -23 L620 -23 L620 -77 L548 -77 L548 358 L920 358 Z" /><glyph glyph-name="" unicode="&#x54e1;" d="M739 738 L266 738 L266 634 L739 634 L739 738 ZM816 574 L192 574 L192 798 L816 798 L816 574 ZM224 144 L779 144 L779 216 L224 216 L224 144 ZM224 269 L779 269 L779 339 L224 339 L224 269 ZM224 392 L779 392 L779 462 L224 462 L224 392 ZM342 89 L408 46 Q286 -29 97 -77 Q68 -44 42 -22 Q234 23 336 89 L150 89 L150 517 L855 517 L855 89 L342 89 ZM645 87 Q795 43 959 -24 L895 -78 Q753 -12 581 39 L645 87 Z" /><glyph glyph-name="" unicode="&#x54ea;" d="M135 673 L135 256 L227 256 L227 673 L135 673 ZM135 187 L135 89 L77 89 L77 741 L286 741 L286 187 L135 187 ZM556 315 Q557 342 557 396 L558 490 L474 490 Q474 393 464 315 L556 315 ZM474 554 L558 554 L559 723 L474 723 L474 554 ZM621 750 Q618 8 593 -34 Q576 -67 537 -72 Q503 -77 443 -74 Q443 -36 426 -7 Q461 -9 509 -9 Q527 -10 537 9 Q551 38 555 250 L455 250 Q420 45 312 -79 Q296 -53 267 -33 Q362 76 393 250 L322 250 L322 315 L403 315 Q412 393 412 490 L323 490 L323 554 L412 554 L412 723 L324 723 L324 788 L621 788 L621 750 ZM947 763 Q878 531 852 455 Q936 339 936 210 Q936 113 900 85 Q884 72 851 66 Q818 62 792 65 Q790 105 776 129 Q802 126 826 128 Q844 128 855 138 Q873 152 873 219 Q873 339 791 448 Q829 564 868 725 L747 725 L747 -77 L684 -77 L684 788 L892 788 L901 791 L947 763 Z" /><glyph glyph-name="" unicode="&#x5546;" d="M380 222 L380 106 L618 106 L618 222 L380 222 ZM380 51 L380 5 L315 5 L315 278 L680 278 L680 51 L380 51 ZM882 6 Q882 -46 843 -61 Q810 -71 678 -71 Q671 -40 655 -14 Q745 -17 791 -14 Q813 -13 813 7 L813 459 L611 459 L611 394 Q611 364 630 364 L720 364 Q756 364 775 368 Q776 343 780 315 Q768 310 722 310 L617 310 Q573 310 558 330 Q544 348 544 395 L544 459 L431 459 Q419 379 377 337 Q332 292 231 269 Q219 300 195 321 Q280 336 319 369 Q354 399 365 459 L193 459 L193 -75 L122 -75 L122 521 L584 521 Q632 595 657 657 L732 640 Q684 560 655 521 L882 521 L882 6 ZM340 662 Q386 589 403 551 L339 525 Q317 570 277 641 L340 662 ZM937 729 L937 665 L65 665 L65 729 L478 729 Q460 785 443 823 L512 841 Q546 756 555 729 L937 729 Z" /><glyph glyph-name="" unicode="&#x554f;" d="M168 734 L168 650 L383 650 L383 734 L168 734 ZM383 504 L383 595 L168 595 L168 504 L383 504 ZM168 444 L168 -77 L95 -77 L95 794 L454 794 L454 444 L168 444 ZM378 292 L378 127 L613 127 L613 292 L378 292 ZM378 64 L378 4 L310 4 L310 355 L682 355 L682 64 L378 64 ZM836 503 L836 595 L614 595 L614 503 L836 503 ZM614 735 L614 650 L836 650 L836 735 L614 735 ZM911 24 Q911 -45 867 -63 Q829 -76 688 -76 Q681 -37 662 0 Q750 -4 812 -1 Q836 -1 836 24 L836 444 L543 444 L543 794 L911 794 L911 24 Z" /><glyph glyph-name="" unicode="&#x5584;" d="M267 135 L267 18 L737 18 L737 135 L267 135 ZM194 195 L812 195 L812 -73 L737 -73 L737 -42 L267 -42 L267 -76 L194 -76 L194 195 ZM920 419 L86 419 L86 477 L460 477 L460 546 L172 546 L172 602 L460 602 L460 669 L113 669 L113 726 L307 726 Q287 772 250 815 L315 838 Q358 793 378 748 L324 726 L615 726 Q654 788 675 838 L751 820 Q708 748 692 726 L889 726 L889 669 L535 669 L535 602 L828 602 L828 546 L535 546 L535 477 L920 477 L920 419 ZM945 313 L945 253 L56 253 L56 313 L258 313 Q237 365 206 400 L272 419 Q313 373 332 326 L290 313 L665 313 Q702 372 721 418 L794 402 Q771 358 743 313 L945 313 Z" /><glyph glyph-name="" unicode="&#x559c;" d="M460 710 L83 710 L83 766 L460 766 L460 838 L535 838 L535 766 L921 766 L921 710 L535 710 L535 641 L854 641 L854 586 L153 586 L153 641 L460 641 L460 710 ZM255 110 L255 9 L748 9 L748 110 L255 110 ZM182 164 L823 164 L823 -75 L748 -75 L748 -45 L255 -45 L255 -76 L182 -76 L182 164 ZM343 354 Q371 313 380 278 L614 278 Q641 329 650 354 L343 354 ZM271 405 L729 405 L729 484 L271 484 L271 405 ZM948 278 L948 219 L52 219 L52 278 L303 278 Q291 312 271 343 L309 354 L200 354 L200 535 L803 535 L803 354 L715 354 L733 350 Q716 319 689 278 L948 278 Z" /><glyph glyph-name="" unicode="&#x55ae;" d="M803 748 L610 748 L610 654 L803 654 L803 748 ZM872 604 L542 604 L542 798 L872 798 L872 604 ZM392 748 L201 748 L201 654 L392 654 L392 748 ZM462 604 L134 604 L134 798 L462 798 L462 604 ZM459 266 L459 352 L233 352 L233 266 L459 266 ZM233 409 L459 409 L459 494 L233 494 L233 409 ZM773 494 L535 494 L535 409 L773 409 L773 494 ZM773 352 L535 352 L535 266 L773 266 L773 352 ZM941 65 L535 65 L535 -76 L459 -76 L459 65 L61 65 L61 130 L459 130 L459 206 L161 206 L161 554 L849 554 L849 206 L535 206 L535 130 L941 130 L941 65 Z" /><glyph glyph-name="" unicode="&#x5668;" d="M801 728 L616 728 L616 587 L801 587 L801 728 ZM873 523 L547 523 L547 792 L873 792 L873 523 ZM789 18 L789 165 L612 165 L612 18 L789 18 ZM379 165 L213 165 L213 18 L379 18 L379 165 ZM369 728 L192 728 L192 587 L369 587 L369 728 ZM676 356 Q792 262 965 219 Q939 197 918 160 Q880 172 861 179 L861 -71 L789 -71 L789 -47 L612 -47 L612 -76 L543 -76 L543 230 L750 230 Q653 283 583 356 L396 356 Q327 284 239 230 L450 230 L450 -71 L379 -71 L379 -47 L213 -47 L213 -76 L144 -76 L144 178 Q100 158 76 149 Q65 180 36 205 Q189 262 298 356 L54 356 L54 422 L362 422 Q402 468 429 523 L125 523 L125 792 L440 792 L440 534 L511 520 Q485 469 451 422 L730 422 Q677 457 611 482 L650 521 Q742 490 797 447 L773 422 L946 422 L946 356 L676 356 Z" /><glyph glyph-name="" unicode="&#x56b4;" d="M803 750 L627 750 L627 679 L803 679 L803 750 ZM871 634 L561 634 L561 795 L871 795 L871 634 ZM407 750 L234 750 L234 679 L407 679 L407 750 ZM475 634 L168 634 L168 795 L475 795 L475 634 ZM186 372 Q186 70 91 -79 Q71 -53 34 -35 Q118 97 118 372 L118 595 L938 595 L938 532 L186 532 L186 372 ZM477 329 L321 329 L321 270 L477 270 L477 329 ZM321 44 L477 57 L477 120 L321 120 L321 44 ZM477 226 L321 226 L321 163 L477 163 L477 226 ZM540 329 L540 -76 L477 -76 L477 3 Q269 -17 190 -23 L181 33 L259 39 L259 329 L211 329 L211 382 L366 382 L366 439 L240 439 L240 489 L565 489 L565 439 L429 439 L429 382 L586 382 L586 329 L540 329 ZM680 337 Q709 240 760 160 Q810 244 832 359 L689 359 L680 337 ZM901 359 Q869 203 801 104 Q873 18 965 -20 Q943 -39 918 -78 Q828 -33 761 51 Q693 -28 597 -78 Q573 -44 551 -26 Q655 23 722 105 Q675 175 643 266 Q625 233 599 202 Q582 222 549 246 Q633 342 669 516 L732 503 Q722 456 710 419 L942 419 L942 359 L901 359 Z" /><glyph glyph-name="" unicode="&#x56db;" d="M829 103 L829 678 L634 678 L634 365 Q634 320 659 320 L756 320 Q793 320 814 326 Q816 295 819 263 Q807 258 759 258 L651 258 Q600 258 581 283 Q564 306 564 367 L564 678 L426 678 Q421 456 387 358 Q344 236 223 178 Q209 208 178 236 Q285 286 321 392 Q349 475 353 678 L166 678 L166 103 L829 103 ZM905 750 L905 -36 L829 -36 L829 31 L166 31 L166 -43 L92 -43 L92 750 L905 750 Z" /><glyph glyph-name="" unicode="&#x56de;" d="M618 499 L376 499 L376 271 L618 271 L618 499 ZM691 566 L691 205 L305 205 L305 566 L691 566 ZM836 48 L836 721 L161 721 L161 48 L836 48 ZM915 795 L915 -76 L836 -76 L836 -22 L161 -22 L161 -76 L86 -76 L86 795 L915 795 Z" /><glyph glyph-name="" unicode="&#x56e0;" d="M527 455 Q522 426 517 404 Q687 260 786 122 L733 78 Q655 191 500 338 Q438 149 261 68 Q246 98 215 127 Q414 215 454 455 L214 455 L214 523 L463 523 Q470 591 473 686 L546 686 Q543 593 536 523 L786 523 L786 455 L527 455 ZM845 37 L845 728 L155 728 L155 37 L845 37 ZM917 796 L917 -76 L845 -76 L845 -27 L155 -27 L155 -76 L86 -76 L86 796 L917 796 Z" /><glyph glyph-name="" unicode="&#x56f0;" d="M547 466 Q709 320 799 215 L754 164 Q670 267 534 395 L534 84 L464 84 L464 418 Q362 252 234 162 Q207 199 186 215 Q325 299 425 466 L220 466 L220 532 L464 532 L464 676 L534 676 L534 532 L786 532 L786 466 L547 466 ZM839 37 L839 720 L161 720 L161 37 L839 37 ZM914 790 L914 -79 L839 -79 L839 -32 L161 -32 L161 -79 L88 -79 L88 790 L914 790 Z" /><glyph glyph-name="" unicode="&#x570d;" d="M511 236 L341 236 L320 163 L511 163 L511 236 ZM346 363 L651 363 L651 428 L346 428 L346 363 ZM579 279 L782 279 L782 236 L579 236 L579 163 L776 163 L776 116 L579 116 L579 47 L511 47 L511 116 L247 116 Q264 164 282 236 L227 236 L227 279 L511 279 L511 322 L283 322 L283 468 L718 468 L718 322 L579 322 L579 279 ZM463 613 L453 581 Q447 560 444 552 L631 552 L631 613 L463 613 ZM788 552 L788 506 L215 506 L215 552 L376 552 Q388 584 397 613 L275 613 L275 656 L410 656 L425 714 L489 705 L475 656 L694 656 L694 552 L788 552 ZM842 33 L842 725 L156 725 L156 33 L842 33 ZM915 793 L915 -77 L842 -77 L842 -35 L156 -35 L156 -77 L85 -77 L85 793 L915 793 Z" /><glyph glyph-name="" unicode="&#x5716;" d="M438 210 L556 210 L556 268 L438 268 L438 210 ZM392 307 L604 307 L604 171 L392 171 L392 307 ZM328 128 L668 128 L668 350 L328 350 L328 128 ZM270 396 L729 396 L729 81 L270 81 L270 396 ZM364 576 L633 576 L633 642 L364 642 L364 576 ZM801 486 L801 439 L202 439 L202 486 L465 486 L465 531 L302 531 L302 686 L697 686 L697 531 L528 531 L528 486 L801 486 ZM845 28 L845 733 L155 733 L155 28 L845 28 ZM916 796 L916 -75 L845 -75 L845 -36 L155 -36 L155 -75 L86 -75 L86 796 L916 796 Z" /><glyph glyph-name="" unicode="&#x5718;" d="M528 543 L528 500 L687 500 L687 543 L528 543 ZM687 463 L528 463 L528 419 L687 419 L687 463 ZM651 335 Q643 342 627 354 L667 381 L528 381 L528 332 L651 335 ZM465 419 L465 463 L312 463 L312 419 L465 419 ZM312 500 L465 500 L465 543 L312 543 L312 500 ZM465 623 L214 623 L214 669 L465 669 L465 716 L528 716 L528 669 L784 669 L784 623 L528 623 L528 581 L749 581 L749 381 L669 381 Q741 331 777 283 L735 252 Q722 269 695 296 Q458 288 219 282 L216 329 Q275 329 465 331 L465 381 L253 381 L253 581 L465 581 L465 623 ZM356 194 Q416 149 445 104 L394 74 Q371 114 308 169 L356 194 ZM798 199 L655 199 L655 106 Q655 68 626 60 Q604 53 507 53 Q503 71 489 95 Q559 93 577 95 Q592 95 592 108 L592 199 L202 199 L202 245 L592 245 L592 282 L655 282 L655 245 L798 245 L798 199 ZM831 35 L831 732 L168 732 L168 35 L831 35 ZM902 791 L902 -72 L831 -72 L831 -25 L168 -25 L168 -77 L99 -77 L99 791 L902 791 Z" /><glyph glyph-name="" unicode="&#x5728;" d="M671 17 L935 17 L935 -53 L334 -53 L334 17 L597 17 L597 298 L373 298 L373 368 L597 368 L597 559 L671 559 L671 368 L896 368 L896 298 L671 298 L671 17 ZM935 682 L935 611 L390 611 Q334 495 269 407 L269 -73 L196 -73 L196 319 Q147 266 80 218 Q69 249 42 285 Q203 399 306 611 L66 611 L66 682 L339 682 Q370 758 392 837 L468 818 Q451 760 420 682 L935 682 Z" /><glyph glyph-name="" unicode="&#x5730;" d="M245 247 L355 294 L370 228 Q276 184 66 90 L37 164 Q79 178 175 219 L175 527 L55 527 L55 598 L175 598 L175 825 L245 825 L245 598 L353 598 L353 527 L245 527 L245 247 ZM819 13 Q862 13 876 41 Q889 67 894 155 Q926 132 961 127 Q952 21 926 -15 Q898 -54 822 -54 L576 -54 Q490 -54 460 -27 Q429 1 429 81 L429 395 L350 362 L321 427 L429 472 L429 744 L500 744 L500 503 L634 559 L634 837 L705 837 L705 589 L857 653 L914 634 L910 622 Q889 323 858 184 L797 202 Q819 322 835 567 L705 512 L705 145 L634 145 L634 482 L500 425 L500 80 Q500 39 515 26 Q530 13 578 13 L819 13 Z" /><glyph glyph-name="" unicode="&#x5757;" d="M371 227 Q337 211 68 89 L39 163 L175 217 L175 527 L55 527 L55 598 L175 598 L175 825 L245 825 L245 598 L355 598 L355 527 L245 527 L245 246 L355 292 L371 227 ZM654 488 Q654 427 650 379 L808 379 L808 598 L654 598 L654 488 ZM695 308 Q771 65 965 -13 Q937 -40 913 -79 Q717 16 635 278 Q584 43 341 -79 Q323 -46 291 -22 Q521 90 568 308 L372 308 L372 379 L578 379 Q583 424 583 488 L583 598 L402 598 L402 668 L583 668 L583 826 L654 826 L654 668 L878 668 L878 379 L948 379 L948 308 L695 308 Z" /><glyph glyph-name="" unicode="&#x5782;" d="M293 517 L293 415 L403 415 L403 346 L293 346 L293 243 L222 243 L222 346 L85 346 L85 415 L222 415 L222 517 L293 517 ZM787 414 L911 414 L911 346 L787 346 L787 242 L716 242 L716 346 L582 346 L582 414 L716 414 L716 516 L787 516 L787 414 ZM930 617 L930 549 L534 549 L534 207 L862 207 L862 139 L534 139 L534 20 L900 20 L900 -48 L97 -48 L97 20 L461 20 L461 139 L130 139 L130 207 L461 207 L461 549 L66 549 L66 617 L461 617 L461 717 Q299 705 136 702 Q133 734 118 765 Q592 781 816 828 L853 764 Q737 740 534 723 L534 617 L930 617 Z" /><glyph glyph-name="" unicode="&#x578b;" d="M890 385 Q890 328 852 313 Q819 301 703 301 Q698 332 678 369 Q775 366 800 369 Q819 369 819 387 L819 830 L890 830 L890 385 ZM703 447 L634 447 L634 780 L703 780 L703 447 ZM266 593 L389 593 L389 730 L266 730 L266 593 ZM261 527 Q239 369 111 288 Q89 319 62 340 Q170 406 192 527 L71 527 L71 593 L197 593 L197 730 L104 730 L104 796 L552 796 L552 730 L459 730 L459 593 L572 593 L572 527 L459 527 L459 313 L389 313 L389 527 L261 527 ZM949 27 L949 -43 L51 -43 L51 27 L468 27 L468 153 L154 153 L154 221 L468 221 L468 333 L543 333 L543 221 L845 221 L845 153 L543 153 L543 27 L949 27 Z" /><glyph glyph-name="" unicode="&#x57fa;" d="M535 14 L880 14 L880 -49 L126 -49 L126 14 L461 14 L461 119 L257 119 L257 180 L461 180 L461 264 L535 264 L535 180 L744 180 L744 119 L535 119 L535 14 ZM320 359 L683 359 L683 430 L320 430 L320 359 ZM320 678 L320 611 L683 611 L683 678 L320 678 ZM320 486 L683 486 L683 555 L320 555 L320 486 ZM739 296 Q829 190 964 142 Q938 121 915 85 Q762 148 661 296 L348 296 Q246 146 87 72 Q66 107 39 129 Q174 183 265 296 L49 296 L49 359 L247 359 L247 678 L95 678 L95 740 L247 740 L247 836 L320 836 L320 740 L683 740 L683 836 L758 836 L758 740 L908 740 L908 678 L758 678 L758 359 L951 359 L951 296 L739 296 Z" /><glyph glyph-name="" unicode="&#x5805;" d="M612 728 Q649 607 720 510 Q797 605 834 728 L612 728 ZM920 782 Q877 594 765 454 Q848 363 955 321 Q930 299 908 263 Q800 312 719 402 Q642 325 548 277 Q525 319 504 337 Q598 380 674 458 Q592 568 544 726 L552 728 L519 728 L519 797 L863 797 L875 799 L920 782 ZM162 354 L290 354 L290 447 L162 447 L162 354 ZM162 739 L162 653 L290 653 L290 739 L162 739 ZM418 597 L162 597 L162 503 L418 503 L418 597 ZM503 294 L94 294 L94 799 L484 799 L484 739 L356 739 L356 653 L485 653 L485 447 L356 447 L356 354 L503 354 L503 294 ZM535 19 L951 19 L951 -47 L50 -47 L50 19 L460 19 L460 139 L155 139 L155 203 L460 203 L460 279 L535 279 L535 203 L847 203 L847 139 L535 139 L535 19 Z" /><glyph glyph-name="" unicode="&#x584a;" d="M853 287 Q823 201 784 135 L885 146 Q872 180 848 225 L885 241 Q931 161 953 93 L913 72 L902 105 Q751 86 734 76 Q729 104 717 126 Q731 127 746 156 Q785 222 804 304 L853 287 ZM369 180 Q252 130 63 56 L39 131 L173 178 L173 524 L55 524 L55 594 L173 594 L173 825 L243 825 L243 594 L350 594 L350 524 L243 524 L243 205 Q303 226 356 247 L369 180 ZM459 389 L618 389 L618 503 L459 503 L459 389 ZM459 562 L618 562 L618 674 L459 674 L459 562 ZM847 674 L685 674 L685 562 L847 562 L847 674 ZM847 503 L685 503 L685 389 L847 389 L847 503 ZM880 -4 Q900 -4 907 10 Q913 23 915 72 Q940 55 973 48 Q968 -19 950 -42 Q932 -66 887 -66 L747 -66 Q688 -66 667 -47 Q647 -28 647 28 L647 328 L584 328 Q570 175 529 88 Q477 -23 365 -80 Q350 -47 320 -25 Q422 22 468 119 Q505 194 517 328 L393 328 L393 736 L496 736 Q523 804 530 841 L609 830 L566 736 L915 736 L915 328 L712 328 L712 28 Q712 7 719 2 Q727 -4 754 -4 L880 -4 Z" /><glyph glyph-name="" unicode="&#x5851;" d="M646 732 L646 649 L840 649 L840 732 L646 732 ZM840 504 L840 591 L646 591 Q645 554 638 504 L840 504 ZM626 446 Q597 332 524 262 Q504 282 465 297 Q579 403 579 621 L579 794 L910 794 L910 329 Q910 275 876 260 Q850 248 745 248 Q740 278 723 315 Q768 313 823 313 Q840 314 840 330 L840 446 L626 446 ZM258 638 L50 638 L50 700 L193 700 Q167 755 129 804 L182 828 Q233 768 252 719 L214 700 L329 700 Q371 767 397 828 L462 808 Q431 754 397 700 L531 700 L531 638 L325 638 L325 518 Q325 493 322 466 L433 466 L433 594 L496 594 L496 378 L433 378 L433 405 L307 405 Q268 294 128 231 Q112 260 82 282 Q197 330 233 405 L89 405 L89 594 L151 594 L151 466 L254 466 Q258 490 258 519 L258 638 ZM951 23 L951 -43 L50 -43 L50 23 L460 23 L460 134 L153 134 L153 199 L460 199 L460 261 L535 261 L535 199 L847 199 L847 134 L535 134 L535 23 L951 23 Z" /><glyph glyph-name="" unicode="&#x586b;" d="M344 181 Q150 97 65 63 L37 137 Q72 147 156 179 L156 527 L44 527 L44 598 L156 598 L156 825 L228 825 L228 598 L340 598 L340 527 L228 527 L228 207 Q269 221 331 247 L344 181 ZM599 66 Q503 -13 366 -77 Q357 -62 320 -25 Q462 39 535 108 L599 66 ZM744 109 Q873 36 942 -25 L893 -77 Q821 -10 698 64 L744 109 ZM491 175 L798 175 L798 242 L491 242 L491 175 ZM491 564 L491 500 L798 500 L798 564 L491 564 ZM798 455 L491 455 L491 396 L798 396 L798 455 ZM491 288 L798 288 L798 350 L491 350 L491 288 ZM957 175 L957 110 L336 110 L336 175 L425 175 L425 616 L572 616 Q581 656 586 683 L374 683 L374 744 L597 744 Q604 782 610 835 L689 830 L670 744 L930 744 L930 683 L656 683 Q648 651 638 616 L866 616 L866 175 L957 175 Z" /><glyph glyph-name="" unicode="&#x5883;" d="M897 700 L398 700 L398 763 L614 763 L586 829 L655 842 Q675 802 689 763 L897 763 L897 700 ZM923 518 L368 518 L368 582 L509 582 Q501 625 478 678 L539 691 Q568 621 575 592 L538 582 L704 582 Q732 642 746 688 L815 673 L771 582 L923 582 L923 518 ZM354 171 Q224 118 62 56 L38 131 Q85 146 163 174 L163 524 L53 524 L53 594 L163 594 L163 825 L235 825 L235 594 L332 594 L332 524 L235 524 L235 200 L340 239 L354 171 ZM485 234 L799 234 L799 301 L485 301 L485 234 ZM485 350 L799 350 L799 415 L485 415 L485 350 ZM833 -5 Q860 -5 867 -1 Q880 2 885 20 Q887 36 889 105 Q914 84 949 73 Q945 -1 937 -24 Q924 -48 900 -55 Q876 -63 839 -63 L772 -63 Q725 -63 704 -46 Q679 -29 679 35 L679 183 L590 183 Q577 70 528 14 Q472 -49 341 -80 Q328 -48 302 -22 Q419 2 467 49 Q510 92 520 183 L416 183 L416 466 L870 466 L870 183 L749 183 L749 28 Q749 3 758 0 Q766 -5 785 -5 L833 -5 Z" /><glyph glyph-name="" unicode="&#x589e;" d="M333 235 L346 169 Q151 90 69 58 L45 132 Q66 138 164 173 L164 525 L57 525 L57 594 L164 594 L164 825 L233 825 L233 594 L332 594 L332 525 L233 525 L233 198 L333 235 ZM494 244 L494 161 L786 161 L786 244 L494 244 ZM786 31 L786 106 L494 106 L494 31 L786 31 ZM425 301 L857 301 L857 -74 L786 -74 L786 -27 L494 -27 L494 -74 L425 -74 L425 301 ZM505 834 Q557 773 577 723 L513 692 Q490 743 443 808 L505 834 ZM509 610 Q560 537 579 471 L534 451 Q516 520 466 594 L509 610 ZM689 466 Q737 537 767 610 L818 591 Q756 486 727 449 L689 466 ZM840 639 L668 639 L668 416 L840 416 L840 639 ZM435 416 L610 416 L610 639 L435 639 L435 416 ZM904 692 L904 363 L373 363 L373 692 L690 692 Q736 754 775 839 L851 812 Q801 736 767 692 L904 692 Z" /><glyph glyph-name="" unicode="&#x58d3;" d="M302 422 Q392 407 461 385 L446 349 Q390 368 287 390 L302 422 ZM272 368 Q272 339 269 307 Q402 334 484 354 L484 439 L272 439 L272 368 ZM777 499 Q822 311 949 254 Q920 230 905 201 Q797 261 743 420 Q709 288 581 205 Q562 228 543 243 Q539 223 516 214 Q494 206 401 206 Q396 222 382 249 Q423 248 470 248 Q484 249 484 262 L484 312 Q321 271 281 262 L267 293 Q259 237 231 198 Q208 221 180 232 Q213 277 213 370 L213 483 L544 483 L544 250 Q680 339 699 499 L565 499 L565 560 L702 560 L702 707 L759 707 L759 560 L927 560 L927 499 L777 499 ZM472 662 L285 662 L285 628 L472 628 L472 662 ZM472 592 L285 592 L285 556 L472 556 L472 592 ZM529 519 L230 519 L230 699 L529 699 L529 519 ZM871 572 Q844 620 787 674 L830 699 Q888 650 917 602 L871 572 ZM175 443 Q175 103 92 -55 Q80 -44 35 -20 Q109 124 109 442 L109 792 L932 792 L932 735 L175 735 L175 443 ZM594 8 L940 8 L940 -49 L167 -49 L167 8 L522 8 L522 88 L235 88 L235 145 L522 145 L522 199 L594 199 L594 145 L875 145 L875 88 L594 88 L594 8 Z" /><glyph glyph-name="" unicode="&#x5904;" d="M693 104 L615 104 L615 835 L693 835 L693 577 L718 590 Q866 435 933 326 L868 286 Q813 380 693 518 L693 104 ZM254 610 Q240 561 227 526 Q262 370 326 262 Q399 405 427 610 L254 610 ZM510 667 Q478 381 374 194 Q509 30 789 30 Q922 30 961 31 Q939 -4 931 -46 L785 -46 Q480 -46 334 129 Q240 -4 99 -77 Q66 -37 39 -20 Q193 55 286 195 Q225 293 188 428 Q155 358 116 305 Q83 333 56 346 Q178 506 223 833 L300 813 Q291 755 272 679 L447 679 L461 682 L510 667 Z" /><glyph glyph-name="" unicode="&#x5916;" d="M247 614 Q226 554 199 500 Q304 412 364 345 Q413 465 438 614 L247 614 ZM474 688 L525 671 Q452 117 107 -73 Q86 -39 46 -12 Q227 82 330 273 Q277 341 168 441 Q141 394 105 348 Q86 369 44 395 Q173 541 234 837 L307 823 Q287 735 271 684 L459 684 L474 688 ZM714 536 Q884 402 961 310 L902 259 Q841 337 687 467 L687 -76 L611 -76 L611 836 L687 836 L687 514 L714 536 Z" /><glyph glyph-name="" unicode="&#x591a;" d="M397 683 Q381 668 338 638 Q431 576 481 521 Q608 593 679 683 L397 683 ZM793 723 Q705 568 505 456 Q332 359 117 314 Q106 352 82 381 Q260 413 416 488 Q363 544 282 602 Q242 578 165 540 Q147 568 115 592 Q339 686 457 838 L538 821 Q515 792 473 750 L732 750 L745 753 L793 723 ZM560 332 Q529 305 467 264 Q551 204 615 138 Q756 217 830 332 L560 332 ZM941 373 Q764 -1 109 -79 Q98 -34 79 -7 Q355 20 546 104 Q493 161 406 228 Q326 185 249 155 Q229 191 202 210 Q485 312 619 492 L701 474 Q664 428 635 400 L876 400 L891 404 L941 373 Z" /><glyph glyph-name="" unicode="&#x5920;" d="M265 318 Q245 294 209 262 Q266 220 321 164 Q378 231 409 318 L265 318 ZM215 679 Q199 660 180 641 Q243 599 288 557 Q338 612 372 679 L215 679 ZM452 386 L497 366 Q409 39 84 -73 Q71 -43 45 -17 Q176 24 274 114 Q225 172 161 222 Q131 198 88 173 Q73 202 44 219 Q215 314 291 468 Q205 393 98 349 Q82 380 58 400 Q160 439 242 511 Q203 552 137 599 Q110 576 87 559 Q70 587 40 602 Q178 696 242 838 L309 826 Q289 787 260 741 L404 741 L417 744 L461 723 Q410 574 291 468 L360 456 Q340 419 316 383 L439 383 L452 386 ZM607 450 L607 222 L718 222 L718 450 L607 450 ZM607 161 L607 85 L545 85 L545 512 L780 512 L780 161 L607 161 ZM931 689 Q931 660 930 650 Q920 27 882 -27 Q857 -63 812 -67 Q777 -72 691 -68 Q689 -26 669 5 Q719 1 782 1 Q804 0 816 18 Q847 58 858 623 L593 623 Q545 522 486 451 Q447 484 428 497 Q540 618 597 834 L668 818 Q654 770 623 689 L931 689 Z" /><glyph glyph-name="" unicode="&#x2f24;&#x5927;" d="M562 475 Q679 108 955 -5 Q922 -36 899 -75 Q629 53 501 420 Q413 67 102 -75 Q83 -40 46 -14 Q358 122 435 475 L66 475 L66 551 L447 551 Q460 639 462 835 L542 835 Q540 654 526 551 L939 551 L939 475 L562 475 Z" /><glyph glyph-name="" unicode="&#x5929;" d="M554 379 Q665 78 962 -7 Q935 -33 912 -74 Q624 22 501 323 Q420 60 93 -75 Q79 -44 45 -13 Q369 119 434 379 L70 379 L70 454 L449 454 Q455 501 455 567 L455 684 L105 684 L105 759 L891 759 L891 684 L532 684 L532 566 Q532 502 527 454 L934 454 L934 379 L554 379 Z" /><glyph glyph-name="" unicode="&#x592a;" d="M568 497 Q681 112 966 -10 Q937 -34 910 -78 Q630 57 507 449 Q470 277 383 155 L412 175 Q542 69 607 -16 L544 -65 Q485 17 361 125 Q260 -3 96 -76 Q75 -39 41 -15 Q369 123 437 497 L64 497 L64 572 L449 572 Q458 646 460 836 L539 836 Q537 665 526 572 L940 572 L940 497 L568 497 Z" /><glyph glyph-name="" unicode="&#x593e;" d="M315 586 Q298 517 275 459 Q375 376 410 333 L367 279 Q330 326 248 399 Q192 289 112 220 Q88 244 56 268 Q195 376 245 599 L315 586 ZM886 237 Q836 299 724 396 Q682 312 623 259 Q610 270 568 294 Q664 78 955 -9 Q929 -35 908 -77 Q719 -16 604 114 Q523 205 497 302 Q473 206 393 114 Q279 -15 92 -77 Q69 -41 43 -16 Q267 53 378 207 Q458 318 458 424 L458 626 L59 626 L59 698 L458 698 L458 832 L537 832 L537 698 L942 698 L942 626 L537 626 L537 424 Q537 366 565 301 Q681 399 716 597 L786 587 Q771 510 751 457 Q884 347 935 289 L886 237 Z" /><glyph glyph-name="" unicode="&#x5957;" d="M426 673 Q386 622 327 569 L688 569 Q628 621 585 673 L426 673 ZM333 510 L333 447 L744 447 L744 394 L333 394 L333 330 L744 330 L744 277 L333 277 L333 210 L936 210 L936 147 L412 147 Q348 80 271 24 L702 43 Q686 61 632 112 L693 143 Q818 32 876 -39 L811 -76 Q788 -47 754 -11 Q196 -41 166 -52 Q155 -7 143 18 Q168 22 203 49 Q257 86 314 147 L64 147 L64 210 L258 210 L258 513 Q181 458 87 415 Q69 447 40 469 Q219 546 335 673 L71 673 L71 737 L387 737 Q421 786 445 837 L522 823 Q496 771 473 737 L932 737 L932 673 L667 673 Q797 544 962 480 Q933 455 913 422 Q828 461 739 529 L739 510 L333 510 Z" /><glyph glyph-name="" unicode="&#x597d;" d="M200 544 Q178 433 148 318 Q222 262 264 225 Q330 362 334 552 L200 544 ZM405 556 Q399 333 321 177 Q408 101 446 56 L398 -6 Q360 40 283 112 Q213 6 97 -79 Q79 -53 45 -28 Q159 53 228 161 Q155 226 67 293 Q93 378 128 540 L49 536 L41 607 L141 611 Q162 722 173 834 L246 830 Q236 742 213 614 L335 621 L335 694 L405 694 L405 625 L463 628 L462 560 L405 556 ZM956 344 L736 344 L736 12 Q736 -49 694 -65 Q656 -79 537 -77 Q531 -46 510 -6 Q605 -9 639 -7 Q661 -7 661 12 L661 344 L430 344 L430 415 L661 415 L661 529 Q731 587 807 694 L474 694 L474 763 L858 763 L875 767 L926 730 Q842 604 736 511 L736 415 L956 415 L956 344 Z" /><glyph glyph-name="" unicode="&#x5982;" d="M224 574 Q197 436 165 315 Q219 275 297 211 Q387 354 387 585 L224 574 ZM460 659 L503 661 L502 592 L460 589 L460 584 Q460 324 356 162 Q436 90 480 42 L425 -16 Q385 32 312 101 Q225 -4 91 -77 Q71 -44 39 -21 Q175 53 255 152 Q173 225 82 293 Q113 390 149 570 L46 563 L37 637 L163 643 Q183 775 188 833 L265 828 Q258 771 238 647 L387 655 L387 704 L460 704 L460 659 ZM827 94 L827 658 L611 658 L611 94 L827 94 ZM900 729 L900 -37 L827 -37 L827 23 L611 23 L611 -51 L540 -51 L540 729 L900 729 Z" /><glyph glyph-name="" unicode="&#x59a5;" d="M866 761 Q589 702 112 687 Q111 712 95 750 Q591 772 829 824 L866 761 ZM646 471 Q734 589 787 706 L860 673 Q771 520 709 440 L646 471 ZM485 480 Q473 564 421 666 L487 685 Q544 584 557 500 L485 480 ZM235 445 Q209 534 136 634 L200 659 Q274 559 303 473 L235 445 ZM381 299 Q350 250 313 201 Q459 158 547 128 Q633 193 681 299 L381 299 ZM763 299 Q711 177 627 100 Q803 38 920 -20 L862 -78 Q739 -15 561 50 Q409 -46 128 -77 Q115 -38 95 -12 Q338 12 474 81 Q363 120 198 167 Q244 221 297 299 L58 299 L58 367 L339 367 Q375 426 405 490 L479 473 Q460 430 424 367 L708 367 Q713 381 726 432 L799 415 L786 367 L939 367 L939 299 L763 299 Z" /><glyph glyph-name="" unicode="&#x59cb;" d="M203 548 Q179 436 145 316 Q177 293 251 233 Q308 363 310 554 L203 548 ZM378 559 Q376 334 307 187 Q394 110 423 75 L377 16 Q336 65 273 122 Q200 8 85 -76 Q65 -47 34 -27 Q151 56 219 170 Q138 238 67 293 Q96 376 135 543 L47 538 L39 606 L149 611 Q173 735 185 833 L254 828 Q243 747 218 615 L310 620 L310 695 L378 695 L378 623 L425 626 L424 562 L378 559 ZM532 260 L532 33 L831 33 L831 260 L532 260 ZM463 327 L902 327 L902 -75 L831 -75 L831 -33 L532 -33 L532 -77 L463 -77 L463 327 ZM797 692 Q912 547 966 413 L902 381 Q884 426 871 451 Q465 420 435 407 Q426 442 410 478 Q433 483 474 542 Q564 664 633 838 L709 815 Q621 627 525 495 L836 515 Q794 589 739 664 L797 692 Z" /><glyph glyph-name="" unicode="&#x5a92;" d="M181 552 Q153 409 129 310 Q171 275 224 227 Q276 357 278 558 L181 552 ZM341 3 Q306 50 243 116 Q184 9 83 -72 Q59 -41 34 -27 Q136 54 195 164 Q136 222 59 288 Q89 390 118 548 L47 544 L39 613 L130 617 Q149 749 157 833 L222 830 Q215 756 193 621 L278 625 L278 696 L341 696 L341 628 L391 631 L391 566 L341 562 Q339 330 274 180 Q351 104 385 60 L341 3 ZM588 160 Q530 14 425 -61 Q406 -31 375 -8 Q478 54 533 179 L588 160 ZM545 426 L782 426 L782 517 L545 517 L545 426 ZM545 663 L545 575 L782 575 L782 663 L545 663 ZM703 211 L703 -77 L631 -77 L631 211 L390 211 L390 275 L631 275 L631 364 L477 364 L477 663 L388 663 L388 728 L477 728 L477 837 L545 837 L545 728 L782 728 L782 837 L853 837 L853 728 L942 728 L942 663 L853 663 L853 364 L703 364 L703 275 L942 275 L942 211 L703 211 ZM802 179 Q905 54 952 -27 L894 -55 Q847 29 748 155 L802 179 Z" /><glyph glyph-name="" unicode="&#x2f26;&#x5b50;" d="M950 320 L542 320 L542 22 Q542 -47 491 -62 Q451 -76 295 -76 Q286 -38 263 0 Q372 -4 439 -1 Q466 0 466 23 L466 320 L54 320 L54 394 L466 394 L466 538 Q599 599 716 696 L153 696 L153 769 L797 769 L813 773 L869 731 Q734 598 542 500 L542 394 L950 394 L950 320 Z" /><glyph glyph-name="" unicode="&#x5b57;" d="M156 528 L83 528 L83 732 L477 732 Q453 782 425 820 L496 844 Q541 785 563 732 L916 732 L916 528 L840 528 L840 661 L156 661 L156 528 ZM926 230 L538 230 L538 15 Q538 -48 492 -62 Q454 -75 322 -75 Q311 -35 288 -2 Q399 -5 437 -3 Q461 -2 461 16 L461 230 L71 230 L71 301 L461 301 L461 363 Q552 407 635 480 L235 480 L235 550 L710 550 L726 554 L777 515 Q673 409 538 338 L538 301 L926 301 L926 230 Z" /><glyph glyph-name="" unicode="&#x5b58;" d="M394 635 Q340 512 265 409 L265 -75 L192 -75 L192 322 Q131 257 73 218 Q57 254 35 285 Q203 402 313 635 L67 635 L67 707 L343 707 Q369 773 387 837 L463 819 Q440 748 424 707 L935 707 L935 635 L394 635 ZM954 197 L687 197 L687 12 Q687 -50 645 -65 Q612 -76 472 -76 Q466 -45 448 -5 Q557 -10 591 -6 Q613 -5 613 13 L613 197 L337 197 L337 267 L613 267 L613 349 Q681 385 760 455 L421 455 L421 523 L828 523 L843 528 L891 490 Q809 400 687 325 L687 267 L954 267 L954 197 Z" /><glyph glyph-name="" unicode="&#x5b78;" d="M577 489 Q559 508 505 547 Q462 513 405 482 Q394 498 364 521 Q411 542 459 576 Q428 595 387 615 L424 648 Q439 641 501 608 Q533 636 551 661 L603 644 Q578 611 545 580 Q593 549 617 525 L577 489 ZM575 667 Q550 690 506 718 Q453 679 413 658 Q397 676 371 694 Q412 713 460 745 Q433 762 390 781 L426 814 Q454 802 501 777 Q527 800 548 826 L600 812 Q576 781 545 751 Q590 723 614 704 L575 667 ZM149 300 L78 300 L78 481 L158 481 L138 778 Q213 791 331 827 L365 781 Q311 761 210 742 L214 693 L359 693 L359 642 L217 642 L221 588 L363 588 L363 537 L224 537 L228 481 L776 481 L782 537 L637 537 L637 588 L786 588 L791 642 L643 642 L643 693 L794 693 L797 747 L638 747 L638 798 L869 798 Q861 633 847 481 L925 481 L925 300 L852 300 L852 424 L149 424 L149 300 ZM945 118 L545 118 L545 3 Q545 -50 506 -64 Q477 -74 345 -74 Q340 -51 319 -11 Q381 -13 452 -13 Q473 -12 473 5 L473 118 L56 118 L56 181 L473 181 L473 224 Q555 253 632 300 L241 300 L241 356 L711 356 L726 360 L771 323 Q683 255 545 199 L545 181 L945 181 L945 118 Z" /><glyph glyph-name="" unicode="&#x5b83;" d="M719 21 Q777 21 795 50 Q811 77 819 178 Q853 156 893 147 Q882 28 850 -11 Q816 -52 720 -52 L411 -52 Q305 -52 267 -25 Q229 3 229 83 L229 532 L305 532 L305 306 Q586 383 725 461 L786 403 Q624 322 305 239 L305 83 Q305 45 325 33 Q344 21 410 21 L719 21 ZM906 702 L906 496 L830 496 L830 630 L163 630 L163 496 L90 496 L90 702 L483 702 Q464 760 426 824 L498 844 Q548 761 566 706 L553 702 L906 702 Z" /><glyph glyph-name="" unicode="&#x5b87;" d="M148 513 L75 513 L75 730 L467 730 Q442 786 427 812 L499 834 Q528 791 553 730 L923 730 L923 513 L848 513 L848 661 L148 661 L148 513 ZM928 247 L543 247 L543 22 Q543 -42 494 -58 Q455 -72 309 -72 Q302 -42 278 2 Q314 1 440 1 Q466 2 466 23 L466 247 L74 247 L74 318 L466 318 L466 475 L210 475 L210 545 L786 545 L786 475 L543 475 L543 318 L928 318 L928 247 Z" /><glyph glyph-name="" unicode="&#x5b8c;" d="M159 503 L86 503 L86 722 L472 722 Q449 777 422 824 L496 845 Q538 778 560 722 L912 722 L912 503 L836 503 L836 651 L159 651 L159 503 ZM229 476 L229 545 L768 545 L768 476 L229 476 ZM838 8 Q866 8 875 31 Q883 54 886 140 Q910 121 954 111 Q947 7 926 -27 Q904 -61 845 -61 L692 -61 Q624 -61 601 -40 Q578 -19 578 41 L578 290 L402 290 Q390 124 332 48 Q264 -40 87 -78 Q76 -44 48 -16 Q208 15 267 87 Q317 148 327 290 L61 290 L61 361 L939 361 L939 290 L652 290 L652 42 Q652 20 661 14 Q669 8 700 8 L838 8 Z" /><glyph glyph-name="" unicode="&#x5b98;" d="M278 169 L278 35 L754 35 L754 169 L278 169 ZM278 520 L278 396 L720 396 L720 520 L278 520 ZM278 235 L829 235 L829 -71 L754 -71 L754 -32 L278 -32 L278 -76 L204 -76 L204 585 L793 585 L793 331 L278 331 L278 235 ZM921 741 L921 564 L844 564 L844 671 L152 671 L152 564 L79 564 L79 741 L482 741 Q465 793 448 825 L522 842 Q548 794 566 741 L921 741 Z" /><glyph glyph-name="" unicode="&#x5b99;" d="M535 394 L535 255 L765 255 L765 394 L535 394 ZM765 41 L765 190 L535 190 L535 41 L765 41 ZM240 41 L462 41 L462 190 L240 190 L240 41 ZM240 394 L240 255 L462 255 L462 394 L240 394 ZM535 463 L839 463 L839 -75 L765 -75 L765 -28 L240 -28 L240 -75 L167 -75 L167 463 L462 463 L462 613 L535 613 L535 463 ZM911 722 L911 514 L836 514 L836 653 L162 653 L162 514 L89 514 L89 722 L474 722 Q451 779 426 820 L502 843 Q542 777 564 722 L911 722 Z" /><glyph glyph-name="" unicode="&#x5b9a;" d="M158 507 L85 507 L85 724 L473 724 Q454 773 427 822 L499 843 Q539 775 558 724 L914 724 L914 507 L839 507 L839 653 L158 653 L158 507 ZM537 26 Q602 13 701 13 Q908 13 956 15 Q936 -17 928 -60 L697 -60 Q526 -60 429 -21 Q313 26 249 146 Q197 4 100 -80 Q74 -50 40 -29 Q191 87 227 378 L301 370 Q293 306 278 241 Q330 96 461 46 L461 459 L213 459 L213 530 L792 530 L792 459 L537 459 L537 296 L833 296 L833 226 L537 226 L537 26 Z" /><glyph glyph-name="" unicode="&#x5ba2;" d="M153 559 L80 559 L80 747 L478 747 Q447 805 433 827 L505 845 Q534 802 563 747 L919 747 L919 559 L844 559 L844 678 L153 678 L153 559 ZM737 229 Q604 268 501 324 Q395 267 278 229 L737 229 ZM700 21 L700 166 L305 166 L305 21 L700 21 ZM353 524 Q408 460 502 403 Q602 465 659 528 L357 528 L353 524 ZM773 558 Q702 451 574 367 Q741 289 961 261 Q939 239 914 191 Q849 199 775 219 L775 -75 L700 -75 L700 -43 L305 -43 L305 -76 L233 -76 L233 214 Q171 195 75 175 Q61 213 39 240 Q253 277 432 365 Q355 419 301 480 Q230 425 145 383 Q124 416 95 436 Q288 522 379 660 L459 646 Q451 634 413 587 L710 587 L723 590 L773 558 Z" /><glyph glyph-name="" unicode="&#x5ba3;" d="M156 552 L84 552 L84 744 L469 744 Q443 797 429 820 L501 842 Q529 799 553 744 L916 744 L916 552 L842 552 L842 677 L156 677 L156 552 ZM793 526 L205 526 L205 588 L793 588 L793 526 ZM293 146 L701 146 L701 243 L293 243 L293 146 ZM293 299 L701 299 L701 394 L293 394 L293 299 ZM221 87 L221 453 L774 453 L774 87 L221 87 ZM934 19 L934 -49 L64 -49 L64 19 L934 19 Z" /><glyph glyph-name="" unicode="&#x5bb6;" d="M159 543 L87 543 L87 748 L462 748 Q444 789 425 821 L501 843 Q533 794 550 748 L919 748 L919 543 L844 543 L844 679 L159 679 L159 543 ZM849 432 Q783 377 695 319 Q772 99 961 26 Q932 0 913 -35 Q724 50 637 282 Q615 267 590 254 Q615 160 601 74 Q587 -8 545 -40 Q504 -75 443 -75 Q421 -75 357 -73 Q357 -38 338 -3 Q398 -8 428 -8 Q470 -8 492 13 Q546 52 531 185 Q350 47 103 -29 Q90 3 64 34 Q347 99 517 254 Q504 298 490 324 Q333 216 119 150 Q100 187 81 208 Q312 263 460 374 Q442 403 412 433 Q293 366 124 315 Q110 345 83 374 Q306 427 440 519 L212 519 L212 584 L787 584 L787 519 L539 519 Q508 492 468 466 Q538 396 570 313 Q695 393 788 480 L849 432 Z" /><glyph glyph-name="" unicode="&#x5bb9;" d="M158 564 L86 564 L86 745 L474 745 Q455 790 434 826 L510 844 Q544 787 561 745 L914 745 L914 564 L839 564 L839 677 L158 677 L158 564 ZM635 629 Q812 524 896 437 L844 388 Q754 483 586 587 L635 629 ZM402 607 Q303 477 144 386 Q114 424 92 442 Q245 519 333 630 L402 607 ZM717 257 Q597 332 502 436 Q417 338 299 257 L717 257 ZM704 23 L704 190 L294 190 L294 23 L704 23 ZM560 514 L541 488 Q684 326 955 219 Q925 191 907 156 Q847 182 779 220 L779 -74 L704 -74 L704 -44 L294 -44 L294 -78 L222 -78 L222 209 Q156 171 88 144 Q68 177 41 204 Q350 319 495 543 L560 514 Z" /><glyph glyph-name="" unicode="&#x5bc6;" d="M153 557 L80 557 L80 751 L468 751 Q457 799 443 835 L513 847 Q533 801 545 751 L922 751 L922 557 L847 557 L847 684 L153 684 L153 557 ZM525 516 Q466 575 353 626 L392 669 Q505 620 564 564 L525 516 ZM245 524 Q177 393 111 338 L51 374 Q131 435 184 552 L245 524 ZM437 283 Q346 283 323 309 Q208 260 85 225 Q64 262 41 287 Q191 325 304 373 L304 567 L371 567 L371 403 Q581 505 686 636 L750 605 Q628 457 402 346 Q412 344 441 344 L643 344 Q679 344 690 363 Q700 382 704 455 Q728 437 766 429 Q758 341 736 312 Q713 283 648 283 L437 283 ZM770 206 L843 206 L843 -75 L770 -75 L770 -32 L164 -32 L164 198 L237 198 L237 39 L461 39 L461 251 L535 251 L535 39 L770 39 L770 206 ZM782 547 Q901 443 952 364 L895 323 Q847 406 729 510 L782 547 Z" /><glyph glyph-name="" unicode="&#x5be6;" d="M153 591 L85 591 L85 750 L470 750 Q455 782 426 824 L489 844 Q522 805 548 750 L918 750 L918 591 L847 591 L847 689 L153 689 L153 591 ZM258 105 L746 105 L746 152 L258 152 L258 105 ZM258 195 L746 195 L746 241 L258 241 L258 195 ZM258 283 L746 283 L746 328 L258 328 L258 283 ZM606 61 Q785 16 917 -31 L868 -79 Q729 -26 564 18 L601 61 L381 61 L440 22 Q315 -45 113 -78 Q100 -55 73 -26 Q273 4 377 61 L186 61 L186 372 L820 372 L820 61 L606 61 ZM711 458 L715 507 L529 507 L524 458 L711 458 ZM273 458 L460 458 L466 507 L279 507 L273 458 ZM290 598 L284 552 L470 552 L473 598 L290 598 ZM722 598 L536 598 L532 552 L718 552 L722 598 ZM951 558 L951 501 L784 501 L776 414 L199 414 L211 501 L52 501 L52 558 L218 558 L229 642 L796 642 L789 558 L951 558 Z" /><glyph glyph-name="" unicode="&#x5beb;" d="M174 -22 Q228 39 267 155 L326 131 Q282 6 234 -51 L174 -22 ZM427 147 Q463 48 463 -26 L402 -35 Q404 38 369 140 L427 147 ZM548 155 Q600 76 616 4 L559 -14 Q542 63 494 140 L548 155 ZM894 247 L892 216 Q877 -16 845 -48 Q824 -72 783 -74 Q747 -78 661 -73 Q657 -34 640 -8 Q715 -14 751 -12 Q776 -13 785 -4 Q806 20 818 186 L280 186 Q199 119 91 70 Q71 103 47 129 Q224 198 315 311 L197 311 L197 593 Q348 624 430 658 L476 611 Q400 582 264 554 L264 487 L458 487 L458 434 L264 434 L264 365 L734 365 L734 434 L544 434 L544 487 L734 487 L734 553 L527 553 L527 608 L802 608 L802 311 L397 311 Q371 273 345 247 L894 247 ZM704 29 Q680 82 620 142 L669 165 Q732 108 756 56 L704 29 ZM923 755 L923 580 L852 580 L852 690 L147 690 L147 579 L78 579 L78 755 L460 755 Q450 779 427 820 L501 841 Q525 801 546 755 L923 755 Z" /><glyph glyph-name="" unicode="&#x5bec;" d="M143 583 L75 583 L75 752 L473 752 Q452 800 434 828 L515 841 Q544 794 562 752 L927 752 L927 583 L857 583 L857 694 L143 694 L143 583 ZM634 672 L634 613 L817 613 L817 558 L634 558 L634 505 L564 505 L564 672 L634 672 ZM731 128 Q800 78 835 35 L778 12 Q744 58 676 108 L731 128 ZM380 505 L380 560 L184 560 L184 614 L380 614 L380 673 L449 673 L449 505 L380 505 ZM263 184 L743 184 L743 239 L263 239 L263 184 ZM263 284 L743 284 L743 338 L263 338 L263 284 ZM263 383 L743 383 L743 437 L263 437 L263 383 ZM833 -10 Q862 -10 871 12 Q879 34 882 114 Q913 96 944 89 Q939 -3 919 -34 Q898 -65 840 -65 L675 -65 Q607 -65 583 -48 Q559 -31 559 17 L559 135 L422 135 Q395 45 322 -2 Q246 -52 84 -77 Q73 -44 48 -17 Q190 1 257 37 Q320 71 342 135 L192 135 L192 486 L817 486 L817 135 L632 135 L632 19 Q632 1 641 -4 Q651 -10 683 -10 L833 -10 Z" /><glyph glyph-name="" unicode="&#x2f28;&#x5bf8;" d="M232 452 Q368 316 418 203 L352 161 Q297 282 169 415 L232 452 ZM945 552 L711 552 L711 35 Q711 -46 653 -63 Q606 -78 429 -78 Q420 -38 396 5 Q534 1 601 3 Q633 4 633 34 L633 552 L55 552 L55 625 L633 625 L633 836 L711 836 L711 625 L945 625 L945 552 Z" /><glyph glyph-name="" unicode="&#x5bfc;" d="M215 732 L215 627 L751 627 L751 732 L215 732 ZM350 394 Q226 394 184 416 Q139 439 139 507 L139 797 L824 797 L824 561 L215 561 L215 508 Q215 476 239 466 Q264 456 345 456 L743 456 Q803 456 822 472 Q841 488 847 543 Q875 527 918 519 Q908 443 875 419 Q841 394 747 394 L350 394 ZM941 222 L722 222 L722 13 Q722 -49 675 -62 Q640 -73 484 -73 Q478 -42 458 -6 Q561 -10 622 -7 Q647 -7 647 14 L647 222 L272 222 Q385 128 431 53 L376 4 Q327 90 214 184 L258 222 L65 222 L65 291 L647 291 L647 368 L722 368 L722 291 L942 291 L941 222 Z" /><glyph glyph-name="" unicode="&#x5c07;" d="M273 835 L342 835 L342 -77 L273 -77 L273 272 L164 272 L164 248 Q164 39 92 -79 Q67 -53 35 -43 Q98 62 98 250 L98 272 L44 272 L44 338 L273 338 L273 485 L86 485 L86 797 L152 797 L152 550 L273 550 L273 835 ZM600 697 L599 696 Q682 627 726 567 Q793 628 830 697 L600 697 ZM921 732 Q804 441 415 334 Q404 361 378 389 Q550 430 679 528 Q633 595 553 662 Q485 615 406 579 Q385 602 360 625 Q552 703 646 837 L718 816 Q695 785 661 752 L863 752 L876 755 L921 732 ZM595 513 L392 484 L379 540 Q412 543 591 565 L595 513 ZM505 236 Q593 155 637 76 L576 38 Q540 110 448 202 L505 236 ZM954 260 L825 260 L825 21 Q825 -38 786 -54 Q754 -67 628 -67 Q623 -32 604 4 Q690 1 733 4 Q754 4 754 22 L754 260 L376 260 L376 326 L754 326 L754 467 L825 467 L825 326 L954 326 L954 260 Z" /><glyph glyph-name="" unicode="&#x5c08;" d="M534 318 L723 321 Q679 341 647 352 L671 373 L534 373 L534 318 ZM462 423 L462 485 L226 485 L226 423 L462 423 ZM226 533 L462 533 L462 593 L226 593 L226 533 ZM534 593 L534 533 L777 533 L777 593 L534 593 ZM777 485 L534 485 L534 423 L777 423 L777 485 ZM951 146 L713 146 L713 3 Q713 -52 673 -65 Q642 -76 512 -76 Q507 -47 488 -12 Q586 -15 621 -13 Q641 -12 641 5 L641 146 L262 146 Q367 86 426 23 L373 -26 Q316 37 208 104 L257 146 L50 146 L50 207 L641 207 L641 269 Q357 261 92 257 L89 315 Q248 315 462 318 L462 373 L156 373 L156 644 L462 644 L462 700 L79 700 L79 760 L462 760 L462 835 L534 835 L534 760 L911 760 L911 700 L534 700 L534 644 L850 644 L850 373 L734 373 Q844 329 913 276 L869 234 Q846 252 812 274 L713 271 L713 207 L951 207 L951 146 Z" /><glyph glyph-name="" unicode="&#x5c0a;" d="M301 403 L707 403 L707 357 L301 357 L301 403 ZM217 306 L781 306 L781 453 L639 453 Q584 453 566 466 Q548 479 548 519 L548 559 L444 559 Q429 455 272 413 Q260 437 236 461 Q365 485 378 559 L217 559 L217 306 ZM445 608 L548 608 L548 668 L445 668 L445 608 ZM612 559 L612 519 Q612 505 619 500 Q625 496 647 496 L757 496 Q779 496 781 501 L781 559 L612 559 ZM951 133 L719 133 L719 7 Q719 -51 678 -65 Q645 -76 514 -76 Q510 -52 489 -9 Q589 -12 626 -10 Q646 -9 646 8 L646 133 L277 133 Q388 65 444 12 L397 -40 Q336 22 229 89 L272 133 L50 133 L50 195 L646 195 L646 257 L149 257 L149 608 L380 608 L380 668 L70 668 L70 728 L311 728 Q275 780 243 812 L304 839 Q363 775 386 737 L367 728 L617 728 Q659 791 681 838 L756 815 Q722 766 691 728 L927 728 L927 668 L612 668 L612 608 L852 608 L852 257 L719 257 L719 195 L951 195 L951 133 Z" /><glyph glyph-name="" unicode="&#x5c0b;" d="M746 634 L103 634 L103 684 L746 684 L746 744 L164 744 L164 797 L819 797 L819 684 L893 684 L893 634 L819 634 L819 520 L159 520 L159 574 L746 574 L746 634 ZM68 304 L233 315 L233 414 L89 414 L89 470 L452 470 L452 414 L303 414 L303 320 L471 333 L471 277 L75 245 L68 304 ZM590 320 L819 320 L819 418 L590 418 L590 320 ZM951 141 L745 141 L745 5 Q745 -52 704 -66 Q672 -77 533 -77 Q530 -54 508 -11 Q614 -14 651 -12 Q673 -11 673 6 L673 141 L276 141 Q373 85 425 27 L372 -21 Q321 42 214 105 L257 141 L50 141 L50 205 L673 205 L673 268 L520 268 L520 470 L892 470 L892 268 L745 268 L745 205 L951 205 L951 141 Z" /><glyph glyph-name="" unicode="&#x5c0d;" d="M336 72 L546 101 L548 35 Q425 17 60 -34 L49 37 Q170 51 266 64 L266 182 L108 182 L108 244 L266 244 L266 346 L83 346 L83 409 L341 409 Q385 487 408 552 L474 528 Q433 450 408 409 L520 409 L520 346 L336 346 L336 244 L499 244 L499 182 L336 182 L336 72 ZM189 555 Q247 494 267 442 L212 411 Q191 464 136 528 L189 555 ZM950 499 L854 499 L854 16 Q854 -45 813 -63 Q779 -77 656 -77 Q649 -42 629 -6 Q725 -9 758 -7 Q782 -6 782 16 L782 499 L545 499 L545 558 L49 558 L49 622 L202 622 L202 673 L155 641 Q124 706 63 774 L110 804 Q174 738 202 679 L202 836 L262 836 L262 622 L339 622 L339 836 L400 836 L400 674 Q456 741 491 803 L551 770 Q484 684 440 639 L400 663 L400 622 L550 622 L550 569 L782 569 L782 833 L854 833 L854 569 L950 569 L950 499 ZM661 170 Q644 272 573 399 L635 421 Q709 294 727 195 L661 170 Z" /><glyph glyph-name="" unicode="&#x5c0e;" d="M781 601 L447 601 L447 555 L781 555 L781 601 ZM781 516 L447 516 L447 470 L781 470 L781 516 ZM781 431 L447 431 L447 384 L781 384 L781 431 ZM548 641 Q555 657 567 691 L311 691 L311 745 L477 745 Q462 781 432 820 L492 839 Q532 790 546 749 L533 745 L694 745 Q727 796 746 836 L816 821 Q784 772 764 745 L930 745 L930 691 L640 691 Q625 661 613 641 L853 641 L853 344 L377 344 L377 641 L548 641 ZM144 712 Q139 726 124 763 Q108 802 102 819 L163 837 Q201 755 207 735 L144 712 ZM737 182 L938 182 L938 123 L737 123 L737 1 Q737 -54 697 -68 Q669 -78 533 -78 Q530 -58 509 -14 Q595 -18 644 -15 Q665 -14 665 2 L665 123 L272 123 Q372 63 419 9 L365 -38 Q322 19 219 82 L269 123 L59 123 L59 182 L665 182 L665 236 L737 236 L737 182 ZM302 550 Q271 457 223 384 L303 340 Q371 304 561 304 Q804 304 959 323 Q940 279 939 253 Q774 242 560 242 Q367 242 289 284 Q210 329 204 329 Q170 329 95 231 L54 289 Q94 332 135 361 L134 361 Q187 419 218 505 L82 505 Q121 565 164 651 L50 651 L50 708 L263 708 Q229 639 184 562 L254 562 L264 565 L302 550 Z" /><glyph glyph-name="" unicode="&#x2f29;&#x5c0f;" d="M544 822 L544 27 Q544 -44 494 -63 Q450 -78 303 -76 Q294 -37 272 1 Q375 -3 436 0 Q465 0 465 27 L465 822 L544 822 ZM774 597 Q931 347 971 156 L893 123 Q853 319 704 570 L774 597 ZM286 575 Q221 282 106 140 Q72 165 36 179 Q156 320 204 590 L286 575 Z" /><glyph glyph-name="" unicode="&#x5c11;" d="M300 659 Q222 467 122 330 Q101 344 57 366 Q154 482 230 678 L300 659 ZM762 679 Q891 495 948 375 L886 337 Q822 473 701 650 L762 679 ZM827 290 Q641 -3 73 -76 Q61 -37 37 -5 Q589 55 760 322 L827 290 ZM522 835 L522 224 L449 224 L449 835 L522 835 Z" /><glyph glyph-name="" unicode="&#x5c31;" d="M866 612 Q836 682 766 761 L816 789 Q888 713 919 645 L866 612 ZM511 647 L57 647 L57 713 L270 713 Q262 739 225 822 L293 837 Q329 769 346 713 L511 713 L511 647 ZM207 261 Q173 113 107 19 Q83 37 53 55 Q115 137 145 274 L207 261 ZM176 387 L401 387 L401 507 L176 507 L176 387 ZM328 327 L328 3 Q328 -45 298 -59 Q270 -72 190 -70 Q187 -43 169 -9 Q230 -11 247 -9 Q261 -9 261 4 L261 327 L111 327 L111 568 L470 568 L470 327 L328 327 ZM439 85 Q423 162 368 261 L421 285 Q479 187 495 111 L439 85 ZM716 511 Q679 94 491 -78 Q471 -52 437 -33 Q617 123 648 511 L520 511 L520 578 L653 578 Q657 642 659 834 L729 834 Q727 647 722 578 L950 578 L950 511 L716 511 ZM860 4 Q883 4 889 9 Q901 14 904 36 Q907 56 909 144 Q931 123 967 114 Q965 26 956 -4 Q948 -32 925 -43 Q906 -53 868 -53 L804 -53 Q763 -53 742 -36 Q719 -19 719 55 L719 432 L785 432 L785 47 Q785 14 793 9 Q803 4 817 4 L860 4 Z" /><glyph glyph-name="" unicode="&#x5c3a;" d="M259 471 L782 471 L782 715 L259 715 L259 471 ZM590 398 Q681 77 954 -8 Q925 -31 902 -75 Q613 30 515 398 L256 398 Q236 81 99 -81 Q68 -45 37 -28 Q182 141 182 508 L182 788 L858 788 L858 398 L590 398 Z" /><glyph glyph-name="" unicode="&#x5c3e;" d="M210 724 L210 613 L808 613 L808 724 L210 724 ZM210 548 L210 498 Q210 110 101 -75 Q73 -51 35 -37 Q137 134 137 497 L137 789 L882 789 L882 548 L210 548 ZM816 7 Q849 7 860 27 Q870 47 874 116 Q900 98 941 88 Q933 0 910 -30 Q886 -61 822 -61 L619 -61 Q541 -61 514 -38 Q486 -15 486 51 L486 122 L232 82 L220 144 L486 185 L486 276 L264 242 L253 304 L486 340 L486 425 Q371 405 279 394 Q274 420 258 448 Q578 490 724 545 L786 497 Q697 466 559 438 L559 350 L842 393 L853 333 L559 288 L559 196 L911 251 L923 190 L559 133 L559 51 Q559 23 571 15 Q584 7 625 7 L816 7 Z" /><glyph glyph-name="" unicode="&#x5c40;" d="M378 238 L378 103 L620 103 L620 238 L378 238 ZM378 42 L378 -16 L310 -16 L310 299 L689 299 L689 42 L378 42 ZM229 720 L229 594 L767 594 L767 720 L229 720 ZM910 443 L909 409 Q892 3 854 -41 Q832 -69 786 -73 Q737 -78 653 -72 Q651 -33 632 -3 Q696 -9 753 -9 Q778 -9 789 5 Q818 36 833 377 L222 377 Q197 102 91 -51 Q71 -23 32 -4 Q155 174 155 548 L155 784 L840 784 L840 529 L229 529 Q229 488 226 443 L910 443 Z" /><glyph glyph-name="" unicode="&#x5c64;" d="M381 167 L381 110 L772 110 L772 167 L381 167 ZM772 6 L772 64 L381 64 L381 6 L772 6 ZM309 217 L846 217 L846 -74 L772 -74 L772 -44 L381 -44 L381 -76 L309 -76 L309 217 ZM420 458 Q469 406 492 354 L445 327 Q418 383 374 435 L420 458 ZM647 350 Q684 398 715 459 L763 434 Q727 372 689 327 L647 350 ZM810 731 L213 731 L213 649 L810 649 L810 731 ZM670 522 Q703 564 715 589 L433 589 Q465 551 479 522 L670 522 ZM811 475 L604 475 L604 309 L811 309 L811 475 ZM332 309 L534 309 L534 475 L332 475 L332 309 ZM885 589 L727 589 L781 572 L743 522 L883 522 L883 262 L263 262 L263 522 L408 522 Q390 551 372 572 L418 589 L213 589 L213 501 Q213 114 101 -71 Q76 -48 36 -33 Q139 136 139 501 L139 791 L885 791 L885 589 Z" /><glyph glyph-name="" unicode="&#x5c6c;" d="M207 746 L207 679 L823 679 L823 746 L207 746 ZM207 505 Q207 117 107 -72 Q77 -48 43 -37 Q135 135 135 505 L135 798 L895 798 L895 627 L207 627 L207 505 ZM840 453 Q763 482 650 497 L663 535 Q787 521 859 494 L840 453 ZM856 585 Q789 558 679 545 L661 580 Q720 590 832 625 L856 585 ZM533 462 L533 610 L603 610 L603 462 L533 462 ZM262 498 Q337 511 492 540 L492 497 Q312 459 276 452 L262 498 ZM292 615 Q400 603 468 578 L450 536 Q388 562 278 578 L292 615 ZM762 -14 L785 -14 Q803 -14 810 -5 Q830 19 843 229 L552 229 L552 191 L742 191 L742 69 L687 69 Q744 22 767 -11 L762 -14 ZM552 28 L654 35 Q644 44 629 55 L656 69 L552 69 L552 28 ZM682 153 L552 153 L552 107 L682 107 L682 153 ZM488 107 L488 153 L355 153 L355 107 L488 107 ZM373 229 Q354 211 329 191 L488 191 L488 229 L373 229 ZM317 352 L441 352 L441 409 L317 409 L317 352 ZM500 352 L629 352 L629 409 L500 409 L500 352 ZM689 352 L820 352 L820 409 L689 409 L689 352 ZM913 276 Q912 257 911 249 Q898 -8 868 -42 Q850 -64 816 -67 Q785 -70 732 -67 Q730 -48 725 -34 L720 -37 Q717 -32 697 -8 L246 -45 L241 9 Q281 11 488 24 L488 69 L298 69 L298 167 L242 130 Q217 161 193 173 Q302 229 367 313 L255 313 L255 447 L884 447 L884 313 L444 313 L416 276 L913 276 Z" /><glyph glyph-name="" unicode="&#x5cf0;" d="M320 669 L374 669 L374 35 L320 35 L320 70 L74 70 L74 668 L128 668 L128 136 L194 136 L194 825 L257 825 L257 136 L320 136 L320 669 ZM585 678 Q625 614 683 565 Q748 623 788 693 L596 693 L585 678 ZM885 736 Q838 617 737 524 Q832 460 960 430 Q937 408 915 369 Q787 402 682 479 Q571 397 423 355 Q412 381 385 414 Q518 445 630 523 Q578 571 542 627 Q499 578 445 540 Q429 557 390 586 Q534 680 599 836 L668 819 Q651 781 635 753 L825 753 L838 756 L885 736 ZM713 101 L938 101 L938 40 L713 40 L713 -77 L640 -77 L640 40 L413 40 L413 101 L640 101 L640 172 L464 172 L464 229 L640 229 L640 295 L458 295 L458 352 L640 352 L640 416 L713 416 L713 352 L897 352 L897 295 L713 295 L713 229 L894 229 L894 172 L713 172 L713 101 Z" /><glyph glyph-name="" unicode="&#x5d4c;" d="M892 498 L904 501 L949 488 Q913 336 887 268 L831 283 Q850 335 870 434 L625 434 Q597 325 547 246 Q517 269 487 285 Q560 389 591 600 L659 589 L642 498 L892 498 ZM885 624 L118 624 L118 804 L192 804 L192 688 L461 688 L461 837 L536 837 L536 688 L809 688 L809 804 L885 804 L885 624 ZM375 405 L198 405 L198 276 L375 276 L375 405 ZM375 76 L375 214 L198 214 L198 76 L375 76 ZM445 405 L445 -62 L375 -62 L375 8 L198 8 L198 -76 L127 -76 L127 405 L47 405 L47 473 L127 473 L127 578 L198 578 L198 473 L375 473 L375 578 L445 578 L445 473 L523 473 L523 405 L445 405 ZM759 347 Q759 298 753 256 Q814 55 956 -20 Q924 -47 906 -77 Q792 -7 723 148 Q668 15 525 -77 Q507 -51 469 -30 Q686 100 686 348 L686 381 L759 381 L759 347 Z" /><glyph glyph-name="" unicode="&#x5de2;" d="M529 610 Q479 659 372 726 Q454 783 512 836 L587 812 Q529 766 471 728 Q548 681 595 639 L529 610 ZM346 812 Q294 770 230 726 Q305 679 351 636 L284 608 Q235 657 134 725 Q227 794 270 836 L346 812 ZM461 327 L461 411 L240 411 L240 327 L461 327 ZM240 466 L461 466 L461 549 L240 549 L240 466 ZM768 549 L535 549 L535 466 L768 466 L768 549 ZM768 411 L535 411 L535 327 L768 327 L768 411 ZM617 140 Q754 41 959 1 Q928 -28 910 -64 Q681 -8 535 126 L535 -77 L461 -77 L461 121 Q313 -5 92 -65 Q73 -30 43 -2 Q238 42 380 140 L60 140 L60 206 L461 206 L461 268 L166 268 L166 608 L783 608 Q721 663 619 724 Q707 786 762 836 L838 812 Q773 762 719 726 Q801 680 850 636 L788 608 L846 608 L846 268 L535 268 L535 206 L942 206 L942 140 L617 140 Z" /><glyph glyph-name="" unicode="&#x2f2f;&#x5de5;" d="M947 74 L947 0 L55 0 L55 74 L457 74 L457 648 L107 648 L107 724 L897 724 L897 648 L538 648 L538 74 L947 74 Z" /><glyph glyph-name="" unicode="&#x5de6;" d="M945 24 L945 -48 L235 -48 L235 24 L560 24 L560 323 L337 323 L337 390 Q242 132 82 -17 Q62 12 33 41 Q226 217 321 585 L71 585 L71 657 L338 657 Q356 742 371 836 L448 827 Q427 710 415 657 L927 657 L927 585 L397 585 Q376 498 339 395 L901 395 L901 323 L634 323 L634 24 L945 24 Z" /><glyph glyph-name="" unicode="&#x2f30;&#x5df1;" d="M744 18 Q822 18 846 52 Q868 83 878 200 Q915 177 952 170 Q940 34 902 -9 Q861 -55 743 -55 L366 -55 Q244 -55 201 -28 Q156 0 156 83 L156 454 L750 454 L750 703 L143 703 L143 778 L826 778 L826 318 L750 318 L750 381 L231 381 L231 83 Q231 43 256 31 Q281 18 362 18 L744 18 Z" /><glyph glyph-name="" unicode="&#x5df2;" d="M734 25 Q814 25 839 62 Q862 96 873 219 Q905 197 948 189 Q933 47 895 2 Q852 -48 733 -48 L359 -48 Q237 -48 194 -19 Q149 12 149 103 L149 603 L224 603 L224 439 L746 439 L746 701 L96 701 L96 774 L822 774 L822 316 L746 316 L746 366 L224 366 L224 102 Q224 55 249 40 Q273 25 354 25 L734 25 Z" /><glyph glyph-name="" unicode="&#x5e03;" d="M397 612 Q351 514 292 430 L510 430 L510 564 L584 564 L584 430 L883 430 L883 110 Q883 52 843 38 Q809 24 674 26 Q670 53 650 93 Q682 92 787 92 Q809 93 809 111 L809 360 L584 360 L584 -78 L510 -78 L510 360 L298 360 L298 15 L224 15 L224 343 Q157 266 79 213 Q58 250 35 275 Q201 388 315 612 L64 612 L64 684 L347 684 Q377 754 400 837 L477 819 Q463 774 429 684 L938 684 L938 612 L397 612 Z" /><glyph glyph-name="" unicode="&#x5e36;" d="M439 655 L439 553 L563 553 L563 655 L439 655 ZM287 655 Q270 520 111 458 Q96 483 69 508 Q201 550 217 655 L62 655 L62 716 L220 716 L220 822 L289 822 L289 716 L373 716 L373 821 L439 821 L439 716 L563 716 L563 821 L631 821 L631 716 L719 716 L719 824 L787 824 L787 716 L940 716 L940 655 L787 655 L787 579 Q787 544 807 544 L886 544 Q920 544 937 548 Q939 510 943 490 Q926 486 888 486 L801 486 Q752 486 735 508 Q719 527 719 580 L719 655 L631 655 L631 495 L373 495 L373 655 L287 655 ZM830 61 Q830 7 793 -7 Q762 -18 640 -18 Q634 12 616 46 Q672 45 738 45 Q757 46 757 61 L757 221 L534 221 L534 -75 L461 -75 L461 221 L252 221 L252 -18 L179 -18 L179 282 L461 282 L461 365 L534 365 L534 282 L830 282 L830 61 ZM81 446 L926 446 L926 254 L854 254 L854 384 L151 384 L151 254 L81 254 L81 446 Z" /><glyph glyph-name="" unicode="&#x5e38;" d="M314 392 L691 392 L691 490 L314 490 L314 392 ZM857 45 Q857 -11 818 -25 Q787 -37 660 -37 Q655 -11 634 31 Q729 28 762 30 Q782 31 782 46 L782 186 L550 186 L550 -77 L475 -77 L475 186 L228 186 L228 -32 L154 -32 L154 254 L475 254 L475 336 L243 336 L243 546 L765 546 L765 336 L550 336 L550 254 L857 254 L857 45 ZM837 802 Q782 728 737 682 L677 707 Q726 765 760 829 L837 802 ZM918 468 L845 468 L845 617 L160 617 L160 468 L89 468 L89 682 L249 682 Q227 731 171 800 L237 827 Q292 769 322 710 L260 682 L469 682 L469 837 L544 837 L544 682 L918 682 L918 468 Z" /><glyph glyph-name="" unicode="&#x5e55;" d="M626 707 L519 707 L519 767 L626 767 L626 836 L699 836 L699 767 L938 767 L938 707 L699 707 L699 660 L626 660 L626 707 ZM297 707 L65 707 L65 767 L297 767 L297 836 L369 836 L369 767 L487 767 L487 707 L369 707 L369 660 L297 660 L297 707 ZM729 181 Q680 214 641 258 L360 258 Q318 216 270 181 L460 181 L460 242 L533 242 L533 181 L729 181 ZM246 420 L761 420 L761 486 L246 486 L246 420 ZM246 533 L761 533 L761 598 L246 598 L246 533 ZM721 258 Q824 175 963 139 Q935 115 919 83 Q853 104 797 137 L797 19 Q797 -27 766 -41 Q742 -50 642 -50 Q638 -28 622 7 Q688 4 710 6 Q725 7 725 20 L725 122 L533 122 L533 -75 L460 -75 L460 122 L284 122 L284 -53 L213 -53 L213 144 Q156 110 83 80 Q71 108 41 135 Q170 182 264 258 L56 258 L56 318 L326 318 Q351 348 367 372 L175 372 L175 646 L834 646 L834 372 L448 372 Q431 342 412 318 L944 318 L944 258 L721 258 Z" /><glyph glyph-name="" unicode="&#x5e6b;" d="M242 235 L767 235 L767 281 L242 281 L242 235 ZM242 326 L767 326 L767 371 L242 371 L242 326 ZM890 12 Q890 -37 853 -50 Q823 -59 703 -59 Q696 -31 678 -3 Q768 -6 799 -4 Q818 -3 818 12 L818 86 L536 86 L536 -76 L463 -76 L463 86 L201 86 L201 -60 L130 -60 L130 142 L463 142 L463 190 L176 190 L176 416 L458 416 Q474 449 483 477 L67 439 L61 490 Q131 494 249 504 L249 559 L88 559 L88 602 L249 602 L249 649 L67 649 L67 693 L249 693 L249 740 L103 740 L103 783 L249 783 L249 836 L319 836 L319 783 L472 783 L472 740 L319 740 L319 693 L502 693 L502 649 L319 649 L319 602 L484 602 L484 559 L319 559 L319 509 L506 524 L505 482 L556 470 Q521 410 525 416 L835 416 L835 190 L536 190 L536 142 L890 142 L890 12 ZM648 526 Q618 587 555 646 L605 673 Q672 610 700 557 L648 526 ZM945 747 L945 690 L837 690 L837 515 Q837 469 804 456 Q778 446 677 446 Q669 474 652 501 Q730 499 752 501 Q769 501 769 516 L769 690 L509 690 L509 747 L769 747 L769 835 L837 835 L837 747 L945 747 Z" /><glyph glyph-name="" unicode="&#x5e73;" d="M946 274 L536 274 L536 -76 L460 -76 L460 274 L56 274 L56 347 L460 347 L460 696 L108 696 L108 769 L890 769 L890 696 L536 696 L536 347 L946 347 L946 274 ZM243 647 Q317 517 338 422 L268 398 Q244 501 178 627 L243 647 ZM645 416 Q707 520 753 652 L831 630 Q764 481 708 395 L645 416 Z" /><glyph glyph-name="" unicode="&#x5e78;" d="M950 485 L313 485 Q359 412 375 358 L323 341 L619 341 Q660 412 688 485 L766 464 Q734 403 693 341 L874 341 L874 275 L535 275 L535 159 L921 159 L921 92 L535 92 L535 -78 L459 -78 L459 92 L79 92 L79 159 L459 159 L459 275 L133 275 L133 341 L299 341 Q282 398 242 466 L305 485 L53 485 L53 552 L459 552 L459 664 L156 664 L156 730 L459 730 L459 836 L535 836 L535 730 L846 730 L846 664 L535 664 L535 552 L950 552 L950 485 Z" /><glyph glyph-name="" unicode="&#x5e7e;" d="M391 377 Q390 383 376 422 Q122 397 97 385 Q94 407 78 445 Q101 447 144 490 Q159 502 215 564 Q107 553 89 543 Q85 563 72 601 Q87 604 116 639 Q183 726 226 825 L283 803 Q222 690 155 610 L260 618 Q309 685 326 712 L383 687 Q284 551 179 456 L354 471 Q338 502 315 540 L368 558 Q429 468 446 400 L391 377 ZM826 235 Q780 154 699 85 Q766 3 842 3 Q871 3 882 29 Q894 55 900 131 Q923 108 959 95 Q947 -1 922 -34 Q898 -68 839 -68 Q729 -68 641 42 Q545 -25 410 -73 Q388 -42 361 -17 Q508 28 605 95 Q558 173 526 271 L294 271 Q291 234 285 203 Q389 145 442 93 L393 44 Q350 89 269 140 Q223 -16 100 -80 Q82 -54 50 -31 Q207 45 220 271 L56 271 L56 335 L507 335 Q446 559 443 836 L516 836 Q516 555 582 335 L765 335 Q719 371 665 397 L697 429 Q620 419 601 412 Q598 430 583 470 Q605 474 647 516 Q667 533 716 590 Q614 579 592 569 Q583 607 574 627 Q591 629 615 663 Q672 731 715 832 L771 811 Q716 707 657 635 L759 643 Q790 682 827 738 L883 713 Q792 585 684 483 L836 498 Q820 529 796 563 L848 586 Q917 493 936 422 L881 397 Q875 418 861 449 L713 431 Q781 399 819 364 L790 335 L947 335 L947 271 L602 271 Q629 196 662 139 Q725 196 758 256 L826 235 Z" /><glyph glyph-name="" unicode="&#x5e8f;" d="M891 341 L944 318 Q834 165 786 118 L727 148 Q777 198 830 272 L615 272 L615 9 Q615 -51 568 -67 Q533 -78 383 -78 Q378 -50 358 -8 Q458 -12 517 -9 Q541 -8 541 10 L541 272 L232 272 L232 336 L582 336 Q487 386 372 437 L417 480 Q513 439 563 415 Q647 458 723 524 L289 524 L289 586 L788 586 L805 590 L853 553 Q760 457 627 384 Q687 353 702 344 L694 336 L879 336 L891 341 ZM947 725 L947 655 L195 655 L195 450 Q195 95 96 -80 Q74 -58 34 -38 Q122 116 122 450 L122 725 L517 725 Q496 773 471 820 L542 841 Q584 768 602 725 L947 725 Z" /><glyph glyph-name="" unicode="&#x5e95;" d="M196 668 L196 450 Q196 93 97 -80 Q75 -58 35 -38 Q123 116 123 450 L123 736 L513 736 Q494 784 469 817 L541 838 Q578 790 598 736 L948 736 L948 668 L196 668 ZM443 19 L701 19 L701 -42 L443 -42 L443 19 ZM609 359 Q596 444 592 524 Q469 514 381 511 L381 359 L609 359 ZM694 292 Q721 164 766 85 Q811 7 858 7 Q887 7 893 149 Q920 126 953 115 Q945 12 923 -26 Q902 -63 853 -63 Q776 -63 713 36 Q653 130 620 292 L381 292 L381 118 L572 163 Q571 136 573 100 Q335 39 308 22 Q300 50 280 86 Q310 98 310 142 L310 567 Q651 580 824 618 L880 563 Q786 543 665 531 Q668 444 682 359 L924 359 L924 292 L694 292 Z" /><glyph glyph-name="" unicode="&#x5ea6;" d="M202 468 Q202 102 106 -77 Q83 -57 40 -43 Q129 122 129 468 L129 737 L514 737 Q487 799 474 824 L547 842 Q579 789 598 737 L945 737 L945 668 L202 668 L202 468 ZM458 494 L458 389 L700 389 L700 494 L458 494 ZM387 329 L387 494 L227 494 L227 556 L387 556 L387 642 L458 642 L458 556 L700 556 L700 642 L773 642 L773 556 L934 556 L934 494 L773 494 L773 329 L387 329 ZM409 204 Q467 132 578 80 Q693 130 754 204 L409 204 ZM865 243 Q801 125 658 47 Q789 2 958 -13 Q936 -35 916 -77 Q723 -55 575 9 Q428 -48 225 -71 Q212 -34 193 -9 Q369 8 497 49 Q395 108 336 190 L371 204 L240 204 L240 265 L805 265 L819 269 L865 243 Z" /><glyph glyph-name="" unicode="&#x5eab;" d="M192 684 L192 438 Q192 90 95 -79 Q70 -52 36 -36 Q121 113 121 438 L121 749 L512 749 Q494 784 471 817 L540 837 Q569 801 595 749 L945 749 L945 684 L192 684 ZM535 225 L535 302 L350 302 L350 225 L535 225 ZM350 351 L535 351 L535 426 L350 426 L350 351 ZM606 426 L606 351 L800 351 L800 426 L606 426 ZM800 302 L606 302 L606 225 L800 225 L800 302 ZM952 43 L606 43 L606 -72 L535 -72 L535 43 L205 43 L205 105 L535 105 L535 175 L284 175 L284 476 L535 476 L535 541 L247 541 L247 600 L535 600 L535 663 L606 663 L606 600 L921 600 L921 541 L606 541 L606 476 L869 476 L869 175 L606 175 L606 105 L952 105 L952 43 Z" /><glyph glyph-name="" unicode="&#x5ee3;" d="M202 467 Q202 107 97 -68 Q71 -44 35 -30 Q131 130 131 467 L131 752 L514 752 Q505 784 489 825 L564 840 Q577 811 597 752 L945 752 L945 687 L202 687 L202 467 ZM449 568 L449 521 L706 521 L706 568 L449 568 ZM378 482 L378 568 L252 568 L252 615 L378 615 L378 673 L449 673 L449 615 L706 615 L706 673 L780 673 L780 615 L907 615 L907 568 L780 568 L780 482 L378 482 ZM509 32 Q417 -10 232 -80 Q214 -48 193 -27 Q349 27 450 79 L509 32 ZM809 319 L615 319 L615 250 L809 250 L809 319 ZM809 203 L615 203 L615 132 L809 132 L809 203 ZM349 132 L545 132 L545 203 L349 203 L349 132 ZM349 250 L545 250 L545 319 L349 319 L349 250 ZM880 83 L281 83 L281 367 L880 367 L880 83 ZM680 79 Q845 20 945 -27 L908 -80 Q805 -28 650 30 L680 79 ZM951 451 L951 403 L229 403 L229 451 L951 451 Z" /><glyph glyph-name="" unicode="&#x5efa;" d="M657 691 L657 618 L807 618 L807 691 L657 691 ZM807 557 L657 557 L657 483 L807 483 L807 557 ZM587 691 L395 691 L395 750 L587 750 L587 832 L657 832 L657 750 L874 750 L874 618 L943 618 L943 557 L874 557 L874 423 L657 423 L657 348 L893 348 L893 291 L657 291 L657 210 L930 210 L930 149 L657 149 L657 50 L587 50 L587 149 L339 149 L339 210 L587 210 L587 291 L381 291 L381 348 L587 348 L587 423 L388 423 L388 483 L587 483 L587 557 L330 557 L330 618 L587 618 L587 691 ZM335 487 Q311 278 249 136 Q368 16 654 16 Q908 16 959 17 Q938 -15 931 -52 L652 -52 Q349 -52 219 75 Q166 -15 95 -71 Q67 -36 40 -20 Q116 34 171 130 Q117 203 81 322 L136 344 Q161 258 201 196 Q242 297 261 431 L99 431 Q163 540 242 708 L67 708 L67 774 L348 774 Q277 626 209 497 L280 497 L293 499 L335 487 Z" /><glyph glyph-name="" unicode="&#x5f0f;" d="M850 663 Q801 723 708 788 L758 829 Q853 766 902 710 L850 663 ZM345 84 L559 129 L565 63 Q294 -1 86 -47 L63 26 L272 68 L272 358 L94 358 L94 430 L532 430 L532 358 L345 358 L345 84 ZM651 578 Q670 322 724 163 Q780 -1 853 -1 Q890 -1 898 187 Q924 161 964 146 Q954 17 929 -31 Q904 -78 847 -78 Q732 -78 660 112 Q597 281 575 578 L59 578 L59 651 L570 651 Q567 710 565 832 L643 832 Q643 730 647 651 L943 651 L943 578 L651 578 Z" /><glyph glyph-name="" unicode="&#x5f15;" d="M548 343 Q547 319 545 308 Q522 8 478 -37 Q451 -66 398 -69 Q336 -73 242 -67 Q238 -24 215 9 Q281 3 371 3 Q403 3 415 14 Q449 42 468 274 L91 273 Q124 411 146 566 L469 566 L469 725 L109 725 L109 795 L542 795 L542 496 L209 496 L182 343 L548 343 ZM854 826 L854 -77 L780 -77 L780 826 L854 826 Z" /><glyph glyph-name="" unicode="&#x5f37;" d="M887 504 Q863 546 843 573 Q454 538 428 528 Q419 559 404 593 Q424 597 456 635 Q527 709 584 831 L660 812 Q587 691 511 604 L802 628 Q752 688 726 715 L779 748 Q896 628 943 542 L887 504 ZM376 337 L374 304 Q355 4 319 -38 Q296 -64 254 -67 Q209 -71 138 -66 Q136 -27 118 2 Q163 -2 223 -2 Q248 -2 257 8 Q285 36 301 269 L51 269 Q75 409 88 554 L297 554 L297 714 L62 714 L62 783 L366 783 L366 486 L148 486 Q135 380 129 337 L376 337 ZM624 245 L624 384 L489 384 L489 245 L624 245 ZM696 384 L696 245 L835 245 L835 384 L696 384 ZM898 -83 Q889 -59 869 -16 Q676 -32 392 -52 L382 20 Q476 24 624 34 L624 183 L423 183 L423 446 L624 446 L624 543 L696 543 L696 446 L904 446 L904 183 L696 183 L696 39 L833 48 Q792 112 774 136 L835 163 Q930 43 963 -52 L898 -83 Z" /><glyph glyph-name="" unicode="&#x5f55;" d="M871 324 Q776 241 673 178 Q791 70 950 27 Q922 2 901 -38 Q670 37 536 239 L536 4 Q536 -53 495 -68 Q464 -79 337 -79 Q332 -52 311 -13 Q401 -18 440 -15 Q462 -14 462 5 L462 143 Q283 63 111 -9 L72 57 Q181 98 462 213 L462 395 L70 395 L70 461 L725 461 L731 552 L167 552 L167 620 L735 620 L737 668 Q739 701 739 712 L138 712 L138 781 L748 781 L762 784 L820 780 Q817 643 801 461 L937 461 L937 395 L536 395 L536 366 Q572 289 628 224 Q739 301 808 370 L871 324 ZM187 363 Q308 297 371 238 L319 187 Q261 245 138 319 L187 363 Z" /><glyph glyph-name="" unicode="&#x5f59;" d="M680 697 L693 744 L323 744 Q310 706 306 697 L680 697 ZM946 553 L56 553 L56 607 L654 607 L666 650 L213 650 Q247 732 278 838 L349 827 Q344 814 339 791 L710 791 L723 795 L776 784 Q757 698 728 607 L946 607 L946 553 ZM852 364 L852 460 L146 460 L146 364 L81 364 L81 509 L920 509 L920 364 L852 364 ZM462 230 L462 281 L268 281 L268 230 L462 230 ZM268 322 L462 322 L462 372 L268 372 L268 322 ZM726 372 L536 372 L536 322 L726 322 L726 372 ZM726 281 L536 281 L536 230 L726 230 L726 281 ZM613 89 Q744 11 961 -13 Q937 -37 921 -69 Q667 -29 536 84 L536 -77 L462 -77 L462 79 Q325 -23 83 -70 Q66 -40 44 -18 Q249 13 386 89 L61 89 L61 143 L462 143 L462 186 L200 186 L200 416 L797 416 L797 186 L536 186 L536 143 L940 143 L940 89 L613 89 Z" /><glyph glyph-name="" unicode="&#x5f62;" d="M913 791 Q805 654 628 556 Q595 594 574 608 Q748 694 844 820 L913 791 ZM941 518 Q822 370 637 266 Q609 300 585 319 Q767 411 873 547 L941 518 ZM406 448 L406 705 L245 705 L245 448 L406 448 ZM478 379 L478 -76 L406 -76 L406 379 L244 379 Q237 72 96 -83 Q73 -52 40 -33 Q167 105 174 379 L45 379 L45 448 L175 448 L175 705 L60 705 L60 775 L572 775 L572 705 L478 705 L478 448 L587 448 L587 379 L478 379 ZM965 251 Q837 40 585 -76 Q562 -41 533 -17 Q779 85 895 278 L965 251 Z" /><glyph glyph-name="" unicode="&#x5f69;" d="M916 789 Q810 654 647 562 Q612 602 591 616 Q756 702 843 820 L916 789 ZM942 516 Q834 380 652 278 Q621 316 598 333 Q780 427 872 547 L942 516 ZM571 763 Q392 712 73 691 Q71 718 53 753 Q373 778 525 825 L571 763 ZM408 486 Q468 596 497 681 L569 661 Q500 522 464 466 L408 486 ZM324 501 Q306 577 259 660 L317 677 Q366 599 386 522 L324 501 ZM169 464 Q148 538 82 625 L138 650 Q205 565 228 493 L169 464 ZM380 313 Q499 219 558 137 L507 88 Q456 164 364 243 L364 -75 L292 -75 L292 225 Q191 78 76 -5 Q57 34 31 59 Q173 147 269 313 L60 313 L60 381 L292 381 L292 486 L364 486 L364 381 L570 381 L570 313 L380 313 ZM967 237 Q845 37 595 -77 Q576 -43 542 -14 Q785 82 894 266 L967 237 Z" /><glyph glyph-name="" unicode="&#x5f71;" d="M907 787 Q803 649 645 553 Q615 588 591 604 Q750 693 838 816 L907 787 ZM938 520 Q830 375 644 272 Q619 305 592 325 Q772 413 871 548 L938 520 ZM485 750 L182 750 L182 691 L485 691 L485 750 ZM485 642 L182 642 L182 581 L485 581 L485 642 ZM558 531 L111 531 L111 801 L558 801 L558 531 ZM592 407 L62 407 L62 467 L295 467 L272 512 L340 529 Q361 498 374 467 L592 467 L592 407 ZM220 126 Q180 32 112 -38 Q74 -6 59 3 Q121 61 157 145 L220 126 ZM189 220 L474 220 L474 304 L189 304 L189 220 ZM367 167 L367 2 Q367 -47 335 -60 Q311 -71 218 -71 Q211 -39 195 -10 Q263 -12 280 -10 Q294 -10 294 3 L294 167 L120 167 L120 357 L547 357 L547 167 L367 167 ZM470 146 Q535 65 564 2 L508 -27 Q476 43 418 121 L470 146 ZM959 235 Q842 42 614 -71 Q594 -40 562 -14 Q785 85 891 262 L959 235 Z" /><glyph glyph-name="" unicode="&#x5f7c;" d="M315 808 Q227 669 85 569 Q68 601 46 629 Q178 719 244 834 L315 808 ZM329 593 Q299 535 246 462 L246 -76 L174 -76 L174 373 Q129 322 76 276 Q59 315 35 348 Q181 461 263 618 L329 593 ZM528 381 Q578 249 666 158 Q753 250 800 381 L528 381 ZM449 620 L449 447 L607 447 L607 620 L449 620 ZM888 432 Q839 240 718 109 Q818 26 951 -11 Q920 -42 904 -74 Q768 -30 666 60 Q567 -26 434 -76 Q415 -37 392 -16 Q519 26 616 109 Q516 218 459 381 L448 381 Q442 84 327 -70 Q304 -40 271 -24 Q377 120 377 428 L377 690 L607 690 L607 836 L679 836 L679 690 L868 690 L881 693 L934 679 Q894 538 869 479 L804 494 Q821 536 843 620 L679 620 L679 447 L828 447 L842 450 L888 432 Z" /><glyph glyph-name="" unicode="&#x5f80;" d="M630 651 Q609 721 548 817 L615 841 Q679 745 702 679 L630 651 ZM322 808 Q230 668 88 569 Q71 601 49 629 Q182 720 251 834 L322 808 ZM337 588 Q305 530 255 463 L255 -77 L180 -77 L180 372 Q138 323 75 270 Q58 311 35 343 Q185 455 272 613 L337 588 ZM954 25 L954 -46 L322 -46 L322 25 L602 25 L602 282 L385 282 L385 353 L602 353 L602 576 L350 576 L350 647 L929 647 L929 576 L679 576 L679 353 L897 353 L897 282 L679 282 L679 25 L954 25 Z" /><glyph glyph-name="" unicode="&#x5f84;" d="M330 807 Q234 665 93 569 Q78 601 54 629 Q192 722 259 834 L330 807 ZM341 589 Q306 525 259 463 L259 -76 L185 -76 L185 374 Q126 312 79 274 Q66 309 40 345 Q188 454 277 615 L341 589 ZM911 366 Q810 434 646 506 Q520 419 358 359 Q343 391 314 420 Q616 520 766 715 L384 715 L384 784 L816 784 L830 787 L883 755 Q820 644 705 551 Q867 483 952 427 L911 366 ZM678 21 L952 21 L952 -49 L324 -49 L324 21 L603 21 L603 263 L384 263 L384 332 L893 332 L893 263 L678 263 L678 21 Z" /><glyph glyph-name="" unicode="&#x5f88;" d="M326 807 Q232 667 86 569 Q62 612 46 629 Q187 722 255 833 L326 807 ZM339 588 Q309 533 256 463 L256 -77 L184 -77 L184 378 Q131 317 72 271 Q52 317 32 343 Q185 457 273 615 L339 588 ZM473 421 L796 421 L796 545 L473 545 L473 421 ZM473 727 L473 607 L796 607 L796 727 L473 727 ZM921 272 Q851 215 742 149 Q829 41 960 -6 Q931 -31 910 -70 Q664 29 571 356 L473 356 L473 27 L649 70 Q649 23 653 2 Q421 -61 398 -77 Q385 -41 364 -16 Q401 4 401 54 L401 793 L868 793 L868 356 L636 356 Q662 272 707 200 Q813 268 871 324 L921 272 Z" /><glyph glyph-name="" unicode="&#x5f8c;" d="M314 811 Q227 679 90 574 Q82 587 50 628 Q179 722 246 836 L314 811 ZM336 611 Q299 542 248 472 L248 -80 L177 -80 L177 385 Q133 334 83 292 Q55 341 40 357 Q185 472 270 634 L336 611 ZM521 263 Q503 240 484 220 Q541 157 615 111 Q715 177 768 263 L521 263 ZM869 305 Q811 168 679 73 Q806 10 943 -14 Q917 -40 898 -78 Q742 -44 615 31 Q492 -40 322 -80 Q311 -44 286 -16 Q430 11 550 73 Q485 122 439 175 Q412 149 360 109 Q340 137 309 164 Q359 197 395 230 Q377 253 347 305 L408 326 Q425 295 440 274 Q497 336 533 399 Q372 389 345 379 Q339 408 322 448 Q358 453 433 496 Q461 510 558 573 Q393 565 367 555 Q361 587 343 627 Q363 630 409 662 Q506 733 584 826 L657 794 Q559 693 467 628 L645 634 Q717 687 777 741 L845 703 Q667 556 482 458 L795 475 Q749 533 727 558 L785 588 Q894 467 949 372 L888 337 Q861 385 836 419 L614 405 Q589 357 566 325 L811 325 L823 328 L869 305 Z" /><glyph glyph-name="" unicode="&#x5f91;" d="M946 718 L354 718 L354 785 L946 785 L946 718 ZM859 301 Q813 383 709 499 Q786 599 831 681 L898 664 Q873 619 784 500 Q878 399 923 325 L859 301 ZM709 664 Q683 617 601 500 Q684 400 725 324 L660 301 Q620 384 525 499 Q600 597 642 681 L709 664 ZM471 301 Q437 379 346 499 Q422 612 457 682 L524 665 Q484 592 419 500 Q501 395 536 323 L471 301 ZM314 811 Q220 675 78 574 Q54 610 36 628 Q172 719 246 836 L314 811 ZM336 611 Q297 543 249 480 L249 -75 L180 -75 L180 399 Q119 333 67 292 Q55 318 25 358 Q178 471 270 634 L336 611 ZM957 16 L957 -51 L301 -51 L301 16 L600 16 L600 200 L366 200 L366 266 L909 266 L909 200 L673 200 L673 16 L957 16 Z" /><glyph glyph-name="" unicode="&#x5f97;" d="M811 749 L482 749 L482 669 L811 669 L811 749 ZM811 615 L482 615 L482 534 L811 534 L811 615 ZM885 477 L410 477 L410 805 L885 805 L885 477 ZM324 806 Q229 669 80 569 Q65 602 41 629 Q182 720 253 833 L324 806 ZM336 589 Q306 535 254 466 L254 -76 L181 -76 L181 382 Q123 319 64 274 Q49 312 25 345 Q183 461 271 615 L336 589 ZM465 180 Q550 105 592 41 L535 1 Q499 61 412 146 L465 180 ZM950 197 L801 197 L801 5 Q801 -50 763 -66 Q730 -78 611 -78 Q607 -50 587 -10 Q676 -13 707 -11 Q727 -10 727 7 L727 197 L326 197 L326 261 L727 261 L727 346 L349 346 L349 410 L932 410 L932 346 L801 346 L801 261 L950 261 L950 197 Z" /><glyph glyph-name="" unicode="&#x5f9e;" d="M593 516 Q558 557 493 612 Q440 497 364 425 Q335 459 308 475 Q444 594 489 836 L561 825 Q545 747 518 672 Q593 613 629 573 L593 516 ZM314 811 Q220 675 78 574 Q54 610 36 628 Q172 719 246 836 L314 811 ZM336 611 Q297 543 249 480 L249 -79 L180 -79 L180 399 Q119 333 67 292 Q55 318 25 358 Q178 471 270 634 L336 611 ZM685 8 Q723 1 773 1 L958 1 Q939 -30 935 -66 L769 -66 Q649 -66 578 -29 Q497 13 450 118 Q411 -1 331 -74 Q312 -52 275 -26 Q406 82 422 375 L493 370 Q489 295 476 223 Q518 76 616 29 L616 447 L629 447 Q599 473 578 485 Q722 591 757 836 L828 827 Q814 734 788 664 Q907 564 963 490 L912 439 Q865 503 762 601 Q718 510 646 447 L685 447 L685 279 L907 279 L907 216 L685 216 L685 8 Z" /><glyph glyph-name="" unicode="&#x5fb5;" d="M628 549 L302 549 L302 771 L357 771 L357 608 L433 608 L433 836 L491 836 L491 608 L573 608 L573 771 L628 771 L628 549 ZM269 812 Q189 682 72 583 Q59 605 32 639 Q141 727 201 837 L269 812 ZM287 616 Q255 550 218 492 L218 -74 L150 -74 L150 393 Q110 338 64 291 Q42 333 20 356 Q146 475 222 638 L287 616 ZM632 23 Q437 -5 303 -23 L286 37 L430 53 L430 157 L276 157 L276 214 L430 214 L430 295 Q346 285 303 282 Q300 302 285 332 Q473 351 578 381 L618 331 Q565 316 494 305 L494 214 L650 214 L650 157 L494 157 L494 61 L630 77 L632 23 ZM735 568 Q732 555 724 529 Q747 366 787 250 Q836 381 856 568 L735 568 ZM921 568 Q891 315 820 167 Q884 36 972 -16 Q943 -41 924 -75 Q840 -18 783 98 Q718 -7 612 -80 Q597 -58 564 -30 Q684 45 751 171 Q710 281 687 425 Q665 377 649 352 Q626 384 599 406 L608 421 L283 421 L283 482 L628 482 L628 460 Q689 594 715 836 L783 825 Q772 729 751 631 L957 631 L957 568 L921 568 Z" /><glyph glyph-name="" unicode="&#x2f3c;&#x5fc3;" d="M393 802 Q576 676 662 581 L609 526 Q517 630 344 753 L393 802 ZM828 511 Q927 308 962 136 L889 107 Q855 284 759 484 L828 511 ZM210 471 Q175 217 122 79 L48 110 Q111 259 138 485 L210 471 ZM372 560 L372 67 Q372 33 385 22 Q398 12 441 12 L632 12 Q678 12 692 51 Q705 87 711 219 Q737 198 781 186 Q773 40 746 -7 Q717 -58 636 -58 L435 -58 Q354 -58 326 -32 Q297 -6 297 68 L297 560 L372 560 Z" /><glyph glyph-name="" unicode="&#x5fc5;" d="M561 589 Q455 683 311 780 L360 833 Q500 740 610 649 L561 589 ZM220 518 Q174 285 105 177 L36 206 Q114 328 150 535 L220 518 ZM646 5 Q689 5 702 41 Q715 74 720 195 Q753 172 793 163 Q785 27 757 -19 Q728 -68 649 -68 L448 -68 Q367 -68 338 -42 Q309 -15 309 62 L309 112 Q195 35 85 -18 Q63 15 37 40 Q179 104 309 202 L309 594 L386 594 L386 264 Q643 483 789 776 L863 746 Q680 399 386 170 L386 61 Q386 26 399 15 Q411 5 454 5 L646 5 ZM803 501 Q920 336 966 184 L896 150 Q852 298 737 471 L803 501 Z" /><glyph glyph-name="" unicode="&#x5fd9;" d="M678 651 Q655 714 602 819 L673 845 Q728 747 754 682 L678 651 ZM35 390 Q73 485 85 645 L141 637 Q133 481 92 369 L35 390 ZM187 837 L260 837 L260 -76 L187 -76 L187 837 ZM323 674 Q382 552 400 495 L349 469 Q326 544 274 654 L323 674 ZM539 563 L539 101 Q539 62 553 47 Q567 31 603 31 L833 31 Q890 31 928 38 Q933 -9 938 -33 Q911 -40 832 -40 L607 -40 Q527 -40 496 -9 Q465 23 465 103 L465 563 L374 563 L374 635 L956 635 L956 563 L539 563 Z" /><glyph glyph-name="" unicode="&#x5feb;" d="M32 390 Q69 482 83 644 L140 637 Q128 476 90 369 L32 390 ZM173 837 L246 837 L246 -76 L173 -76 L173 837 ZM322 468 Q306 536 249 653 L301 677 Q360 565 378 495 L322 468 ZM732 284 Q876 90 951 -35 L884 -73 Q823 40 671 253 L732 284 ZM654 505 Q654 434 649 380 L803 380 L803 608 L654 608 L654 505 ZM962 380 L962 309 L638 309 Q591 51 351 -81 Q330 -50 299 -23 Q519 87 565 309 L331 309 L331 380 L575 380 Q580 434 580 505 L580 608 L385 608 L385 678 L580 678 L580 837 L654 837 L654 678 L876 678 L876 380 L962 380 Z" /><glyph glyph-name="" unicode="&#x5ff5;" d="M57 -5 Q115 86 157 241 L222 216 Q169 41 125 -36 L57 -5 ZM795 450 Q731 335 620 229 Q589 252 563 264 Q630 325 689 414 L177 414 L177 478 L734 478 L746 481 L795 450 ZM449 318 Q563 191 608 128 L544 90 Q486 175 388 286 L449 318 ZM646 10 Q685 10 697 31 Q708 50 713 126 Q740 109 782 99 Q774 4 749 -27 Q723 -58 651 -58 L420 -58 Q333 -58 304 -37 Q274 -16 274 45 L274 239 L348 239 L348 45 Q348 23 362 17 Q375 10 423 10 L646 10 ZM808 269 Q895 100 937 4 L864 -24 Q832 62 740 248 L808 269 ZM680 613 Q576 677 494 752 Q425 673 330 613 L680 613 ZM549 827 L534 804 Q699 644 958 565 Q927 538 907 501 Q799 541 683 611 L683 551 L313 551 L313 602 Q215 543 87 496 Q67 530 40 555 Q369 664 479 852 L549 827 Z" /><glyph glyph-name="" unicode="&#x601d;" d="M771 727 L534 727 L534 601 L771 601 L771 727 ZM771 538 L534 538 L534 411 L771 411 L771 538 ZM218 411 L461 411 L461 538 L218 538 L218 411 ZM218 601 L461 601 L461 727 L218 727 L218 601 ZM844 345 L148 345 L148 793 L844 793 L844 345 ZM589 134 Q522 205 382 280 L431 325 Q563 261 640 184 L589 134 ZM52 10 Q117 92 161 248 L227 225 Q175 49 119 -25 L52 10 ZM620 13 Q657 13 668 35 Q678 57 682 141 Q707 124 751 113 Q743 11 719 -22 Q694 -56 626 -56 L425 -56 Q345 -56 317 -35 Q290 -14 290 45 L290 243 L364 243 L364 46 Q364 25 376 19 Q388 13 430 13 L620 13 ZM806 259 Q910 125 947 15 L875 -17 Q843 92 740 232 L806 259 Z" /><glyph glyph-name="" unicode="&#x6027;" d="M31 392 Q69 485 83 648 L139 640 Q130 486 89 372 L31 392 ZM175 837 L249 837 L249 -76 L175 -76 L175 837 ZM308 677 Q360 583 381 510 L325 483 Q307 552 256 653 L308 677 ZM945 29 L945 -42 L335 -42 L335 29 L621 29 L621 279 L409 279 L409 348 L621 348 L621 555 L475 555 Q444 462 405 400 Q384 414 339 434 Q420 556 460 791 L532 779 Q516 696 496 626 L621 626 L621 833 L695 833 L695 626 L921 626 L921 555 L695 555 L695 348 L899 348 L899 279 L695 279 L695 29 L945 29 Z" /><glyph glyph-name="" unicode="&#x60c5;" d="M33 390 Q68 486 82 645 L141 636 Q131 484 94 369 L33 390 ZM184 837 L253 837 L253 -75 L184 -75 L184 837 ZM311 693 Q357 603 374 546 L321 517 Q305 575 260 671 L311 693 ZM820 135 L820 211 L481 211 Q481 174 478 135 L820 135 ZM481 344 L481 267 L820 267 L820 344 L481 344 ZM891 4 Q891 -50 856 -63 Q827 -75 712 -75 Q707 -43 691 -11 Q773 -14 802 -12 Q820 -11 820 5 L820 80 L470 80 Q452 -25 404 -88 Q377 -52 350 -37 Q411 46 411 217 L411 400 L891 400 L891 4 ZM953 514 L953 457 L345 457 L345 514 L608 514 L608 584 L398 584 L398 638 L608 638 L608 701 L371 701 L371 758 L608 758 L608 836 L681 836 L681 758 L922 758 L922 701 L681 701 L681 638 L896 638 L896 584 L681 584 L681 514 L953 514 Z" /><glyph glyph-name="" unicode="&#x60d1;" d="M54 293 Q193 304 499 336 L500 279 Q570 319 624 372 Q558 483 524 646 L67 646 L67 711 L513 711 Q504 773 501 836 L574 836 Q577 771 586 711 L792 711 Q733 760 655 790 L699 834 Q794 801 850 748 L815 711 L934 711 L934 646 L598 646 Q625 519 676 428 Q746 516 778 605 L848 587 Q801 468 714 367 Q779 283 844 283 Q865 284 874 311 Q883 337 888 405 Q911 384 948 371 Q938 279 915 245 Q892 212 840 212 Q743 212 665 315 Q607 260 547 222 Q518 255 492 274 Q341 257 60 227 L54 293 ZM380 533 L199 533 L199 439 L380 439 L380 533 ZM450 586 L450 385 L132 385 L132 586 L450 586 ZM449 235 Q564 180 621 117 L573 69 Q520 132 403 192 L449 235 ZM58 -15 Q114 55 151 182 L216 156 Q175 17 124 -52 L58 -15 ZM626 1 Q663 1 674 18 Q684 34 688 98 Q714 80 754 72 Q746 -11 723 -37 Q699 -64 633 -64 L410 -64 Q326 -64 298 -45 Q269 -26 269 30 L269 171 L342 171 L342 31 Q342 12 355 7 Q368 1 414 1 L626 1 ZM824 182 Q913 66 942 -21 L871 -47 Q838 48 757 159 L824 182 Z" /><glyph glyph-name="" unicode="&#x60f1;" d="M884 448 Q835 532 725 646 Q805 744 855 828 L922 809 Q883 748 802 647 Q892 557 946 476 L884 448 ZM49 390 Q82 493 94 645 L141 638 Q133 485 97 373 L49 390 ZM173 837 L236 837 L236 -76 L173 -76 L173 837 ZM298 673 Q336 561 347 478 L295 460 Q285 544 251 660 L298 673 ZM478 454 Q440 538 350 648 Q414 743 455 826 L521 809 Q483 736 422 649 Q500 558 540 480 L478 454 ZM772 63 Q728 105 661 153 Q600 98 525 51 Q508 70 476 91 Q544 126 614 185 Q561 219 498 253 L534 291 Q593 261 655 222 Q706 273 735 315 L792 297 Q755 243 702 191 Q777 139 810 107 L772 63 ZM851 332 L450 332 L450 39 L851 39 L851 332 ZM684 461 Q677 443 653 393 L922 393 L922 -75 L851 -75 L851 -22 L450 -22 L450 -80 L381 -80 L381 393 L580 393 Q599 433 612 479 L675 469 Q620 561 540 651 Q616 758 652 828 L718 810 Q685 751 615 652 Q697 562 740 486 L684 461 Z" /><glyph glyph-name="" unicode="&#x60f3;" d="M829 723 L581 723 L581 630 L829 630 L829 723 ZM829 572 L581 572 L581 478 L829 478 L829 572 ZM829 421 L581 421 L581 326 L829 326 L829 421 ZM900 265 L512 265 L512 784 L900 784 L900 265 ZM467 273 Q552 196 605 132 L551 88 Q509 143 415 235 L467 273 ZM50 9 Q103 80 144 212 L209 187 Q160 38 115 -24 L50 9 ZM240 255 L240 518 Q167 382 84 314 Q62 345 36 366 Q152 448 227 623 L58 623 L58 688 L240 688 L240 834 L311 834 L311 688 L469 688 L469 623 L311 623 L311 567 Q367 532 477 447 L437 387 Q395 427 311 498 L311 255 L240 255 ZM623 12 Q659 12 670 32 Q680 52 683 128 Q709 108 751 100 Q743 6 720 -24 Q695 -55 628 -55 L421 -55 Q340 -55 313 -35 Q285 -16 285 42 L285 201 L358 201 L358 43 Q358 23 370 18 Q383 12 426 12 L623 12 ZM829 232 Q918 95 949 32 L880 -2 Q855 54 765 203 L829 232 Z" /><glyph glyph-name="" unicode="&#x610f;" d="M65 -15 Q137 49 183 159 L245 131 Q187 7 125 -50 L65 -15 ZM741 441 L263 441 L263 372 L741 372 L741 441 ZM741 323 L263 323 L263 254 L741 254 L741 323 ZM814 203 L467 203 Q557 154 610 105 L564 59 Q515 109 409 171 L443 203 L192 203 L192 492 L814 492 L814 203 ZM608 -6 Q640 -6 649 11 Q658 28 662 95 Q684 80 726 69 Q720 -13 698 -41 Q675 -68 615 -68 L427 -68 Q351 -68 325 -50 Q299 -31 299 22 L299 151 L372 151 L372 22 Q372 5 383 -1 Q394 -6 433 -6 L608 -6 ZM799 168 Q888 79 930 -3 L867 -35 Q834 41 740 142 L799 168 ZM340 702 Q371 651 384 603 L615 603 Q642 653 661 702 L340 702 ZM930 603 L930 542 L76 542 L76 603 L307 603 Q292 651 271 688 L334 702 L121 702 L121 763 L478 763 Q466 791 443 829 L515 844 Q535 817 560 763 L879 763 L879 702 L680 702 L738 689 Q716 646 691 603 L930 603 Z" /><glyph glyph-name="" unicode="&#x611f;" d="M167 -22 Q197 72 217 174 L267 156 Q234 1 222 -43 L167 -22 ZM517 -13 Q540 -13 547 7 Q554 27 556 102 Q574 86 610 78 Q606 -10 588 -39 Q571 -67 524 -67 L393 -67 Q337 -67 318 -50 Q299 -34 299 14 L299 181 L361 181 L361 14 Q361 -3 368 -8 Q375 -13 400 -13 L517 -13 ZM464 81 Q432 146 378 228 L427 251 Q487 164 516 109 L464 81 ZM632 190 Q701 69 730 -1 L675 -26 Q639 65 580 170 L632 190 ZM504 445 L308 445 L308 326 L504 326 L504 445 ZM906 609 Q851 461 754 352 Q806 -1 875 -1 Q899 -1 906 166 Q931 139 962 127 Q954 12 934 -30 Q913 -73 866 -73 Q753 -73 692 289 Q650 250 599 216 Q573 247 546 267 L553 271 L245 271 L245 500 L565 500 L565 278 Q621 313 681 371 Q662 520 655 674 L199 674 L199 609 L611 609 L611 555 L199 555 L199 525 Q199 127 98 -78 Q73 -53 39 -38 Q130 147 130 525 L130 736 L653 736 L650 837 L723 837 Q723 769 724 736 L842 736 Q791 772 730 807 L773 841 Q849 802 891 771 L851 736 L945 736 L945 674 L726 674 Q730 558 743 445 Q802 525 839 625 L906 609 Z" /><glyph glyph-name="" unicode="&#x614b;" d="M665 547 Q608 547 587 569 Q567 590 567 647 L567 829 L636 829 L636 755 L879 755 L879 696 L636 696 L636 645 Q636 623 642 616 Q648 607 667 607 L832 607 Q878 607 908 612 Q910 580 915 552 Q900 547 834 547 L665 547 ZM679 205 Q612 205 589 223 Q566 242 566 295 L566 505 L635 505 L635 426 L878 426 L878 367 L635 367 L635 295 Q635 277 644 272 Q653 267 684 267 L831 267 Q854 267 862 279 Q869 291 871 336 Q894 319 933 311 Q927 248 907 227 Q888 205 838 205 L679 205 ZM458 262 Q458 218 427 205 Q404 196 310 196 Q305 216 288 248 Q360 246 377 248 Q392 248 392 262 L392 344 Q279 304 200 280 L177 334 Q274 357 392 390 L392 523 L182 523 L182 420 Q182 258 117 180 Q91 208 65 222 Q118 286 118 421 L118 580 L458 580 L458 262 ZM223 496 Q333 457 382 432 L355 391 Q280 429 195 458 L223 496 ZM546 52 Q504 111 442 176 L492 209 Q560 139 598 90 L546 52 ZM469 596 Q455 618 436 645 Q109 619 82 607 Q69 651 60 671 Q83 674 112 700 Q180 749 245 841 L313 817 Q241 734 176 680 L396 696 Q358 742 339 761 L390 788 Q484 692 524 627 L469 596 ZM60 -14 Q109 52 140 164 L202 139 Q167 15 124 -47 L60 -14 ZM624 1 Q660 1 670 18 Q680 36 683 104 Q706 89 748 78 Q741 -6 718 -33 Q695 -61 630 -61 L415 -61 Q334 -61 306 -43 Q277 -25 277 29 L277 152 L349 152 L349 30 Q349 11 362 6 Q374 1 419 1 L624 1 ZM843 168 Q905 50 924 -12 L857 -34 Q830 50 779 149 L843 168 Z" /><glyph glyph-name="" unicode="&#x6163;" d="M38 390 Q67 488 79 645 L132 638 Q124 491 93 372 L38 390 ZM168 836 L236 836 L236 -79 L168 -79 L168 836 ZM300 460 Q287 550 254 650 L301 664 Q339 553 349 479 L300 460 ZM565 52 Q482 -21 327 -78 Q309 -53 277 -25 Q426 18 497 75 L565 52 ZM747 80 Q886 14 956 -32 L897 -76 Q823 -23 701 39 L747 80 ZM815 425 L444 425 L444 359 L815 359 L815 425 ZM815 311 L444 311 L444 246 L815 246 L815 311 ZM815 197 L444 197 L444 130 L815 130 L815 197 ZM882 80 L378 80 L378 475 L882 475 L882 80 ZM825 633 L818 633 L818 639 L663 639 Q659 603 654 573 L820 573 L825 633 ZM434 573 L592 573 L603 639 L442 639 L434 573 ZM457 751 L449 687 L610 687 L617 751 L457 751 ZM835 751 L677 751 L669 687 L818 687 L818 694 L830 694 L835 751 ZM956 694 L956 633 L891 633 L883 525 L366 525 L378 633 L314 633 L314 694 L385 694 L398 800 L904 800 L896 694 L956 694 Z" /><glyph glyph-name="" unicode="&#x616e;" d="M214 416 Q214 90 101 -70 Q72 -43 39 -32 Q142 113 142 417 L142 671 L452 671 L452 836 L525 836 L525 782 L863 782 L863 729 L525 729 L525 671 L865 671 L878 675 L931 659 Q897 571 870 526 L807 548 Q822 575 838 615 L521 615 L521 571 L773 583 L774 540 L521 526 L521 519 Q521 499 528 492 Q535 484 558 484 L759 484 Q832 484 855 490 Q858 458 862 440 Q839 434 765 434 L545 434 Q492 434 472 454 Q454 472 453 515 L257 504 L254 557 L453 567 L453 615 L214 615 L214 416 ZM788 352 L603 352 L603 302 L788 302 L788 352 ZM788 261 L603 261 L603 209 L788 209 L788 261 ZM366 209 L535 209 L535 261 L366 261 L366 209 ZM366 302 L535 302 L535 352 L366 352 L366 302 ZM859 166 L552 166 Q615 111 643 79 L595 43 Q565 79 504 136 L547 166 L297 166 L297 395 L859 395 L859 166 ZM209 -10 Q254 34 294 124 L350 97 Q309 3 265 -46 L209 -10 ZM667 2 Q693 2 700 14 Q708 26 710 71 Q733 56 771 48 Q765 -14 745 -35 Q726 -56 675 -56 L503 -56 Q434 -56 411 -39 Q387 -23 387 26 L387 127 L456 127 L456 27 Q456 11 465 7 Q475 2 508 2 L667 2 ZM840 136 Q928 18 942 -2 L882 -33 Q841 35 783 111 L840 136 Z" /><glyph glyph-name="" unicode="&#x61c7;" d="M581 744 L581 674 L808 674 L808 744 L581 744 ZM808 553 L808 621 L581 621 L581 553 L808 553 ZM723 340 Q723 304 728 281 Q525 237 502 223 Q493 254 473 284 Q512 304 512 348 L512 799 L877 799 L877 497 L678 497 Q752 444 786 416 Q849 462 888 499 L935 460 Q884 417 828 381 Q902 319 946 266 L899 220 Q806 337 627 463 L664 497 L581 497 L581 312 L723 340 ZM471 231 Q573 160 629 98 L576 55 Q524 119 419 194 L471 231 ZM57 -20 Q111 58 152 171 L215 143 Q150 -9 123 -51 L57 -20 ZM495 681 Q446 640 357 598 Q431 515 439 400 Q447 293 396 250 Q365 222 313 221 Q290 221 248 223 Q246 257 231 284 Q268 280 298 280 Q332 280 346 293 Q383 317 376 402 Q263 316 110 269 Q90 300 71 316 Q257 365 367 459 L352 502 Q244 430 101 389 Q82 418 66 431 Q227 469 330 540 Q312 567 305 574 Q208 533 80 496 Q72 521 59 540 Q208 585 305 632 Q280 678 238 729 Q161 711 82 697 Q77 719 62 744 Q283 787 373 835 L427 791 Q390 773 295 744 Q334 700 356 658 Q414 693 441 719 L495 681 ZM163 700 Q209 657 228 613 L178 585 Q160 627 116 675 L163 700 ZM654 4 Q694 4 707 23 Q718 42 723 113 Q746 96 789 87 Q781 -2 756 -30 Q731 -59 660 -59 L413 -59 Q325 -59 295 -40 Q264 -20 264 36 L264 181 L338 181 L338 37 Q338 17 352 10 Q367 4 417 4 L654 4 ZM814 194 Q910 82 956 -7 L894 -39 Q846 58 756 166 L814 194 Z" /><glyph glyph-name="" unicode="&#x61c9;" d="M178 -17 Q252 40 292 161 L352 139 Q305 5 235 -53 L178 -17 ZM676 -8 Q701 -8 709 7 Q717 22 719 78 Q739 63 780 54 Q775 -19 754 -45 Q735 -69 683 -69 L523 -69 Q457 -69 434 -51 Q412 -34 412 17 L412 157 L480 157 L480 18 Q480 1 489 -3 Q498 -8 529 -8 L676 -8 ZM661 84 Q605 135 499 188 L541 229 Q650 179 707 130 L661 84 ZM805 171 Q909 65 949 -19 L889 -50 Q850 37 749 144 L805 171 ZM680 550 L526 550 L526 496 L680 496 L680 550 ZM680 453 L526 453 L526 398 L680 398 L680 453 ZM680 354 L526 354 L526 296 L680 296 L680 354 ZM462 479 Q430 439 408 419 Q382 443 356 460 Q458 552 516 690 L579 673 Q566 643 542 599 L691 599 Q669 638 639 671 L691 694 Q730 655 755 611 L731 599 L915 599 L915 550 L743 550 L743 496 L889 496 L889 453 L743 453 L743 398 L892 398 L892 354 L743 354 L743 296 L932 296 L932 246 L526 246 L526 216 L462 216 L462 479 ZM949 758 L949 696 L181 696 L181 455 Q293 554 357 688 L420 670 Q390 612 356 562 L356 216 L292 216 L292 476 Q264 442 218 398 Q198 421 181 435 Q179 96 90 -77 Q68 -51 34 -33 Q112 123 112 460 L112 758 L512 758 Q483 809 465 833 L529 855 Q567 805 589 758 L949 758 Z" /><glyph glyph-name="" unicode="&#x61fc;" d="M34 390 Q64 482 79 644 L131 637 Q123 484 88 371 L34 390 ZM161 836 L227 836 L227 -76 L161 -76 L161 836 ZM289 444 Q276 533 238 659 L288 675 Q331 543 342 465 L289 444 ZM447 22 L642 22 L642 90 L447 90 L447 22 ZM642 323 L447 323 L447 260 L642 260 L642 323 ZM642 207 L447 207 L447 143 L642 143 L642 207 ZM413 510 L559 510 L559 564 L413 564 L413 510 ZM413 608 L559 608 L559 661 L413 661 L413 608 ZM413 705 L559 705 L559 757 L413 757 L413 705 ZM721 510 L866 510 L866 564 L721 564 L721 510 ZM721 608 L866 608 L866 661 L721 661 L721 608 ZM721 705 L866 705 L866 757 L721 757 L721 705 ZM952 -36 L447 -36 L447 -76 L378 -76 L378 251 Q332 196 305 170 Q296 195 269 232 Q379 334 443 464 L358 464 L358 803 L616 803 L616 464 L446 464 L502 443 Q483 406 467 378 L645 378 Q630 422 615 450 L675 464 L664 464 L664 803 L925 803 L925 464 L679 464 Q703 417 716 378 L931 378 L931 323 L710 323 L710 260 L909 260 L909 207 L710 207 L710 143 L912 143 L912 90 L710 90 L710 22 L951 22 L952 -36 Z" /><glyph glyph-name="" unicode="&#x6210;" d="M714 832 Q831 773 893 718 L847 667 Q783 726 670 787 L714 832 ZM887 498 Q822 302 711 160 Q770 5 845 5 Q882 5 892 190 Q922 160 956 150 Q946 23 921 -23 Q896 -69 839 -69 Q729 -69 656 95 Q565 -4 450 -71 Q423 -34 396 -12 Q530 60 626 173 Q574 337 553 594 L208 594 L208 464 L463 464 L463 432 Q456 129 431 98 Q412 73 371 69 Q331 66 252 69 Q250 108 231 139 Q289 134 337 134 Q360 134 367 145 Q385 164 390 395 L208 395 L208 387 Q208 68 103 -84 Q75 -52 41 -34 Q132 101 132 388 L132 667 L549 667 Q545 722 543 835 L620 835 Q620 739 624 667 L947 667 L947 594 L629 594 Q645 385 684 247 Q766 367 812 517 L887 498 Z" /><glyph glyph-name="" unicode="&#x6211;" d="M859 601 Q806 681 702 771 L759 810 Q866 720 919 644 L859 601 ZM895 399 Q828 273 721 164 Q782 -5 854 -5 Q891 -5 899 174 Q928 146 962 134 Q952 10 927 -34 Q903 -79 847 -79 Q736 -79 662 108 Q562 19 451 -39 Q431 -6 400 20 Q532 84 637 182 Q601 307 581 472 L346 472 L346 312 L525 351 L530 284 Q483 272 346 241 L346 19 Q346 -46 303 -63 Q267 -77 137 -77 Q130 -42 109 -2 Q196 -6 249 -3 Q273 -3 273 20 L273 223 L164 199 Q91 182 66 177 L45 252 Q99 261 273 297 L273 472 L59 472 L59 543 L273 543 L273 702 Q186 685 89 672 Q82 703 65 734 Q322 773 460 824 L513 763 Q439 737 346 717 L346 543 L575 543 Q563 668 561 828 L637 828 Q637 677 649 543 L943 543 L943 472 L657 472 Q672 345 698 244 Q778 330 829 426 L895 399 Z" /><glyph glyph-name="" unicode="&#x6216;" d="M859 678 Q801 734 690 787 L733 833 Q845 783 905 730 L859 678 ZM511 86 Q176 14 79 -8 L65 67 Q282 109 505 156 L511 86 ZM400 451 L197 451 L197 278 L400 278 L400 451 ZM473 516 L473 214 L128 214 L128 516 L473 516 ZM893 515 Q828 313 716 165 Q775 0 847 0 Q885 0 893 185 Q921 155 958 143 Q948 16 923 -31 Q898 -77 840 -77 Q732 -77 660 96 Q567 -6 449 -76 Q423 -43 391 -19 Q531 55 631 177 Q582 340 561 604 L70 604 L70 677 L557 677 Q554 729 552 834 L630 834 Q630 754 633 677 L933 677 L933 604 L638 604 Q654 395 690 255 Q772 379 819 533 L893 515 Z" /><glyph glyph-name="" unicode="&#x6232;" d="M890 622 Q846 699 779 790 L834 817 Q915 709 949 654 L890 622 ZM155 617 L155 392 Q155 87 83 -63 Q62 -39 31 -24 Q92 109 92 392 L92 670 L284 670 L284 837 L354 837 L354 775 L565 775 L565 723 L354 723 L354 670 L538 670 L549 672 L593 662 Q573 572 553 520 L499 533 Q511 571 520 617 L361 617 L361 556 L464 566 L470 523 L361 512 L361 487 Q361 456 383 456 L479 456 Q521 456 538 461 Q539 445 543 415 Q528 410 482 410 L368 410 Q326 410 312 429 Q299 445 299 488 L299 506 L182 494 L176 539 L299 551 L299 617 L155 617 ZM579 324 L187 324 L187 376 L579 376 L579 324 ZM271 170 L484 170 L484 240 L271 240 L271 170 ZM213 127 L213 283 L545 283 L545 127 L213 127 ZM945 434 Q894 270 795 127 Q823 12 864 9 Q891 9 902 159 Q917 141 955 120 Q931 -78 864 -76 Q789 -75 743 63 Q682 -8 620 -48 Q595 -18 568 1 L568 -23 L166 -62 L158 -4 L281 6 Q267 63 249 109 L302 119 Q330 46 339 11 L405 17 Q438 89 449 123 L511 111 Q491 67 466 23 L568 32 L568 3 Q649 51 721 141 Q691 280 677 485 L593 474 L583 539 L672 551 Q667 645 661 832 L730 832 Q731 708 740 560 L950 587 L959 521 L744 494 Q755 343 775 215 Q853 334 889 465 L945 434 Z" /><glyph glyph-name="" unicode="&#x2f3e;&#x6236;" d="M761 310 L761 509 L254 509 L254 428 Q254 363 249 310 L761 310 ZM835 578 L835 187 L761 187 L761 240 L241 240 Q208 32 97 -79 Q66 -43 40 -29 Q180 113 180 428 L180 731 Q553 772 744 834 L805 778 Q618 721 254 676 L254 578 L835 578 Z" /><glyph glyph-name="" unicode="&#x6240;" d="M174 520 L174 361 L370 361 L370 520 L174 520 ZM172 293 Q160 46 92 -78 Q57 -43 32 -31 Q101 99 101 391 L101 739 Q337 767 441 815 L489 754 Q381 707 174 683 L174 587 L442 587 L442 293 L172 293 ZM954 429 L837 429 L837 -74 L764 -74 L764 429 L609 429 L609 405 Q609 70 463 -78 Q438 -48 405 -28 Q535 105 535 405 L535 737 Q768 771 885 824 L936 762 Q823 715 609 681 L609 500 L954 500 L954 429 Z" /><glyph glyph-name="" unicode="&#x6247;" d="M217 596 L217 503 L792 503 L792 596 L217 596 ZM216 445 Q204 104 96 -80 Q71 -55 32 -42 Q144 145 144 532 L144 755 Q614 774 855 821 L883 761 Q652 719 217 698 L217 654 L865 654 L865 445 L216 445 ZM433 90 Q363 58 226 1 L203 60 Q266 82 422 143 L433 90 ZM346 155 Q328 203 259 266 L308 295 Q370 245 400 188 L346 155 ZM519 -4 Q519 -53 487 -67 Q463 -78 364 -78 Q361 -60 342 -17 Q384 -18 434 -18 Q450 -18 450 -3 L450 316 L239 316 L239 375 L519 375 L519 -4 ZM788 99 Q692 54 575 6 L552 65 Q598 80 776 150 L788 99 ZM689 159 Q662 215 595 268 L645 298 Q711 249 742 193 L689 159 ZM881 -2 Q881 -52 847 -66 Q820 -78 720 -78 Q716 -52 698 -16 Q775 -18 794 -16 Q810 -16 810 -1 L810 316 L568 316 L568 375 L881 375 L881 -2 Z" /><glyph glyph-name="" unicode="&#x2f3f;&#x624b;" d="M949 249 L539 249 L539 27 Q539 -43 486 -60 Q441 -75 280 -73 Q269 -34 248 1 Q362 -3 433 0 Q464 0 464 28 L464 249 L53 249 L53 322 L464 322 L464 484 L120 484 L120 555 L464 555 L464 709 Q329 694 138 685 Q133 716 119 751 Q598 773 795 835 L851 776 Q734 740 539 717 L539 555 L893 555 L893 484 L539 484 L539 322 L949 322 L949 249 Z" /><glyph glyph-name="" unicode="&#x624d;" d="M934 559 L667 559 L667 39 Q667 -32 619 -49 Q578 -65 428 -63 Q421 -26 401 14 Q510 9 560 12 Q588 13 588 39 L588 534 Q391 211 96 43 Q71 83 39 109 Q325 254 515 559 L71 559 L71 634 L588 634 L588 837 L667 837 L667 634 L934 634 L934 559 Z" /><glyph glyph-name="" unicode="&#x627c;" d="M356 332 L245 296 L245 16 Q245 -39 212 -57 Q185 -71 95 -71 Q89 -33 73 -1 Q112 -2 159 -2 Q176 -2 176 15 L176 273 L62 237 L43 309 Q76 317 176 347 L176 567 L57 567 L57 636 L176 636 L176 836 L245 836 L245 636 L352 636 L352 567 L245 567 L245 368 L346 399 L356 332 ZM480 729 L480 436 Q480 83 362 -81 Q336 -50 305 -37 Q410 109 410 436 L410 797 L945 797 L945 729 L480 729 ZM841 7 Q872 7 882 36 Q891 63 895 158 Q929 136 959 130 Q952 19 931 -18 Q907 -58 845 -58 L674 -58 Q608 -58 583 -35 Q558 -11 558 57 L558 611 L900 611 L900 301 Q900 251 867 235 Q840 223 735 223 Q728 256 713 287 Q795 285 815 287 Q832 287 832 302 L832 544 L626 544 L626 56 Q626 25 636 16 Q646 7 681 7 L841 7 Z" /><glyph glyph-name="" unicode="&#x627e;" d="M809 627 Q764 697 675 775 L730 812 Q827 729 868 670 L809 627 ZM264 300 L264 18 Q264 -40 228 -55 Q198 -69 92 -69 Q87 -35 69 0 Q93 -1 172 -1 Q192 -1 192 18 L192 278 Q165 269 123 257 L59 239 L37 311 Q78 320 192 352 L192 566 L49 566 L49 636 L192 636 L192 836 L264 836 L264 636 L386 636 L386 566 L264 566 L264 372 Q279 376 325 390 Q364 401 388 407 L397 339 L264 300 ZM887 427 Q822 287 711 168 Q769 23 852 14 Q890 11 905 177 Q928 151 968 136 Q938 -79 856 -72 Q727 -62 652 110 Q545 12 426 -42 Q400 -7 368 16 Q501 68 624 183 Q585 299 558 501 L405 485 L398 555 L551 571 Q537 715 532 833 L606 833 Q612 699 624 579 L930 610 L938 542 L632 509 Q651 362 684 246 Q775 347 826 464 L887 427 Z" /><glyph glyph-name="" unicode="&#x627f;" d="M343 565 Q284 183 99 13 Q70 49 42 68 Q203 207 260 512 L73 512 L73 580 L283 580 L297 583 L343 565 ZM544 203 L720 203 L720 138 L544 138 L544 27 Q544 -35 500 -52 Q465 -65 327 -65 Q321 -33 300 7 Q367 5 446 5 Q470 6 470 27 L470 138 L286 138 L286 203 L470 203 L470 296 L331 296 L331 360 L470 360 L470 448 L348 448 L348 513 L470 513 L470 603 Q581 651 672 726 L203 726 L203 794 L748 794 L764 798 L815 761 Q703 646 544 571 L544 513 L659 513 L659 448 L544 448 L544 360 L675 360 L675 296 L544 296 L544 203 ZM924 587 Q851 516 766 454 Q823 172 965 71 Q936 47 912 9 Q755 136 694 478 Q787 545 866 635 L924 587 Z" /><glyph glyph-name="" unicode="&#x628a;" d="M369 331 L247 295 L247 9 Q247 -45 213 -62 Q183 -78 95 -76 Q89 -39 73 -8 Q140 -10 157 -8 Q174 -8 174 9 L174 272 L59 238 L39 309 Q111 328 174 347 L174 566 L54 566 L54 635 L174 635 L174 836 L247 836 L247 635 L350 635 L350 566 L247 566 L247 367 L359 400 L369 331 ZM481 712 L481 396 L622 396 L622 712 L481 712 ZM834 712 L692 712 L692 396 L834 396 L834 712 ZM816 20 Q860 20 875 49 Q888 76 895 168 Q929 145 967 138 Q957 29 929 -9 Q899 -51 818 -51 L559 -51 Q470 -51 439 -23 Q406 6 406 90 L406 785 L910 785 L910 260 L834 260 L834 325 L481 325 L481 89 Q481 47 496 34 Q511 20 562 20 L816 20 Z" /><glyph glyph-name="" unicode="&#x62bd;" d="M377 337 L255 299 L255 9 Q255 -47 219 -64 Q189 -77 88 -77 Q83 -45 65 -9 Q110 -10 164 -10 Q183 -10 183 9 L183 277 L52 236 L32 308 Q88 323 183 351 L183 567 L45 567 L45 636 L183 636 L183 836 L255 836 L255 636 L366 636 L366 567 L255 567 L255 370 Q270 374 311 387 L367 404 L377 337 ZM865 68 L865 272 L700 272 L700 68 L865 68 ZM472 68 L629 68 L629 272 L472 272 L472 68 ZM472 537 L472 342 L629 342 L629 537 L472 537 ZM700 537 L700 342 L865 342 L865 537 L700 537 ZM938 608 L938 -67 L865 -67 L865 -3 L472 -3 L472 -74 L401 -74 L401 608 L629 608 L629 835 L700 835 L700 608 L938 608 Z" /><glyph glyph-name="" unicode="&#x62c6;" d="M381 333 L259 297 L259 17 Q259 -39 225 -57 Q195 -70 100 -70 Q97 -40 77 0 Q118 -1 168 -1 Q186 -1 186 17 L186 275 L63 239 L42 312 Q93 323 186 349 L186 566 L55 566 L55 636 L186 636 L186 836 L259 836 L259 636 L378 636 L378 566 L259 566 L259 369 Q307 382 371 401 L381 333 ZM763 337 Q899 218 941 171 L895 119 Q855 165 763 251 L763 -76 L690 -76 L690 442 L492 442 L492 403 Q492 74 367 -78 Q337 -43 307 -29 Q417 104 417 403 L417 744 Q697 783 836 837 L902 780 Q754 727 492 689 L492 513 L932 513 L932 442 L763 442 L763 337 Z" /><glyph glyph-name="" unicode="&#x62ec;" d="M371 334 L245 295 L245 14 Q245 -44 209 -61 Q182 -74 77 -74 Q73 -46 54 -5 Q100 -6 155 -6 Q174 -5 174 14 L174 273 L57 239 L37 312 Q80 322 174 348 L174 566 L49 566 L49 636 L174 636 L174 836 L245 836 L245 636 L360 636 L360 566 L245 566 L245 368 Q254 370 303 385 Q339 396 362 402 L371 334 ZM829 226 L489 226 L489 31 L829 31 L829 226 ZM695 465 L695 294 L904 294 L904 -73 L829 -73 L829 -37 L489 -37 L489 -77 L417 -77 L417 294 L622 294 L622 465 L384 465 L384 536 L622 536 L622 709 Q507 692 418 684 Q415 710 398 744 Q714 779 863 830 L913 770 Q822 742 695 720 L695 536 L957 536 L957 465 L695 465 Z" /><glyph glyph-name="" unicode="&#x6301;" d="M351 334 L244 299 L244 16 Q244 -40 210 -56 Q180 -71 85 -70 Q81 -38 64 -1 Q107 -2 157 -2 Q175 -2 175 17 L175 277 Q88 248 51 237 L31 308 Q87 324 175 351 L175 567 L45 567 L45 636 L175 636 L175 836 L244 836 L244 636 L348 636 L348 567 L244 567 L244 372 L341 402 L351 334 ZM505 237 Q591 116 618 65 L557 28 Q522 100 448 204 L505 237 ZM827 334 L950 334 L950 266 L827 266 L827 10 Q827 -50 789 -66 Q757 -79 637 -79 Q632 -46 614 -7 Q705 -10 738 -8 Q757 -7 757 11 L757 266 L374 266 L374 334 L757 334 L757 423 L827 423 L827 334 ZM957 708 L957 639 L696 639 L696 517 L911 517 L911 449 L412 449 L412 517 L625 517 L625 639 L363 639 L363 708 L625 708 L625 832 L696 832 L696 708 L957 708 Z" /><glyph glyph-name="" unicode="&#x6307;" d="M388 338 L263 300 L263 13 Q263 -44 227 -62 Q194 -76 95 -75 Q90 -41 72 -6 Q150 -8 171 -6 Q190 -6 190 13 L190 277 L55 237 L33 310 Q102 328 190 353 L190 564 L48 564 L48 635 L190 635 L190 836 L263 836 L263 635 L376 635 L376 564 L263 564 L263 375 Q307 387 378 409 L388 338 ZM569 445 Q496 445 468 471 Q440 497 440 562 L440 833 L513 833 L513 713 L915 713 L915 648 L513 648 L513 560 Q513 531 524 521 Q536 509 568 509 L830 509 Q908 509 940 516 L945 482 Q947 461 949 451 Q926 445 834 445 L569 445 ZM512 296 L512 197 L836 197 L836 296 L512 296 ZM836 31 L836 136 L512 136 L512 31 L836 31 ZM441 360 L909 360 L909 -72 L836 -72 L836 -30 L512 -30 L512 -76 L441 -76 L441 360 Z" /><glyph glyph-name="" unicode="&#x6309;" d="M454 515 L384 515 L384 709 L629 709 Q613 767 592 826 L664 839 Q695 767 708 709 L942 709 L942 516 L870 516 L870 642 L454 642 L454 515 ZM576 365 Q547 297 515 236 Q579 205 667 157 Q731 236 760 365 L576 365 ZM838 365 Q803 212 732 121 Q873 42 946 -14 L897 -74 Q817 -11 683 68 Q577 -28 372 -78 Q363 -47 334 -9 Q518 27 617 107 Q520 162 419 210 Q459 279 497 365 L370 365 L378 309 L251 268 L251 9 Q251 -47 215 -64 Q185 -77 84 -77 Q80 -51 61 -9 Q106 -10 160 -10 Q179 -10 179 9 L179 246 L52 205 L34 277 Q117 300 179 319 L179 567 L45 567 L45 636 L179 636 L179 836 L251 836 L251 636 L358 636 L358 567 L251 567 L251 341 L356 372 L356 432 L525 432 Q563 522 586 603 L662 593 Q647 542 605 432 L772 432 Q778 471 781 515 L860 511 Q854 457 850 432 L959 432 L959 365 L838 365 Z" /><glyph glyph-name="" unicode="&#x638c;" d="M153 506 L83 506 L83 704 L251 704 Q217 764 180 805 L245 831 Q296 774 323 726 L276 704 L461 704 L461 837 L536 837 L536 704 L719 704 L675 722 Q727 780 759 831 L833 805 Q788 751 739 704 L922 704 L922 506 L849 506 L849 641 L153 641 L153 506 ZM295 450 L708 450 L708 529 L295 529 L295 450 ZM226 399 L226 580 L781 580 L781 399 L226 399 ZM941 62 L535 62 L535 -1 Q535 -55 491 -68 Q457 -78 312 -78 Q307 -55 286 -19 Q400 -22 438 -20 Q462 -19 462 0 L462 62 L61 62 L61 116 L462 116 L462 183 L118 183 L118 236 L462 236 L462 297 Q302 289 165 289 Q165 313 151 339 Q566 343 779 379 L826 332 Q717 313 535 301 L535 236 L888 236 L888 183 L535 183 L535 116 L941 116 L941 62 Z" /><glyph glyph-name="" unicode="&#x6392;" d="M239 311 L239 10 Q239 -47 205 -63 Q173 -77 81 -76 Q74 -39 59 -8 Q132 -10 153 -8 Q170 -8 170 10 L170 289 L51 250 L32 322 Q65 331 170 363 L170 568 L45 568 L45 636 L170 636 L170 836 L239 836 L239 636 L346 636 L346 568 L239 568 L239 384 Q272 394 338 416 L348 347 L239 311 ZM524 837 L590 837 L590 418 Q590 241 556 141 Q511 6 387 -77 Q366 -50 335 -27 Q460 55 501 195 L340 136 L311 201 Q380 218 515 263 Q522 312 524 392 L367 392 L367 459 L524 459 L524 599 L360 599 L360 667 L524 667 L524 837 ZM956 175 L765 175 L765 -75 L694 -75 L694 837 L765 837 L765 667 L939 667 L939 599 L765 599 L765 459 L929 459 L929 392 L765 392 L765 243 L956 243 L956 175 Z" /><glyph glyph-name="" unicode="&#x63a1;" d="M916 764 Q743 712 380 690 Q377 717 361 751 Q705 773 865 821 L916 764 ZM750 443 Q826 561 876 690 L946 664 Q869 507 807 419 L750 443 ZM622 478 Q620 561 575 665 L639 677 Q684 579 689 494 L622 478 ZM446 446 Q430 534 375 635 L434 652 Q492 555 510 467 L446 446 ZM239 311 L239 10 Q239 -47 205 -63 Q173 -77 81 -76 Q74 -39 59 -8 Q132 -10 153 -8 Q170 -8 170 10 L170 289 L51 250 L32 322 Q65 331 170 363 L170 568 L45 568 L45 636 L170 636 L170 836 L239 836 L239 636 L346 636 L346 568 L239 568 L239 384 Q272 394 338 416 L348 347 L239 311 ZM735 280 Q828 121 974 43 Q949 24 924 -13 Q786 73 688 239 L688 -70 L618 -70 L618 238 Q515 71 358 -16 Q333 24 307 42 Q469 117 570 280 L365 280 L365 347 L618 347 L618 457 L688 457 L688 347 L944 347 L944 280 L735 280 Z" /><glyph glyph-name="" unicode="&#x63a5;" d="M928 668 L395 668 L395 732 L639 732 Q617 788 595 827 L675 841 Q709 780 728 732 L928 732 L928 668 ZM541 506 Q519 568 470 633 L531 657 Q583 589 605 534 L541 506 ZM947 435 L370 435 L370 500 L706 500 Q758 586 782 655 L853 635 Q813 556 779 500 L947 500 L947 435 ZM241 636 L352 636 L352 567 L241 567 L241 371 L336 402 L347 334 L241 298 L241 13 Q241 -43 208 -60 Q177 -75 85 -74 Q79 -38 63 -4 Q131 -7 155 -5 Q172 -5 172 12 L172 276 L50 237 L31 308 Q73 320 172 351 L172 567 L45 567 L45 636 L172 636 L172 836 L241 836 L241 636 ZM575 261 Q541 207 517 172 Q595 144 676 110 Q740 168 776 261 L575 261 ZM852 261 Q818 152 746 79 Q861 29 940 -20 L887 -74 Q811 -24 689 33 Q586 -40 390 -75 Q383 -45 357 -11 Q523 14 614 67 Q515 110 416 145 Q458 198 497 261 L358 261 L358 325 L534 325 Q562 373 584 425 L654 411 Q639 377 612 325 L795 325 L807 384 L879 371 L870 325 L959 325 L959 261 L852 261 Z" /><glyph glyph-name="" unicode="&#x63cf;" d="M479 642 L354 642 L354 711 L479 711 L479 836 L552 836 L552 711 L629 711 L629 642 L552 642 L552 544 L479 544 L479 642 ZM377 338 L255 299 L255 9 Q255 -47 219 -64 Q189 -77 88 -77 Q83 -45 65 -9 Q110 -10 164 -10 Q183 -10 183 9 L183 277 L48 236 L32 308 Q52 313 102 327 L183 349 L183 567 L45 567 L45 636 L183 636 L183 836 L255 836 L255 636 L366 636 L366 567 L255 567 L255 370 L367 403 L377 338 ZM471 426 L471 273 L622 273 L622 426 L471 426 ZM846 426 L690 426 L690 273 L846 273 L846 426 ZM846 42 L846 208 L690 208 L690 42 L846 42 ZM471 42 L622 42 L622 208 L471 208 L471 42 ZM403 492 L917 492 L917 -70 L846 -70 L846 -24 L471 -24 L471 -76 L403 -76 L403 492 ZM957 713 L957 644 L828 644 L828 544 L755 544 L755 644 L671 644 L671 713 L755 713 L755 836 L828 836 L828 713 L957 713 Z" /><glyph glyph-name="" unicode="&#x63d0;" d="M809 747 L479 747 L479 668 L809 668 L809 747 ZM809 616 L479 616 L479 536 L809 536 L809 616 ZM880 479 L411 479 L411 803 L880 803 L880 479 ZM346 333 L236 296 L236 16 Q236 -40 202 -56 Q172 -71 78 -70 Q72 -35 56 -1 Q99 -2 149 -2 Q167 -2 167 17 L167 274 Q124 259 51 237 L33 309 Q76 319 167 348 L167 567 L44 567 L44 636 L167 636 L167 835 L236 835 L236 636 L346 636 L346 567 L236 567 L236 370 L337 401 L346 333 ZM679 10 Q723 4 773 4 Q933 4 966 5 Q951 -20 944 -61 L770 -61 Q650 -61 583 -30 Q502 8 456 106 Q413 -8 336 -77 Q313 -52 281 -32 Q405 65 430 298 L499 290 Q490 223 479 183 Q519 67 609 29 L609 345 L365 345 L365 408 L935 408 L935 345 L679 345 L679 228 L886 228 L886 167 L679 167 L679 10 Z" /><glyph glyph-name="" unicode="&#x63d2;" d="M335 327 L234 294 L234 15 Q234 -40 202 -56 Q174 -72 87 -70 Q81 -32 65 -1 Q104 -2 150 -2 Q166 -2 166 15 L166 272 Q174 274 58 237 L40 309 Q129 334 166 346 L166 567 L53 567 L53 636 L166 636 L166 836 L234 836 L234 636 L324 636 L324 567 L234 567 L234 366 L326 396 L335 327 ZM862 38 L862 189 L736 189 L736 252 L862 252 L862 388 L729 388 L729 453 L932 453 L932 -75 L862 -75 L862 -28 L462 -28 L462 -79 L391 -79 L391 426 Q490 452 550 486 L605 438 Q544 408 462 387 L462 251 L585 251 L585 188 L462 188 L462 38 L627 38 L627 559 L367 559 L367 626 L627 626 L627 732 L414 732 L414 799 L905 799 L905 732 L698 732 L698 626 L952 626 L952 559 L698 559 L698 38 L862 38 Z" /><glyph glyph-name="" unicode="&#x63db;" d="M235 302 L235 17 Q235 -40 202 -58 Q174 -74 82 -74 Q78 -43 60 0 Q100 -1 147 -1 Q164 -1 164 16 L164 276 Q87 248 55 238 L36 309 Q60 316 164 351 L164 567 L46 567 L46 636 L164 636 L164 836 L235 836 L235 636 L336 636 L336 567 L235 567 L235 375 L329 408 L341 341 L235 302 ZM601 223 Q612 268 616 322 L688 322 Q684 271 674 223 L827 223 L827 538 L653 538 L700 526 Q689 500 674 474 Q774 414 823 365 L787 324 Q739 374 647 431 Q600 367 539 320 Q519 340 491 355 Q594 426 641 538 L477 538 L477 223 L601 223 ZM542 699 Q516 652 475 600 L634 600 Q663 639 693 699 L542 699 ZM657 162 Q597 -21 339 -78 Q330 -52 302 -20 Q527 26 583 162 L331 162 L331 223 L415 223 L415 533 Q405 523 387 507 Q368 536 342 555 Q470 663 535 836 L604 826 Q596 804 575 760 L728 760 L739 763 L783 734 Q754 670 706 600 L891 600 L891 223 L955 223 L955 162 L657 162 ZM725 149 Q878 43 961 -32 L913 -79 Q824 4 680 110 L725 149 Z" /><glyph glyph-name="" unicode="&#x63e1;" d="M226 294 L226 16 Q226 -41 192 -57 Q162 -73 69 -71 Q63 -35 47 -1 Q89 -2 139 -2 Q156 -2 156 16 L156 272 L50 238 L32 307 Q129 336 156 343 L156 567 L45 567 L45 636 L156 636 L156 836 L226 836 L226 636 L334 636 L334 567 L226 567 L226 365 L327 397 L337 332 L226 294 ZM438 736 L438 640 L838 640 L838 736 L438 736 ZM957 6 L957 -55 L391 -55 L391 6 L646 6 L646 116 L451 116 L451 175 L646 175 L646 268 Q508 257 480 249 L480 253 Q479 251 479 249 Q467 288 457 311 Q475 315 504 344 Q551 395 588 452 L438 452 Q431 95 317 -78 Q288 -52 256 -39 Q366 128 366 487 L366 797 L912 797 L912 580 L438 580 L438 511 L915 511 L915 452 L671 452 Q618 376 564 321 L808 337 Q762 392 744 409 L797 432 Q885 350 923 273 L866 246 Q858 263 846 283 L719 274 L719 175 L915 175 L915 116 L719 116 L719 6 L957 6 Z" /></font>
</defs>
</svg>
